<?xml version="1.0" encoding="UTF-8" standalone="no" ?>
<!DOCTYPE svg PUBLIC "-//W3C//DTD SVG 1.1//EN" "http://www.w3.org/Graphics/SVG/1.1/DTD/svg11.dtd">
<svg xmlns="http://www.w3.org/2000/svg" xmlns:xlink="http://www.w3.org/1999/xlink" version="1.1" width="1080" height="1080" viewBox="0 0 1080 1080" xml:space="preserve">
<desc>Created with Fabric.js 5.2.4</desc>
<defs>
</defs>
<rect x="0" y="0" width="100%" height="100%" fill="transparent"></rect>
<g transform="matrix(1 0 0 1 540 540)" id="f27ee911-df62-4347-a476-ef493aa6fcc6"  >
<rect style="stroke: none; stroke-width: 1; stroke-dasharray: none; stroke-linecap: butt; stroke-dashoffset: 0; stroke-linejoin: miter; stroke-miterlimit: 4; fill: rgb(255,255,255); fill-rule: nonzero; opacity: 1; visibility: hidden;" vector-effect="non-scaling-stroke"  x="-540" y="-540" rx="0" ry="0" width="1080" height="1080" />
</g>
<g transform="matrix(1 0 0 1 540 540)" id="967f1409-85ca-4ea9-b7e5-3c264983bb7f"  >
</g>
<g transform="matrix(14.01 0 0 14.01 540 565.96)" id="Rectangle-3"  >
<path style="stroke: rgb(255,255,255); stroke-width: 4; stroke-dasharray: none; stroke-linecap: butt; stroke-dashoffset: 0; stroke-linejoin: miter; stroke-miterlimit: 4; fill: rgb(238,238,238); fill-rule: evenodd; opacity: 1;" vector-effect="non-scaling-stroke"  transform=" translate(-35, -27)" d="M 57.4369627 -2 L 12.5630373 -2 C 7.62820107 -2 5.86681913 -1.41548744 4.07025825 -0.45467617 C 2.11952899 0.588585254 0.588585254 2.11952899 -0.45467617 4.07025825 C -1.41548744 5.86681913 -2 7.62820107 -2 12.5630373 L -2 41.4369627 C -2 46.3717989 -1.41548744 48.1331809 -0.45467617 49.9297418 C 0.588585254 51.880471 2.11952899 53.4114147 4.07025825 54.4546762 C 5.86681913 55.4154874 7.62820107 56 12.5630373 56 L 57.4369627 56 C 62.3717989 56 64.1331809 55.4154874 65.9297418 54.4546762 C 67.880471 53.4114147 69.4114147 51.880471 70.4546762 49.9297418 C 71.4154874 48.1331809 72 46.3717989 72 41.4369627 L 72 12.5630373 C 72 7.62820107 71.4154874 5.86681913 70.4546762 4.07025825 C 69.4114147 2.11952899 67.880471 0.588585254 65.9297418 -0.45467617 C 64.1331809 -1.41548744 62.3717989 -2 57.4369627 -2 Z" stroke-linecap="round" />
</g>
<g transform="matrix(14.01 0 0 14.01 540 565.96)" id="Oval-19"  >
<circle style="stroke: none; stroke-width: 1; stroke-dasharray: none; stroke-linecap: butt; stroke-dashoffset: 0; stroke-linejoin: miter; stroke-miterlimit: 4; fill: rgb(255,75,75); fill-rule: nonzero; opacity: 1;" vector-effect="non-scaling-stroke"  cx="0" cy="0" r="13" />
</g>
<g transform="matrix(14.01 0 0 14.01 540.05 636.02)" id="Path"  >
<path style="stroke: none; stroke-width: 1; stroke-dasharray: none; stroke-linecap: butt; stroke-dashoffset: 0; stroke-linejoin: miter; stroke-miterlimit: 4; fill: rgb(28,176,246); fill-rule: nonzero; opacity: 1;" vector-effect="non-scaling-stroke"  transform=" translate(-35, -32)" d="M 22.0095143 27.5020022 C 24.233325 29.8234187 26.4233502 30.984127 28.5795898 30.984127 C 30.7389045 30.984127 32.888522 29.8201058 35.0284424 27.4920635 C 36.9850227 25.1640212 39.0922005 24 41.3499756 24 C 43.5266391 24 45.7425557 25.0818875 47.9977253 27.2456626 C 47.8667649 34.3119988 42.0976344 40 35 40 C 27.9883966 40 22.2732864 34.4490525 22.0095143 27.5020022 Z" stroke-linecap="round" />
</g>
<g transform="matrix(14.01 0 0 14.01 239.89 780.64)" id="Path"  >
<path style="stroke: none; stroke-width: 1; stroke-dasharray: none; stroke-linecap: butt; stroke-dashoffset: 0; stroke-linejoin: miter; stroke-miterlimit: 4; fill: rgb(76,76,76); fill-rule: nonzero; opacity: 1;" vector-effect="non-scaling-stroke"  transform=" translate(-13.58, -42.32)" d="M 17.0541176 47.6354797 L 8.26047638 38.8617788 C 7.74733178 38.3497977 7.74638851 37.5187693 8.25836951 37.0056247 C 8.77035052 36.4924801 9.60137902 36.4915368 10.1145236 37.0035178 L 18.9081648 45.7772187 C 19.4213094 46.2891997 19.4222527 47.1202282 18.9102717 47.6333728 C 18.3982907 48.1465174 17.5672622 48.1474607 17.0541176 47.6354797 Z" stroke-linecap="round" />
</g>
<g transform="matrix(14.01 0 0 14.01 832.11 438.72)" id="Path"  >
<path style="stroke: none; stroke-width: 1; stroke-dasharray: none; stroke-linecap: butt; stroke-dashoffset: 0; stroke-linejoin: miter; stroke-miterlimit: 4; fill: rgb(76,76,76); fill-rule: nonzero; opacity: 1;" vector-effect="non-scaling-stroke"  transform=" translate(-55.84, -17.92)" d="M 56.5087856 20.4433135 L 53.3225597 17.2527111 C 52.8103485 16.7397963 52.8109188 15.9087674 53.3238336 15.3965562 C 53.8367484 14.884345 54.6677773 14.8849153 55.1799885 15.3978301 L 58.3662144 18.5884325 C 58.8784256 19.1013473 58.8778553 19.9323762 58.3649405 20.4445874 C 57.8520257 20.9567986 57.0209968 20.9562283 56.5087856 20.4433135 Z" stroke-linecap="round" />
</g>
<g transform="matrix(14.01 0 0 14.01 227.63 352.44)" id="Path"  >
<path style="stroke: none; stroke-width: 1; stroke-dasharray: none; stroke-linecap: butt; stroke-dashoffset: 0; stroke-linejoin: miter; stroke-miterlimit: 4; fill: rgb(76,76,76); fill-rule: nonzero; opacity: 1;" vector-effect="non-scaling-stroke"  transform=" translate(-12.71, -11.76)" d="M 9.23952362 17.0799241 C 8.72637902 17.5919051 7.89535052 17.5909619 7.38336951 17.0778173 C 6.87138851 16.5646727 6.87233178 15.7336442 7.38547638 15.2216632 L 16.1791176 6.44796222 C 16.6922622 5.93598122 17.5232907 5.9369245 18.0352717 6.4500691 C 18.5472527 6.96321369 18.5463094 7.79424219 18.0331648 8.3062232 L 9.23952362 17.0799241 Z" stroke-linecap="round" />
</g>
<g transform="matrix(14.01 0 0 14.01 752.04 358.92)" id="Path"  >
<path style="stroke: none; stroke-width: 1; stroke-dasharray: none; stroke-linecap: butt; stroke-dashoffset: 0; stroke-linejoin: miter; stroke-miterlimit: 4; fill: rgb(76,76,76); fill-rule: nonzero; opacity: 1;" vector-effect="non-scaling-stroke"  transform=" translate(-50.13, -12.23)" d="M 50.6911649 14.6388877 L 47.7168352 11.6713026 C 47.2036906 11.1593216 47.2027473 10.3282931 47.7147283 9.81514846 C 48.2267094 9.30200386 49.0577379 9.30106058 49.5708825 9.81304159 L 52.5452121 12.7806268 C 53.0583567 13.2926078 53.0593 14.1236363 52.547319 14.6367809 C 52.035338 15.1499255 51.2043095 15.1508688 50.6911649 14.6388877 Z" stroke-linecap="round" />
</g>
<g transform="matrix(14.01 0 0 14.01 247.55 691.02)" id="Path"  >
<path style="stroke: none; stroke-width: 1; stroke-dasharray: none; stroke-linecap: butt; stroke-dashoffset: 0; stroke-linejoin: miter; stroke-miterlimit: 4; fill: rgb(76,76,76); fill-rule: nonzero; opacity: 1;" vector-effect="non-scaling-stroke"  transform=" translate(-14.13, -35.92)" d="M 14.6911649 38.3373004 L 11.7168352 35.3697153 C 11.2036906 34.8577343 11.2027473 34.0267058 11.7147283 33.5135612 C 12.2267094 33.0004166 13.0577379 32.9994733 13.5708825 33.5114543 L 16.5452121 36.4790395 C 17.0583567 36.9910205 17.0593 37.822049 16.547319 38.3351936 C 16.035338 38.8483382 15.2043095 38.8492815 14.6911649 38.3373004 Z" stroke-linecap="round" />
</g>
<g transform="matrix(14.01 0 0 14.01 791.68 731.7)" id="Path"  >
<path style="stroke: none; stroke-width: 1; stroke-dasharray: none; stroke-linecap: butt; stroke-dashoffset: 0; stroke-linejoin: miter; stroke-miterlimit: 4; fill: rgb(76,76,76); fill-rule: nonzero; opacity: 1;" vector-effect="non-scaling-stroke"  transform=" translate(-52.96, -38.83)" d="M 49.4895236 44.1434162 C 48.976379 44.6553972 48.1453505 44.6544539 47.6333695 44.1413093 C 47.1213885 43.6281647 47.1223318 42.7971362 47.6354764 42.2851552 L 56.4291176 33.5114543 C 56.9422622 32.9994733 57.7732907 33.0004166 58.2852717 33.5135612 C 58.7972527 34.0267058 58.7963094 34.8577343 58.2831648 35.3697153 L 49.4895236 44.1434162 Z" stroke-linecap="round" />
</g>
<g transform="matrix(14.01 0 0 14.01 881.15 389.78)" id="Path"  >
<path style="stroke: none; stroke-width: 1; stroke-dasharray: none; stroke-linecap: butt; stroke-dashoffset: 0; stroke-linejoin: miter; stroke-miterlimit: 4; fill: rgb(76,76,76); fill-rule: nonzero; opacity: 1;" vector-effect="non-scaling-stroke"  transform=" translate(-59.34, -14.43)" d="M 60.0087856 16.95125 L 56.8225597 13.7606476 C 56.3103485 13.2477328 56.3109188 12.416704 56.8238336 11.9044927 C 57.3367484 11.3922815 58.1677773 11.3928518 58.6799885 11.9057666 L 61.8662144 15.096369 C 62.3784256 15.6092838 62.3778553 16.4403127 61.8649405 16.9525239 C 61.3520257 17.4647351 60.5209968 17.4641648 60.0087856 16.95125 Z" stroke-linecap="round" />
</g>
<g transform="matrix(14.01 0 0 14.01 276.67 401.38)" id="Path"  >
<path style="stroke: none; stroke-width: 1; stroke-dasharray: none; stroke-linecap: butt; stroke-dashoffset: 0; stroke-linejoin: miter; stroke-miterlimit: 4; fill: rgb(76,76,76); fill-rule: nonzero; opacity: 1;" vector-effect="non-scaling-stroke"  transform=" translate(-16.21, -15.26)" d="M 12.7395236 20.5719876 C 12.226379 21.0839686 11.3953505 21.0830254 10.8833695 20.5698808 C 10.3713885 20.0567362 10.3723318 19.2257077 10.8854764 18.7137267 L 19.6791176 9.94002572 C 20.1922622 9.42804471 21.0232907 9.42898799 21.5352717 9.94213259 C 22.0472527 10.4552772 22.0463094 11.2863057 21.5331648 11.7982867 L 12.7395236 20.5719876 Z" stroke-linecap="round" />
</g>
<g transform="matrix(14.01 0 0 14.01 840.72 780.64)" id="Path"  >
<path style="stroke: none; stroke-width: 1; stroke-dasharray: none; stroke-linecap: butt; stroke-dashoffset: 0; stroke-linejoin: miter; stroke-miterlimit: 4; fill: rgb(76,76,76); fill-rule: nonzero; opacity: 1;" vector-effect="non-scaling-stroke"  transform=" translate(-56.46, -42.32)" d="M 52.9895236 47.6354797 C 52.476379 48.1474607 51.6453505 48.1465174 51.1333695 47.6333728 C 50.6213885 47.1202282 50.6223318 46.2891997 51.1354764 45.7772187 L 59.9291176 37.0035178 C 60.4422622 36.4915368 61.2732907 36.4924801 61.7852717 37.0056247 C 62.2972527 37.5187693 62.2963094 38.3497977 61.7831648 38.8617788 L 52.9895236 47.6354797 Z" stroke-linecap="round" />
</g>
<g transform="matrix(14.01 0 0 14.01 801.09 309.98)" id="Path"  >
<path style="stroke: none; stroke-width: 1; stroke-dasharray: none; stroke-linecap: butt; stroke-dashoffset: 0; stroke-linejoin: miter; stroke-miterlimit: 4; fill: rgb(76,76,76); fill-rule: nonzero; opacity: 1;" vector-effect="non-scaling-stroke"  transform=" translate(-53.63, -8.73)" d="M 54.1911649 11.1468243 L 51.2168352 8.17923907 C 50.7036906 7.66725807 50.7027473 6.83622957 51.2147283 6.32308497 C 51.7267094 5.80994037 52.5577379 5.80899709 53.0708825 6.3209781 L 56.0452121 9.28856328 C 56.5583567 9.80054429 56.5593 10.6315728 56.047319 11.1447174 C 55.535338 11.657862 54.7043095 11.6588053 54.1911649 11.1468243 Z" stroke-linecap="round" />
</g>
<g transform="matrix(14.01 0 0 14.01 327.61 770.82)" id="Path"  >
<path style="stroke: none; stroke-width: 1; stroke-dasharray: none; stroke-linecap: butt; stroke-dashoffset: 0; stroke-linejoin: miter; stroke-miterlimit: 4; fill: rgb(76,76,76); fill-rule: nonzero; opacity: 1;" vector-effect="non-scaling-stroke"  transform=" translate(-19.84, -41.62)" d="M 20.5087856 44.1417262 L 17.3225597 40.9511238 C 16.8103485 40.438209 16.8109188 39.6071801 17.3238336 39.0949689 C 17.8367484 38.5827577 18.6677773 38.583328 19.1799885 39.0962428 L 22.3662144 42.2868452 C 22.8784256 42.79976 22.8778553 43.6307889 22.3649405 44.1430001 C 21.8520257 44.6552113 21.0209968 44.654641 20.5087856 44.1417262 Z" stroke-linecap="round" />
</g>
</svg>