<?xml version="1.0" encoding="UTF-8" standalone="no" ?>
<!DOCTYPE svg PUBLIC "-//W3C//DTD SVG 1.1//EN" "http://www.w3.org/Graphics/SVG/1.1/DTD/svg11.dtd">
<svg xmlns="http://www.w3.org/2000/svg" xmlns:xlink="http://www.w3.org/1999/xlink" version="1.1" width="1080" height="1080" viewBox="0 0 1080 1080" xml:space="preserve">
<desc>Created with Fabric.js 5.2.4</desc>
<defs>
</defs>
<g transform="matrix(1 0 0 1 540 540)" id="e16b78bb-b046-418f-9438-e34f7f179cc8"  >
<rect style="stroke: none; stroke-width: 1; stroke-dasharray: none; stroke-linecap: butt; stroke-dashoffset: 0; stroke-linejoin: miter; stroke-miterlimit: 4; fill: rgb(255,255,255); fill-rule: nonzero; opacity: 1; visibility: hidden;" vector-effect="non-scaling-stroke"  x="-540" y="-540" rx="0" ry="0" width="1080" height="1080" />
</g>
<g transform="matrix(1 0 0 1 540 540)" id="508e52a1-f054-4af6-a99c-c30b7efa0ebe"  >
</g>
<g transform="matrix(0.82 0 0 0.82 568.98 489.04)"  >
<g style="" vector-effect="non-scaling-stroke"   >
		<g transform="matrix(10.14 0 0 10.14 0 0)"  >
<path style="stroke: rgb(0,56,147); stroke-width: 5.165; stroke-dasharray: none; stroke-linecap: butt; stroke-dashoffset: 0; stroke-linejoin: miter; stroke-miterlimit: 4; fill: rgb(220,20,60); fill-rule: nonzero; opacity: 1;" vector-effect="non-scaling-stroke"  transform=" translate(-15, -40)" d="M -15 37.5735931288 L 45 37.5735931288 L -15 0 L -15 80 L 45 80 L -15 20 z" stroke-linecap="round" />
</g>
		<g transform="matrix(10.14 0 0 10.14 0 0)" id="a"  >
<path style="stroke: none; stroke-width: 1; stroke-dasharray: none; stroke-linecap: butt; stroke-dashoffset: 0; stroke-linejoin: miter; stroke-miterlimit: 4; fill: rgb(220,20,60); fill-rule: nonzero; opacity: 1;" vector-effect="non-scaling-stroke"  transform=" translate(-15, -40)" d="M -15 37.5735931288 L 45 37.5735931288 L -15 0 L -15 80 L 45 80 L -15 20 z" stroke-linecap="round" />
</g>
		<g transform="matrix(10.14 0 0 10.14 -152.16 -106.93)"  >
<path style="stroke: none; stroke-width: 1; stroke-dasharray: none; stroke-linecap: butt; stroke-dashoffset: 0; stroke-linejoin: miter; stroke-miterlimit: 4; fill: rgb(255,255,255); fill-rule: nonzero; opacity: 1;" vector-effect="non-scaling-stroke"  transform=" translate(0, -29.46)" d="M -11.9502769431 23.4834957055 C -10.019439350582417 28.396317086855596 -5.2786312367680885 31.62689398758946 0 31.62689398758946 C 5.2786312367680885 31.62689398758946 10.019439350582417 28.396317086855596 11.9502769431 23.4834957055 C 11.9502769431 30.083451417428684 6.599955711928683 35.4337726486 0 35.4337726486 C -6.599955711928683 35.4337726486 -11.9502769431 30.083451417428684 -11.9502769431 23.4834957055" stroke-linecap="round" />
</g>
		<g transform="matrix(56.41 0 0 56.41 -152.16 -111.12)"  >
<circle style="stroke: none; stroke-width: 1; stroke-dasharray: none; stroke-linecap: butt; stroke-dashoffset: 0; stroke-linejoin: miter; stroke-miterlimit: 4; fill: rgb(255,255,255); fill-rule: nonzero; opacity: 1;" vector-effect="non-scaling-stroke"  cx="0" cy="0" r="1" />
</g>
		<g transform="matrix(55.33 11.01 -11.01 55.33 -139.12 -176.67)" id="b"  >
<path style="stroke: none; stroke-width: 1; stroke-dasharray: none; stroke-linecap: butt; stroke-dashoffset: 0; stroke-linejoin: miter; stroke-miterlimit: 4; fill: rgb(255,255,255); fill-rule: nonzero; opacity: 1;" vector-effect="non-scaling-stroke"  transform=" translate(0, 1.18)" d="M 0.195090322016 -0.980785280403 L 0 -1.38878410975 L -0.195090322016 -0.980785280403" stroke-linecap="round" />
</g>
		<g transform="matrix(46.9 31.34 -31.34 46.9 -115.03 -166.69)"  >
<path style="stroke: none; stroke-width: 1; stroke-dasharray: none; stroke-linecap: butt; stroke-dashoffset: 0; stroke-linejoin: miter; stroke-miterlimit: 4; fill: rgb(255,255,255); fill-rule: nonzero; opacity: 1;" vector-effect="non-scaling-stroke"  transform=" translate(0, 1.18)" d="M 0.195090322016 -0.980785280403 L 0 -1.38878410975 L -0.195090322016 -0.980785280403" stroke-linecap="round" />
</g>
		<g transform="matrix(31.34 46.9 -46.9 31.34 -96.59 -148.26)"  >
<path style="stroke: none; stroke-width: 1; stroke-dasharray: none; stroke-linecap: butt; stroke-dashoffset: 0; stroke-linejoin: miter; stroke-miterlimit: 4; fill: rgb(255,255,255); fill-rule: nonzero; opacity: 1;" vector-effect="non-scaling-stroke"  transform=" translate(0, 1.18)" d="M 0.195090322016 -0.980785280403 L 0 -1.38878410975 L -0.195090322016 -0.980785280403" stroke-linecap="round" />
</g>
		<g transform="matrix(11.01 55.33 -55.33 11.01 -86.61 -124.16)" id="b"  >
<path style="stroke: none; stroke-width: 1; stroke-dasharray: none; stroke-linecap: butt; stroke-dashoffset: 0; stroke-linejoin: miter; stroke-miterlimit: 4; fill: rgb(255,255,255); fill-rule: nonzero; opacity: 1;" vector-effect="non-scaling-stroke"  transform=" translate(0, 1.18)" d="M 0.195090322016 -0.980785280403 L 0 -1.38878410975 L -0.195090322016 -0.980785280403" stroke-linecap="round" />
</g>
		<g transform="matrix(-11.01 55.33 -55.33 -11.01 -86.61 -98.09)"  >
<path style="stroke: none; stroke-width: 1; stroke-dasharray: none; stroke-linecap: butt; stroke-dashoffset: 0; stroke-linejoin: miter; stroke-miterlimit: 4; fill: rgb(255,255,255); fill-rule: nonzero; opacity: 1;" vector-effect="non-scaling-stroke"  transform=" translate(0, 1.18)" d="M 0.195090322016 -0.980785280403 L 0 -1.38878410975 L -0.195090322016 -0.980785280403" stroke-linecap="round" />
</g>
		<g transform="matrix(-31.34 46.9 -46.9 -31.34 -96.59 -73.99)"  >
<path style="stroke: none; stroke-width: 1; stroke-dasharray: none; stroke-linecap: butt; stroke-dashoffset: 0; stroke-linejoin: miter; stroke-miterlimit: 4; fill: rgb(255,255,255); fill-rule: nonzero; opacity: 1;" vector-effect="non-scaling-stroke"  transform=" translate(0, 1.18)" d="M 0.195090322016 -0.980785280403 L 0 -1.38878410975 L -0.195090322016 -0.980785280403" stroke-linecap="round" />
</g>
		<g transform="matrix(-55.33 11.01 11.01 55.33 -165.19 -176.67)" id="b"  >
<path style="stroke: none; stroke-width: 1; stroke-dasharray: none; stroke-linecap: butt; stroke-dashoffset: 0; stroke-linejoin: miter; stroke-miterlimit: 4; fill: rgb(255,255,255); fill-rule: nonzero; opacity: 1;" vector-effect="non-scaling-stroke"  transform=" translate(0, 1.18)" d="M 0.195090322016 -0.980785280403 L 0 -1.38878410975 L -0.195090322016 -0.980785280403" stroke-linecap="round" />
</g>
		<g transform="matrix(-46.9 31.34 31.34 46.9 -189.29 -166.69)"  >
<path style="stroke: none; stroke-width: 1; stroke-dasharray: none; stroke-linecap: butt; stroke-dashoffset: 0; stroke-linejoin: miter; stroke-miterlimit: 4; fill: rgb(255,255,255); fill-rule: nonzero; opacity: 1;" vector-effect="non-scaling-stroke"  transform=" translate(0, 1.18)" d="M 0.195090322016 -0.980785280403 L 0 -1.38878410975 L -0.195090322016 -0.980785280403" stroke-linecap="round" />
</g>
		<g transform="matrix(-31.34 46.9 46.9 31.34 -207.73 -148.26)"  >
<path style="stroke: none; stroke-width: 1; stroke-dasharray: none; stroke-linecap: butt; stroke-dashoffset: 0; stroke-linejoin: miter; stroke-miterlimit: 4; fill: rgb(255,255,255); fill-rule: nonzero; opacity: 1;" vector-effect="non-scaling-stroke"  transform=" translate(0, 1.18)" d="M 0.195090322016 -0.980785280403 L 0 -1.38878410975 L -0.195090322016 -0.980785280403" stroke-linecap="round" />
</g>
		<g transform="matrix(-11.01 55.33 55.33 11.01 -217.71 -124.16)" id="b"  >
<path style="stroke: none; stroke-width: 1; stroke-dasharray: none; stroke-linecap: butt; stroke-dashoffset: 0; stroke-linejoin: miter; stroke-miterlimit: 4; fill: rgb(255,255,255); fill-rule: nonzero; opacity: 1;" vector-effect="non-scaling-stroke"  transform=" translate(0, 1.18)" d="M 0.195090322016 -0.980785280403 L 0 -1.38878410975 L -0.195090322016 -0.980785280403" stroke-linecap="round" />
</g>
		<g transform="matrix(11.01 55.33 55.33 -11.01 -217.71 -98.09)"  >
<path style="stroke: none; stroke-width: 1; stroke-dasharray: none; stroke-linecap: butt; stroke-dashoffset: 0; stroke-linejoin: miter; stroke-miterlimit: 4; fill: rgb(255,255,255); fill-rule: nonzero; opacity: 1;" vector-effect="non-scaling-stroke"  transform=" translate(0, 1.18)" d="M 0.195090322016 -0.980785280403 L 0 -1.38878410975 L -0.195090322016 -0.980785280403" stroke-linecap="round" />
</g>
		<g transform="matrix(31.34 46.9 46.9 -31.34 -207.73 -73.99)"  >
<path style="stroke: none; stroke-width: 1; stroke-dasharray: none; stroke-linecap: butt; stroke-dashoffset: 0; stroke-linejoin: miter; stroke-miterlimit: 4; fill: rgb(255,255,255); fill-rule: nonzero; opacity: 1;" vector-effect="non-scaling-stroke"  transform=" translate(0, 1.18)" d="M 0.195090322016 -0.980785280403 L 0 -1.38878410975 L -0.195090322016 -0.980785280403" stroke-linecap="round" />
</g>
		<g transform="matrix(82.6 0 0 82.6 -152.16 190.57)"  >
<circle style="stroke: none; stroke-width: 1; stroke-dasharray: none; stroke-linecap: butt; stroke-dashoffset: 0; stroke-linejoin: miter; stroke-miterlimit: 4; fill: rgb(255,255,255); fill-rule: nonzero; opacity: 1;" vector-effect="non-scaling-stroke"  cx="0" cy="0" r="1" />
</g>
		<g transform="matrix(82.6 0 0 82.6 -152.16 295.59)" id="e"  >
<path style="stroke: none; stroke-width: 1; stroke-dasharray: none; stroke-linecap: butt; stroke-dashoffset: 0; stroke-linejoin: miter; stroke-miterlimit: 4; fill: rgb(255,255,255); fill-rule: nonzero; opacity: 1;" vector-effect="non-scaling-stroke"  transform=" translate(0, -1.27)" d="M 0.258819045103 0.965925826289 L 0 1.576749285537 L -0.258819045103 0.965925826289" stroke-linecap="round" />
</g>
		<g transform="matrix(-82.6 0 0 -82.6 -152.16 85.55)"  >
<path style="stroke: none; stroke-width: 1; stroke-dasharray: none; stroke-linecap: butt; stroke-dashoffset: 0; stroke-linejoin: miter; stroke-miterlimit: 4; fill: rgb(255,255,255); fill-rule: nonzero; opacity: 1;" vector-effect="non-scaling-stroke"  transform=" translate(0, -1.27)" d="M 0.258819045103 0.965925826289 L 0 1.576749285537 L -0.258819045103 0.965925826289" stroke-linecap="round" />
</g>
		<g transform="matrix(0 82.6 -82.6 0 -257.17 190.57)" id="e"  >
<path style="stroke: none; stroke-width: 1; stroke-dasharray: none; stroke-linecap: butt; stroke-dashoffset: 0; stroke-linejoin: miter; stroke-miterlimit: 4; fill: rgb(255,255,255); fill-rule: nonzero; opacity: 1;" vector-effect="non-scaling-stroke"  transform=" translate(0, -1.27)" d="M 0.258819045103 0.965925826289 L 0 1.576749285537 L -0.258819045103 0.965925826289" stroke-linecap="round" />
</g>
		<g transform="matrix(0 -82.6 82.6 0 -47.14 190.57)"  >
<path style="stroke: none; stroke-width: 1; stroke-dasharray: none; stroke-linecap: butt; stroke-dashoffset: 0; stroke-linejoin: miter; stroke-miterlimit: 4; fill: rgb(255,255,255); fill-rule: nonzero; opacity: 1;" vector-effect="non-scaling-stroke"  transform=" translate(0, -1.27)" d="M 0.258819045103 0.965925826289 L 0 1.576749285537 L -0.258819045103 0.965925826289" stroke-linecap="round" />
</g>
		<g transform="matrix(71.54 41.3 -41.3 71.54 -204.67 281.52)" id="e"  >
<path style="stroke: none; stroke-width: 1; stroke-dasharray: none; stroke-linecap: butt; stroke-dashoffset: 0; stroke-linejoin: miter; stroke-miterlimit: 4; fill: rgb(255,255,255); fill-rule: nonzero; opacity: 1;" vector-effect="non-scaling-stroke"  transform=" translate(0, -1.27)" d="M 0.258819045103 0.965925826289 L 0 1.576749285537 L -0.258819045103 0.965925826289" stroke-linecap="round" />
</g>
		<g transform="matrix(-71.54 -41.3 41.3 -71.54 -99.65 99.62)"  >
<path style="stroke: none; stroke-width: 1; stroke-dasharray: none; stroke-linecap: butt; stroke-dashoffset: 0; stroke-linejoin: miter; stroke-miterlimit: 4; fill: rgb(255,255,255); fill-rule: nonzero; opacity: 1;" vector-effect="non-scaling-stroke"  transform=" translate(0, -1.27)" d="M 0.258819045103 0.965925826289 L 0 1.576749285537 L -0.258819045103 0.965925826289" stroke-linecap="round" />
</g>
		<g transform="matrix(-41.3 71.54 -71.54 -41.3 -243.1 138.06)" id="e"  >
<path style="stroke: none; stroke-width: 1; stroke-dasharray: none; stroke-linecap: butt; stroke-dashoffset: 0; stroke-linejoin: miter; stroke-miterlimit: 4; fill: rgb(255,255,255); fill-rule: nonzero; opacity: 1;" vector-effect="non-scaling-stroke"  transform=" translate(0, -1.27)" d="M 0.258819045103 0.965925826289 L 0 1.576749285537 L -0.258819045103 0.965925826289" stroke-linecap="round" />
</g>
		<g transform="matrix(41.3 -71.54 71.54 41.3 -61.21 243.08)"  >
<path style="stroke: none; stroke-width: 1; stroke-dasharray: none; stroke-linecap: butt; stroke-dashoffset: 0; stroke-linejoin: miter; stroke-miterlimit: 4; fill: rgb(255,255,255); fill-rule: nonzero; opacity: 1;" vector-effect="non-scaling-stroke"  transform=" translate(0, -1.27)" d="M 0.258819045103 0.965925826289 L 0 1.576749285537 L -0.258819045103 0.965925826289" stroke-linecap="round" />
</g>
		<g transform="matrix(41.3 71.54 -71.54 41.3 -243.1 243.08)" id="e"  >
<path style="stroke: none; stroke-width: 1; stroke-dasharray: none; stroke-linecap: butt; stroke-dashoffset: 0; stroke-linejoin: miter; stroke-miterlimit: 4; fill: rgb(255,255,255); fill-rule: nonzero; opacity: 1;" vector-effect="non-scaling-stroke"  transform=" translate(0, -1.27)" d="M 0.258819045103 0.965925826289 L 0 1.576749285537 L -0.258819045103 0.965925826289" stroke-linecap="round" />
</g>
		<g transform="matrix(-41.3 -71.54 71.54 -41.3 -61.21 138.06)"  >
<path style="stroke: none; stroke-width: 1; stroke-dasharray: none; stroke-linecap: butt; stroke-dashoffset: 0; stroke-linejoin: miter; stroke-miterlimit: 4; fill: rgb(255,255,255); fill-rule: nonzero; opacity: 1;" vector-effect="non-scaling-stroke"  transform=" translate(0, -1.27)" d="M 0.258819045103 0.965925826289 L 0 1.576749285537 L -0.258819045103 0.965925826289" stroke-linecap="round" />
</g>
		<g transform="matrix(-71.54 41.3 -41.3 -71.54 -204.67 99.62)" id="e"  >
<path style="stroke: none; stroke-width: 1; stroke-dasharray: none; stroke-linecap: butt; stroke-dashoffset: 0; stroke-linejoin: miter; stroke-miterlimit: 4; fill: rgb(255,255,255); fill-rule: nonzero; opacity: 1;" vector-effect="non-scaling-stroke"  transform=" translate(0, -1.27)" d="M 0.258819045103 0.965925826289 L 0 1.576749285537 L -0.258819045103 0.965925826289" stroke-linecap="round" />
</g>
		<g transform="matrix(71.54 -41.3 41.3 71.54 -99.65 281.52)"  >
<path style="stroke: none; stroke-width: 1; stroke-dasharray: none; stroke-linecap: butt; stroke-dashoffset: 0; stroke-linejoin: miter; stroke-miterlimit: 4; fill: rgb(255,255,255); fill-rule: nonzero; opacity: 1;" vector-effect="non-scaling-stroke"  transform=" translate(0, -1.27)" d="M 0.258819045103 0.965925826289 L 0 1.576749285537 L -0.258819045103 0.965925826289" stroke-linecap="round" />
</g>
</g>
</g>
</svg>