<?xml version="1.0" encoding="UTF-8" standalone="no" ?>
<!DOCTYPE svg PUBLIC "-//W3C//DTD SVG 1.1//EN" "http://www.w3.org/Graphics/SVG/1.1/DTD/svg11.dtd">
<svg xmlns="http://www.w3.org/2000/svg" xmlns:xlink="http://www.w3.org/1999/xlink" version="1.1" width="500" height="400" viewBox="224.09 262.73 500 400" xml:space="preserve">
<desc>Created with Fabric.js 5.2.4</desc>
<defs>
</defs>
<g transform="matrix(0 0 0 0 0 0)" id="cae3818d-1217-4cab-a58f-5cc34f2d742c"  >
</g>
<g transform="matrix(1 0 0 1 250 200)" id="2e3ae11e-28ad-499f-b03d-bfe2ce12b91c"  >
<rect style="stroke: none; stroke-width: 1; stroke-dasharray: none; stroke-linecap: butt; stroke-dashoffset: 0; stroke-linejoin: miter; stroke-miterlimit: 4; fill: rgb(255,255,255); fill-rule: nonzero; opacity: 1; visibility: hidden;" vector-effect="non-scaling-stroke"  x="-250" y="-200" rx="0" ry="0" width="500" height="400" />
</g>
<g transform="matrix(6.56 0 0 6.56 477.54 471.34)"  >
<path style="stroke: rgb(255,255,255); stroke-width: 4; stroke-dasharray: none; stroke-linecap: butt; stroke-dashoffset: 0; stroke-linejoin: miter; stroke-miterlimit: 4; fill: rgb(238,238,238); fill-rule: evenodd; opacity: 1;" vector-effect="non-scaling-stroke"  transform=" translate(-35, -27)" d="M 57.4369625 -2 L 12.5630375 -2 C 7.62820119 -2 5.86681923 -1.41548743 4.07025832 -0.45467615 C 2.11952904 0.588585286 0.588585286 2.11952904 -0.45467615 4.07025832 C -1.41548743 5.86681923 -2 7.62820119 -2 12.5630375 L -2 41.4369625 C -2 46.3717988 -1.41548743 48.1331808 -0.45467615 49.9297417 C 0.588585286 51.880471 2.11952904 53.4114147 4.07025832 54.4546762 C 5.86681923 55.4154874 7.62820119 56 12.5630375 56 L 57.4369625 56 C 62.3717988 56 64.1331808 55.4154874 65.9297417 54.4546762 C 67.880471 53.4114147 69.4114147 51.880471 70.4546762 49.9297417 C 71.4154874 48.1331808 72 46.3717988 72 41.4369625 L 72 12.5630375 C 72 7.62820119 71.4154874 5.86681923 70.4546762 4.07025832 C 69.4114147 2.11952904 67.880471 0.588585286 65.9297417 -0.45467615 C 64.1331808 -1.41548743 62.3717988 -2 57.4369625 -2 Z" stroke-linecap="round" />
</g>
<g transform="matrix(6.56 0 0 6.56 477.51 313.87)"  >
<path style="stroke: none; stroke-width: 1; stroke-dasharray: none; stroke-linecap: butt; stroke-dashoffset: 0; stroke-linejoin: miter; stroke-miterlimit: 4; fill: rgb(255,75,75); fill-rule: evenodd; opacity: 1;" vector-effect="non-scaling-stroke"  transform=" translate(-35, -3)" d="M 12.5630375 -1.33226763e-15 L 57.4369625 -1.33226763e-15 C 61.8054044 -1.33226763e-15 63.3895069 0.454845494 64.986544 1.30895025 C 66.583581 2.163055 67.836945 3.41641901 68.6910498 5.01345604 C 68.8631227 5.33520441 69.0189902 5.65642778 69.158198 6 L 0.841802033 6 C 0.981009754 5.65642778 1.13687734 5.33520441 1.30895025 5.01345604 C 2.163055 3.41641901 3.41641901 2.163055 5.01345604 1.30895025 C 6.61049308 0.454845494 8.19459564 -1.33226763e-15 12.5630375 -1.33226763e-15 Z" stroke-linecap="round" />
</g>
<g transform="matrix(6.56 0 0 6.56 477.54 392.6)"  >
<path style="stroke: none; stroke-width: 1; stroke-dasharray: none; stroke-linecap: butt; stroke-dashoffset: 0; stroke-linejoin: miter; stroke-miterlimit: 4; fill: rgb(255,75,75); fill-rule: evenodd; opacity: 1;" vector-effect="non-scaling-stroke"  transform=" translate(-35, -15)" d="M 69.9973404 12 C 69.9991119 12.1824033 70 12.370002 70 12.5630375 L 70 18 L -7.10542736e-15 18 L -7.10542736e-15 12.5630375 C -7.10542736e-15 12.370002 0.000888147597 12.1824033 0.00265964657 12 L 69.9973404 12 Z" stroke-linecap="round" />
</g>
<g transform="matrix(6.56 0 0 6.56 477.54 471.52)" id="Path"  >
<polygon style="stroke: none; stroke-width: 1; stroke-dasharray: none; stroke-linecap: butt; stroke-dashoffset: 0; stroke-linejoin: miter; stroke-miterlimit: 4; fill: rgb(255,75,75); fill-rule: evenodd; opacity: 1;" vector-effect="non-scaling-stroke"  points="35,-3 35,3 -35,3 -35,-3 " />
</g>
<g transform="matrix(6.56 0 0 6.56 477.54 550.25)"  >
<path style="stroke: none; stroke-width: 1; stroke-dasharray: none; stroke-linecap: butt; stroke-dashoffset: 0; stroke-linejoin: miter; stroke-miterlimit: 4; fill: rgb(255,75,75); fill-rule: evenodd; opacity: 1;" vector-effect="non-scaling-stroke"  transform=" translate(-35, -39)" d="M 70 41.4369625 C 70 41.629998 69.9991119 41.8175967 69.9973404 42 L 0.00265964657 42 C 0.000888147597 41.8175967 -7.10542736e-15 41.629998 -7.10542736e-15 41.4369625 L -7.10542736e-15 36 L 70 36 L 70 41.4369625 Z" stroke-linecap="round" />
</g>
<g transform="matrix(6.56 0 0 6.56 477.51 629.17)"  >
<path style="stroke: none; stroke-width: 1; stroke-dasharray: none; stroke-linecap: butt; stroke-dashoffset: 0; stroke-linejoin: miter; stroke-miterlimit: 4; fill: rgb(255,75,75); fill-rule: evenodd; opacity: 1;" vector-effect="non-scaling-stroke"  transform=" translate(-35, -51)" d="M 69.158198 48 C 69.0189902 48.3435722 68.8631227 48.6647956 68.6910498 48.986544 C 67.836945 50.583581 66.583581 51.836945 64.986544 52.6910498 C 63.3895069 53.5451545 61.8054044 54 57.4369625 54 L 12.5630375 54 C 8.19459564 54 6.61049308 53.5451545 5.01345604 52.6910498 C 3.41641901 51.836945 2.163055 50.583581 1.30895025 48.986544 C 1.13687734 48.6647956 0.981009754 48.3435722 0.841802033 48 L 69.158198 48 Z" stroke-linecap="round" />
</g>
<g transform="matrix(6.56 0 0 6.56 362.71 372.92)"  >
<path style="stroke: none; stroke-width: 1; stroke-dasharray: none; stroke-linecap: butt; stroke-dashoffset: 0; stroke-linejoin: miter; stroke-miterlimit: 4; fill: rgb(28,176,246); fill-rule: evenodd; opacity: 1;" vector-effect="non-scaling-stroke"  transform=" translate(-17.5, -12)" d="M 12.5630375 0 L 35 0 L 35 24 L 0 24 L 0 12.5630375 C 0 8.19459564 0.454845494 6.61049308 1.30895025 5.01345604 C 2.163055 3.41641901 3.41641901 2.163055 5.01345604 1.30895025 C 6.61049308 0.454845494 8.19459564 0 12.5630375 0 Z" stroke-linecap="round" />
</g>
<g transform="matrix(6.56 0 0 6.56 431.81 338.11)"  >
<path style="stroke: none; stroke-width: 1; stroke-dasharray: none; stroke-linecap: butt; stroke-dashoffset: 0; stroke-linejoin: miter; stroke-miterlimit: 4; fill: rgb(255,255,255); fill-rule: nonzero; opacity: 1;" vector-effect="non-scaling-stroke"  transform=" translate(-28, -6.7)" d="M 27.8061079 9.60193513 L 26.5305369 10.2725425 C 26.130007 10.4831135 25.6346119 10.3291214 25.4240409 9.92859159 C 25.3401905 9.76909851 25.3112558 9.58641188 25.3417162 9.40881373 L 25.5853286 7.98844455 C 25.6085111 7.85328036 25.5636992 7.71536361 25.4654967 7.61963979 L 24.4335381 6.61372876 C 24.1095026 6.29787227 24.1028723 5.77913737 24.4187288 5.45510193 C 24.5445045 5.32606932 24.7093085 5.24209749 24.8876271 5.21618627 L 26.3137589 5.0089572 C 26.4494714 4.98923701 26.5667904 4.90399977 26.6274829 4.78102332 L 27.2652684 3.48872876 C 27.4655333 3.08294772 27.9568307 2.91634398 28.3626117 3.1166089 C 28.5241958 3.19635544 28.654985 3.32714462 28.7347316 3.48872876 L 29.3725171 4.78102332 C 29.4332096 4.90399977 29.5505286 4.98923701 29.6862411 5.0089572 L 31.1123729 5.21618627 C 31.5601788 5.28125629 31.8704476 5.69702442 31.8053776 6.14483038 C 31.7794664 6.32314906 31.6954945 6.48795305 31.5664619 6.61372876 L 30.5345033 7.61963979 C 30.4363008 7.71536361 30.3914889 7.85328036 30.4146714 7.98844455 L 30.6582838 9.40881373 C 30.7347782 9.85481025 30.4352375 10.2783728 29.989241 10.3548672 C 29.8116428 10.3853277 29.6289562 10.356393 29.4694631 10.2725425 L 28.1938921 9.60193513 C 28.0725071 9.53811925 27.9274929 9.53811925 27.8061079 9.60193513 Z" stroke-linecap="round" />
</g>
<g transform="matrix(6.56 0 0 6.56 431.81 403.9)"  >
<path style="stroke: none; stroke-width: 1; stroke-dasharray: none; stroke-linecap: butt; stroke-dashoffset: 0; stroke-linejoin: miter; stroke-miterlimit: 4; fill: rgb(255,255,255); fill-rule: nonzero; opacity: 1;" vector-effect="non-scaling-stroke"  transform=" translate(-28, -16.7)" d="M 27.8061079 19.6019351 L 26.5305369 20.2725425 C 26.130007 20.4831135 25.6346119 20.3291214 25.4240409 19.9285916 C 25.3401905 19.7690985 25.3112558 19.5864119 25.3417162 19.4088137 L 25.5853286 17.9884446 C 25.6085111 17.8532804 25.5636992 17.7153636 25.4654967 17.6196398 L 24.4335381 16.6137288 C 24.1095026 16.2978723 24.1028723 15.7791374 24.4187288 15.4551019 C 24.5445045 15.3260693 24.7093085 15.2420975 24.8876271 15.2161863 L 26.3137589 15.0089572 C 26.4494714 14.989237 26.5667904 14.9039998 26.6274829 14.7810233 L 27.2652684 13.4887288 C 27.4655333 13.0829477 27.9568307 12.916344 28.3626117 13.1166089 C 28.5241958 13.1963554 28.654985 13.3271446 28.7347316 13.4887288 L 29.3725171 14.7810233 C 29.4332096 14.9039998 29.5505286 14.989237 29.6862411 15.0089572 L 31.1123729 15.2161863 C 31.5601788 15.2812563 31.8704476 15.6970244 31.8053776 16.1448304 C 31.7794664 16.3231491 31.6954945 16.487953 31.5664619 16.6137288 L 30.5345033 17.6196398 C 30.4363008 17.7153636 30.3914889 17.8532804 30.4146714 17.9884446 L 30.6582838 19.4088137 C 30.7347782 19.8548102 30.4352375 20.2783728 29.989241 20.3548672 C 29.8116428 20.3853277 29.6289562 20.356393 29.4694631 20.2725425 L 28.1938921 19.6019351 C 28.0725071 19.5381193 27.9274929 19.5381193 27.8061079 19.6019351 Z" stroke-linecap="round" />
</g>
<g transform="matrix(6.56 0 0 6.56 366.01 338.11)"  >
<path style="stroke: none; stroke-width: 1; stroke-dasharray: none; stroke-linecap: butt; stroke-dashoffset: 0; stroke-linejoin: miter; stroke-miterlimit: 4; fill: rgb(255,255,255); fill-rule: nonzero; opacity: 1;" vector-effect="non-scaling-stroke"  transform=" translate(-18, -6.7)" d="M 17.8061079 9.60193513 L 16.5305369 10.2725425 C 16.130007 10.4831135 15.6346119 10.3291214 15.4240409 9.92859159 C 15.3401905 9.76909851 15.3112558 9.58641188 15.3417162 9.40881373 L 15.5853286 7.98844455 C 15.6085111 7.85328036 15.5636992 7.71536361 15.4654967 7.61963979 L 14.4335381 6.61372876 C 14.1095026 6.29787227 14.1028723 5.77913737 14.4187288 5.45510193 C 14.5445045 5.32606932 14.7093085 5.24209749 14.8876271 5.21618627 L 16.3137589 5.0089572 C 16.4494714 4.98923701 16.5667904 4.90399977 16.6274829 4.78102332 L 17.2652684 3.48872876 C 17.4655333 3.08294772 17.9568307 2.91634398 18.3626117 3.1166089 C 18.5241958 3.19635544 18.654985 3.32714462 18.7347316 3.48872876 L 19.3725171 4.78102332 C 19.4332096 4.90399977 19.5505286 4.98923701 19.6862411 5.0089572 L 21.1123729 5.21618627 C 21.5601788 5.28125629 21.8704476 5.69702442 21.8053776 6.14483038 C 21.7794664 6.32314906 21.6954945 6.48795305 21.5664619 6.61372876 L 20.5345033 7.61963979 C 20.4363008 7.71536361 20.3914889 7.85328036 20.4146714 7.98844455 L 20.6582838 9.40881373 C 20.7347782 9.85481025 20.4352375 10.2783728 19.989241 10.3548672 C 19.8116428 10.3853277 19.6289562 10.356393 19.4694631 10.2725425 L 18.1938921 9.60193513 C 18.0725071 9.53811925 17.9274929 9.53811925 17.8061079 9.60193513 Z" stroke-linecap="round" />
</g>
<g transform="matrix(6.56 0 0 6.56 366.01 403.9)"  >
<path style="stroke: none; stroke-width: 1; stroke-dasharray: none; stroke-linecap: butt; stroke-dashoffset: 0; stroke-linejoin: miter; stroke-miterlimit: 4; fill: rgb(255,255,255); fill-rule: nonzero; opacity: 1;" vector-effect="non-scaling-stroke"  transform=" translate(-18, -16.7)" d="M 17.8061079 19.6019351 L 16.5305369 20.2725425 C 16.130007 20.4831135 15.6346119 20.3291214 15.4240409 19.9285916 C 15.3401905 19.7690985 15.3112558 19.5864119 15.3417162 19.4088137 L 15.5853286 17.9884446 C 15.6085111 17.8532804 15.5636992 17.7153636 15.4654967 17.6196398 L 14.4335381 16.6137288 C 14.1095026 16.2978723 14.1028723 15.7791374 14.4187288 15.4551019 C 14.5445045 15.3260693 14.7093085 15.2420975 14.8876271 15.2161863 L 16.3137589 15.0089572 C 16.4494714 14.989237 16.5667904 14.9039998 16.6274829 14.7810233 L 17.2652684 13.4887288 C 17.4655333 13.0829477 17.9568307 12.916344 18.3626117 13.1166089 C 18.5241958 13.1963554 18.654985 13.3271446 18.7347316 13.4887288 L 19.3725171 14.7810233 C 19.4332096 14.9039998 19.5505286 14.989237 19.6862411 15.0089572 L 21.1123729 15.2161863 C 21.5601788 15.2812563 21.8704476 15.6970244 21.8053776 16.1448304 C 21.7794664 16.3231491 21.6954945 16.487953 21.5664619 16.6137288 L 20.5345033 17.6196398 C 20.4363008 17.7153636 20.3914889 17.8532804 20.4146714 17.9884446 L 20.6582838 19.4088137 C 20.7347782 19.8548102 20.4352375 20.2783728 19.989241 20.3548672 C 19.8116428 20.3853277 19.6289562 20.356393 19.4694631 20.2725425 L 18.1938921 19.6019351 C 18.0725071 19.5381193 17.9274929 19.5381193 17.8061079 19.6019351 Z" stroke-linecap="round" />
</g>
<g transform="matrix(6.56 0 0 6.56 300.4 338.11)"  >
<path style="stroke: none; stroke-width: 1; stroke-dasharray: none; stroke-linecap: butt; stroke-dashoffset: 0; stroke-linejoin: miter; stroke-miterlimit: 4; fill: rgb(255,255,255); fill-rule: nonzero; opacity: 1;" vector-effect="non-scaling-stroke"  transform=" translate(-8, -6.7)" d="M 7.80610786 9.60193513 L 6.53053687 10.2725425 C 6.13000704 10.4831135 5.63461194 10.3291214 5.42404095 9.92859159 C 5.34019047 9.76909851 5.31125576 9.58641188 5.34171622 9.40881373 L 5.58532861 7.98844455 C 5.60851108 7.85328036 5.56369921 7.71536361 5.46549668 7.61963979 L 4.43353806 6.61372876 C 4.10950262 6.29787227 4.10287228 5.77913737 4.41872877 5.45510193 C 4.54450448 5.32606932 4.70930846 5.24209749 4.88762714 5.21618627 L 6.31375887 5.0089572 C 6.44947144 4.98923701 6.56679043 4.90399977 6.62748294 4.78102332 L 7.26526843 3.48872876 C 7.46553335 3.08294772 7.95683067 2.91634398 8.36261171 3.1166089 C 8.52419584 3.19635544 8.65498503 3.32714462 8.73473157 3.48872876 L 9.37251706 4.78102332 C 9.43320957 4.90399977 9.55052856 4.98923701 9.68624113 5.0089572 L 11.1123729 5.21618627 C 11.5601788 5.28125629 11.8704476 5.69702442 11.8053776 6.14483038 C 11.7794664 6.32314906 11.6954945 6.48795305 11.5664619 6.61372876 L 10.5345033 7.61963979 C 10.4363008 7.71536361 10.3914889 7.85328036 10.4146714 7.98844455 L 10.6582838 9.40881373 C 10.7347782 9.85481025 10.4352375 10.2783728 9.98924099 10.3548672 C 9.81164283 10.3853277 9.62895621 10.356393 9.46946313 10.2725425 L 8.19389214 9.60193513 C 8.07250713 9.53811925 7.92749287 9.53811925 7.80610786 9.60193513 Z" stroke-linecap="round" />
</g>
<g transform="matrix(6.56 0 0 6.56 300.4 403.9)"  >
<path style="stroke: none; stroke-width: 1; stroke-dasharray: none; stroke-linecap: butt; stroke-dashoffset: 0; stroke-linejoin: miter; stroke-miterlimit: 4; fill: rgb(255,255,255); fill-rule: nonzero; opacity: 1;" vector-effect="non-scaling-stroke"  transform=" translate(-8, -16.7)" d="M 7.80610786 19.6019351 L 6.53053687 20.2725425 C 6.13000704 20.4831135 5.63461194 20.3291214 5.42404095 19.9285916 C 5.34019047 19.7690985 5.31125576 19.5864119 5.34171622 19.4088137 L 5.58532861 17.9884446 C 5.60851108 17.8532804 5.56369921 17.7153636 5.46549668 17.6196398 L 4.43353806 16.6137288 C 4.10950262 16.2978723 4.10287228 15.7791374 4.41872877 15.4551019 C 4.54450448 15.3260693 4.70930846 15.2420975 4.88762714 15.2161863 L 6.31375887 15.0089572 C 6.44947144 14.989237 6.56679043 14.9039998 6.62748294 14.7810233 L 7.26526843 13.4887288 C 7.46553335 13.0829477 7.95683067 12.916344 8.36261171 13.1166089 C 8.52419584 13.1963554 8.65498503 13.3271446 8.73473157 13.4887288 L 9.37251706 14.7810233 C 9.43320957 14.9039998 9.55052856 14.989237 9.68624113 15.0089572 L 11.1123729 15.2161863 C 11.5601788 15.2812563 11.8704476 15.6970244 11.8053776 16.1448304 C 11.7794664 16.3231491 11.6954945 16.487953 11.5664619 16.6137288 L 10.5345033 17.6196398 C 10.4363008 17.7153636 10.3914889 17.8532804 10.4146714 17.9884446 L 10.6582838 19.4088137 C 10.7347782 19.8548102 10.4352375 20.2783728 9.98924099 20.3548672 C 9.81164283 20.3853277 9.62895621 20.356393 9.46946313 20.2725425 L 8.19389214 19.6019351 C 8.07250713 19.5381193 7.92749287 19.5381193 7.80610786 19.6019351 Z" stroke-linecap="round" />
</g>
</svg>