<?xml version="1.0" encoding="UTF-8" standalone="no" ?>
<!DOCTYPE svg PUBLIC "-//W3C//DTD SVG 1.1//EN" "http://www.w3.org/Graphics/SVG/1.1/DTD/svg11.dtd">
<svg xmlns="http://www.w3.org/2000/svg" xmlns:xlink="http://www.w3.org/1999/xlink" version="1.1" width="1080" height="1080" viewBox="0 0 1080 1080" xml:space="preserve">
<desc>Created with Fabric.js 5.2.4</desc>
<defs>
</defs>
<g transform="matrix(1 0 0 1 540 540)" id="ef2d2016-7bfe-4d27-b600-81afe18e32f6"  >
</g>
<g transform="matrix(1 0 0 1 540 540)" id="ad535522-c97b-44f9-85fe-fd81eb9d7fed"  >
<rect style="stroke: none; stroke-width: 1; stroke-dasharray: none; stroke-linecap: butt; stroke-dashoffset: 0; stroke-linejoin: miter; stroke-miterlimit: 4; fill: rgb(255,255,255); fill-rule: nonzero; opacity: 1; visibility: hidden;" vector-effect="non-scaling-stroke"  x="-540" y="-540" rx="0" ry="0" width="1080" height="1080" />
</g>
<g transform="matrix(13.51 0 0 13.51 537.22 556.25)"  >
<path style="stroke: rgb(255,255,255); stroke-width: 4; stroke-dasharray: none; stroke-linecap: butt; stroke-dashoffset: 0; stroke-linejoin: miter; stroke-miterlimit: 4; fill: rgb(120,200,0); fill-rule: nonzero; opacity: 1;" vector-effect="non-scaling-stroke"  transform=" translate(-35, -27)" d="M 57.4369625 -2 L 12.5630375 -2 C 7.62820119 -2 5.86681923 -1.41548743 4.07025832 -0.45467615 C 2.11952904 0.588585286 0.588585286 2.11952904 -0.45467615 4.07025832 C -1.41548743 5.86681923 -2 7.62820119 -2 12.5630375 L -2 41.4369625 C -2 46.3717988 -1.41548743 48.1331808 -0.45467615 49.9297417 C 0.588585286 51.880471 2.11952904 53.4114147 4.07025832 54.4546762 C 5.86681923 55.4154874 7.62820119 56 12.5630375 56 L 57.4369625 56 C 62.3717988 56 64.1331808 55.4154874 65.9297417 54.4546762 C 67.880471 53.4114147 69.4114147 51.880471 70.4546762 49.9297417 C 71.4154874 48.1331808 72 46.3717988 72 41.4369625 L 72 12.5630375 C 72 7.62820119 71.4154874 5.86681923 70.4546762 4.07025832 C 69.4114147 2.11952904 67.880471 0.588585286 65.9297417 -0.45467615 C 64.1331808 -1.41548743 62.3717988 -2 57.4369625 -2 Z" stroke-linecap="round" />
</g>
<g transform="matrix(9.39 9.72 -9.72 9.39 344.42 398.6)"  >
<path style="stroke: none; stroke-width: 1; stroke-dasharray: none; stroke-linecap: butt; stroke-dashoffset: 0; stroke-linejoin: miter; stroke-miterlimit: 4; fill: rgb(142,224,0); fill-rule: nonzero; opacity: 1;" vector-effect="non-scaling-stroke"  transform=" translate(-15.83, -9.79)" d="M 23.2178139 5.33884478 C 24.4533909 5.338331 25.3297433 6.53746524 24.947367 7.70715487 C 23.6779086 11.5904303 19.9958964 14.2387115 15.8302534 14.2404451 C 11.6642945 14.2421771 7.98393311 11.5965459 6.71756678 7.71380167 C 6.3367892 6.54631804 7.06695263 5.50633848 8.30065598 5.5036965 L 23.2178139 5.33884478 Z" stroke-linecap="round" />
</g>
<g transform="matrix(13.51 0 0 13.51 536.95 554.8)"  >
<path style="stroke: none; stroke-width: 1; stroke-dasharray: none; stroke-linecap: butt; stroke-dashoffset: 0; stroke-linejoin: miter; stroke-miterlimit: 4; fill: rgb(142,224,0); fill-rule: evenodd; opacity: 1;" vector-effect="non-scaling-stroke"  transform=" translate(-30.07, -21.34)" d="M 22.9696484 10.8399547 C 26.6338689 14.5379786 33.0953291 14.5379786 37.1766818 10.8399547 C 41.2580345 7.14193082 36.563252 32.3763367 36.563252 32.3114863 C 36.563252 32.2804668 34.3817921 32.2716067 30.0188721 32.2847806 C 28.8492913 32.2883122 26.7421957 32.2972141 23.6975851 32.3114863 C 20.7694803 15.5317826 20.5268348 8.37460546 22.9696484 10.8399547 Z" stroke-linecap="round" />
</g>
<g transform="matrix(9.04 10.04 -10.04 9.04 261.72 452.8)"  >
<path style="stroke: none; stroke-width: 1; stroke-dasharray: none; stroke-linecap: butt; stroke-dashoffset: 0; stroke-linejoin: miter; stroke-miterlimit: 4; fill: rgb(142,224,0); fill-rule: nonzero; opacity: 1;" vector-effect="non-scaling-stroke"  transform=" translate(-9.71, -13.79)" d="M 2.32806955 9.3496252 L 17.0978982 9.34348143 C 18.3334752 9.34296765 19.2098276 10.5421019 18.8274513 11.7117915 C 17.5579929 15.5950669 13.8759807 18.2433482 9.71033773 18.2450818 C 5.54437886 18.2468138 1.86401743 15.6011825 0.597651101 11.7184383 C 0.216283885 10.5491468 1.09301853 9.35013893 2.32806955 9.3496252 Z" stroke-linecap="round" />
</g>
<g transform="matrix(-9.39 9.72 9.72 9.39 730.11 398.62)"  >
<path style="stroke: none; stroke-width: 1; stroke-dasharray: none; stroke-linecap: butt; stroke-dashoffset: 0; stroke-linejoin: miter; stroke-miterlimit: 4; fill: rgb(142,224,0); fill-rule: nonzero; opacity: 1;" vector-effect="non-scaling-stroke"  transform=" translate(-15.6, -9.75)" d="M 22.987081 5.29970943 C 24.222658 5.29919565 25.0990104 6.49832989 24.7166342 7.66801952 C 23.4471757 11.5512949 19.7651635 14.1995762 15.5995205 14.2013098 C 11.4335617 14.2030418 7.75320024 11.5574105 6.48683392 7.67466632 C 6.10605633 6.50718269 6.83621976 5.46720313 8.06992311 5.46456115 L 22.987081 5.29970943 Z" stroke-linecap="round" />
</g>
<g transform="matrix(-9.04 10.04 10.04 9.04 812.74 452.73)"  >
<path style="stroke: none; stroke-width: 1; stroke-dasharray: none; stroke-linecap: butt; stroke-dashoffset: 0; stroke-linejoin: miter; stroke-miterlimit: 4; fill: rgb(142,224,0); fill-rule: nonzero; opacity: 1;" vector-effect="non-scaling-stroke"  transform=" translate(-9.48, -13.76)" d="M 2.09733668 9.31048985 L 16.8671654 9.30434608 C 18.1027423 9.3038323 18.9790948 10.5029665 18.5967185 11.6726562 C 17.3272601 15.5559316 13.6452478 18.2042128 9.47960486 18.2059464 C 5.31364599 18.2076784 1.63328456 15.5620472 0.366918233 11.679303 C -0.0144489827 10.5100115 0.862285661 9.31100358 2.09733668 9.31048985 Z" stroke-linecap="round" />
</g>
<g transform="matrix(13.51 0 0 13.51 312.01 584.33)"  >
<path style="stroke: none; stroke-width: 1; stroke-dasharray: none; stroke-linecap: butt; stroke-dashoffset: 0; stroke-linejoin: miter; stroke-miterlimit: 4; fill: rgb(142,224,0); fill-rule: evenodd; opacity: 1;" vector-effect="non-scaling-stroke"  transform=" translate(-13.44, -23.53)" d="M 13.1481846 6.99118035 L 13.7237859 6.99118035 C 20.9853278 6.99118035 26.8719705 12.8778231 26.8719705 20.1393649 L 26.8719705 26.9175625 C 26.8719705 34.1791044 20.9853278 40.0657471 13.7237859 40.0657471 L 13.1481846 40.0657471 C 5.88664274 40.0657471 2.33769793e-15 34.1791044 0 26.9175625 L 0 20.1393649 C -2.66563923e-15 12.8778231 5.88664274 6.99118035 13.1481846 6.99118035 Z" stroke-linecap="round" />
</g>
<g transform="matrix(13.51 0 0 13.51 761.66 584.33)"  >
<path style="stroke: none; stroke-width: 1; stroke-dasharray: none; stroke-linecap: butt; stroke-dashoffset: 0; stroke-linejoin: miter; stroke-miterlimit: 4; fill: rgb(142,224,0); fill-rule: evenodd; opacity: 1;" vector-effect="non-scaling-stroke"  transform=" translate(-46.7, -23.53)" d="M 46.4725842 6.99118035 L 46.9338997 6.99118035 C 54.1946013 6.99118035 60.0805629 12.8771419 60.0805629 20.1378435 L 60.0805629 26.919084 C 60.0805629 34.1797855 54.1946013 40.0657471 46.9338997 40.0657471 L 46.5262485 40.0657471 C 39.3061421 40.0657471 33.4371324 34.2429988 33.3799969 27.0231185 L 33.3263327 20.2418781 C 33.268876 12.9814039 39.1080754 7.04904872 46.3685496 6.99159199 C 46.4032271 6.99131757 46.4379056 6.99118035 46.4725842 6.99118035 Z" stroke-linecap="round" />
</g>
<g transform="matrix(13.51 0 0 13.51 319.26 584.26)"  >
<path style="stroke: none; stroke-width: 1; stroke-dasharray: none; stroke-linecap: butt; stroke-dashoffset: 0; stroke-linejoin: miter; stroke-miterlimit: 4; fill: rgb(255,255,255); fill-rule: evenodd; opacity: 1;" vector-effect="non-scaling-stroke"  transform=" translate(-13.96, -23.53)" d="M 13.9640371 11.6660308 C 19.0190432 11.6660308 23.1169353 15.7639229 23.1169353 20.818929 L 23.1169353 26.2379984 C 23.1169353 31.2930046 19.0190432 35.3908967 13.9640371 35.3908967 C 8.90903096 35.3908967 4.81113883 31.2930046 4.81113883 26.2379984 L 4.81113883 20.818929 C 4.81113883 15.7639229 8.90903096 11.6660308 13.9640371 11.6660308 Z" stroke-linecap="round" />
</g>
<g transform="matrix(13.51 0 0 13.51 753.76 584.26)"  >
<path style="stroke: none; stroke-width: 1; stroke-dasharray: none; stroke-linecap: butt; stroke-dashoffset: 0; stroke-linejoin: miter; stroke-miterlimit: 4; fill: rgb(255,255,255); fill-rule: evenodd; opacity: 1;" vector-effect="non-scaling-stroke"  transform=" translate(-46.12, -23.53)" d="M 46.1165258 11.6660308 C 51.171532 11.6660308 55.2694241 15.7639229 55.2694241 20.818929 L 55.2694241 26.2379984 C 55.2694241 31.2930046 51.171532 35.3908967 46.1165258 35.3908967 C 41.0615197 35.3908967 36.9636276 31.2930046 36.9636276 26.2379984 L 36.9636276 20.818929 C 36.9636276 15.7639229 41.0615197 11.6660308 46.1165258 11.6660308 Z" stroke-linecap="round" />
</g>
<g transform="matrix(13.51 0 0 13.51 338.17 585.06)"  >
<path style="stroke: none; stroke-width: 1; stroke-dasharray: none; stroke-linecap: butt; stroke-dashoffset: 0; stroke-linejoin: miter; stroke-miterlimit: 4; fill: rgb(75,75,75); fill-rule: evenodd; opacity: 1;" vector-effect="non-scaling-stroke"  transform=" translate(-15.37, -23.59)" d="M 15.3721753 16.9252375 C 17.7700628 16.9252375 19.7139347 18.8691094 19.7139347 21.2669969 L 19.7139347 25.9068018 C 19.7139347 28.3046893 17.7700628 30.2485612 15.3721753 30.2485612 C 12.9742878 30.2485612 11.0304158 28.3046893 11.0304158 25.9068018 L 11.0304158 21.2669969 C 11.0304158 18.8691094 12.9742878 16.9252375 15.3721753 16.9252375 Z" stroke-linecap="round" />
</g>
<g transform="matrix(13.51 0 0 13.51 537.29 716.25)"  >
<path style="stroke: none; stroke-width: 1; stroke-dasharray: none; stroke-linecap: butt; stroke-dashoffset: 0; stroke-linejoin: miter; stroke-miterlimit: 4; fill: rgb(244,128,0); fill-rule: evenodd; opacity: 1;" vector-effect="non-scaling-stroke"  transform=" translate(-6.86, -5.85)" d="M 6.86467369 0.0100534418 C 9.61246372 0.0100534418 11.8399877 2.23757738 11.8399877 4.9853674 L 11.8399877 6.7118121 C 11.8399877 9.45960213 9.61246372 11.6871261 6.86467369 11.6871261 C 4.11688367 11.6871261 1.88935973 9.45960213 1.88935973 6.7118121 L 1.88935973 4.9853674 C 1.88935973 2.23757738 4.11688367 0.0100534418 6.86467369 0.0100534418 Z" stroke-linecap="round" />
</g>
<g transform="matrix(13.51 0 0 13.51 537.28 685.24)"  >
<path style="stroke: none; stroke-width: 1; stroke-dasharray: none; stroke-linecap: butt; stroke-dashoffset: 0; stroke-linejoin: miter; stroke-miterlimit: 4; fill: rgb(255,194,0); fill-rule: nonzero; opacity: 1;" vector-effect="non-scaling-stroke"  transform=" translate(-6.86, -3.55)" d="M 0 5.4577622 C 0.593373698 2.29069971 3.53371693 0 7.05360967 0 C 10.2550776 0 13.1462624 2.34489945 13.7293474 5.4577622 L 13.7293474 5.4577622 L 13.7293474 5.71161161 C 13.7293474 5.90730606 13.6588622 5.99079586 13.4774328 5.96546101 L 7.05360967 7.10778333 C 6.87551352 7.10865901 6.85383387 7.10865901 6.67573772 7.10778333 L 0.251914631 5.96546101 C 0.0704851414 5.99079586 0 5.90730606 0 5.71161161 L 0 5.4577622 L 0 5.4577622 Z" stroke-linecap="round" />
</g>
<g transform="matrix(13.51 0 0 13.51 537.25 670.07)"  >
<path style="stroke: none; stroke-width: 1; stroke-dasharray: none; stroke-linecap: butt; stroke-dashoffset: 0; stroke-linejoin: miter; stroke-miterlimit: 4; fill: rgb(255,231,71); fill-rule: evenodd; opacity: 1;" vector-effect="non-scaling-stroke"  transform=" translate(-6.86, -2.43)" d="M 5.81174593 1.09864316 C 6.14836128 1.01673614 6.48922873 0.975782629 6.83434827 0.975782629 C 7.20524747 0.975782629 7.57532293 1.02308292 7.94457465 1.1176835 C 8.69245203 1.30927508 9.21549666 1.98321383 9.21549666 2.75524226 C 9.21549666 3.37566371 8.7125457 3.87861466 8.09212426 3.87861466 L 5.63326629 3.87861466 C 5.01284485 3.87861466 4.50989389 3.37566371 4.50989389 2.75524226 C 4.50989389 1.96889696 5.04769188 1.28454731 5.81174593 1.09864316 Z" stroke-linecap="round" />
</g>
<g transform="matrix(13.51 0 0 13.51 734.69 585.06)"  >
<path style="stroke: none; stroke-width: 1; stroke-dasharray: none; stroke-linecap: butt; stroke-dashoffset: 0; stroke-linejoin: miter; stroke-miterlimit: 4; fill: rgb(75,75,75); fill-rule: evenodd; opacity: 1;" vector-effect="non-scaling-stroke"  transform=" translate(-44.71, -23.59)" d="M 44.7083876 16.9252375 C 47.1062752 16.9252375 49.0501471 18.8691094 49.0501471 21.2669969 L 49.0501471 25.9068018 C 49.0501471 28.3046893 47.1062752 30.2485612 44.7083876 30.2485612 C 42.3105001 30.2485612 40.3666282 28.3046893 40.3666282 25.9068018 L 40.3666282 21.2669969 C 40.3666282 18.8691094 42.3105001 16.9252375 44.7083876 16.9252375 Z" stroke-linecap="round" />
</g>
<g transform="matrix(13.51 0 0 13.51 288.62 528.59)" id="Oval-10-Copy-4"  >
<ellipse style="stroke: none; stroke-width: 1; stroke-dasharray: none; stroke-linecap: butt; stroke-dashoffset: 0; stroke-linejoin: miter; stroke-miterlimit: 4; fill: rgb(255,255,255); fill-rule: evenodd; opacity: 1;" vector-effect="non-scaling-stroke"  cx="0" cy="0" rx="2.8053544" ry="2.79271786" />
</g>
<g transform="matrix(13.51 0 0 13.51 679.33 528.59)" id="Oval-10-Copy-5"  >
<ellipse style="stroke: none; stroke-width: 1; stroke-dasharray: none; stroke-linecap: butt; stroke-dashoffset: 0; stroke-linejoin: miter; stroke-miterlimit: 4; fill: rgb(255,255,255); fill-rule: evenodd; opacity: 1;" vector-effect="non-scaling-stroke"  cx="0" cy="0" rx="2.8053544" ry="2.79271786" />
</g>
</svg>