<?xml version="1.0" encoding="utf-8"?>
<svg id="master-artboard" viewBox="0 0 1400 980" version="1.1" xmlns="http://www.w3.org/2000/svg" x="0px" y="0px" style="enable-background:new 0 0 1400 980;" width="1400px" height="980px" xmlns:xlink="http://www.w3.org/1999/xlink"><rect id="ee-background" x="0" y="0" width="1400" height="980" style="fill: white; fill-opacity: 0; pointer-events: none;"/><defs><radialGradient id="Gradient_1" gradientUnits="userSpaceOnUse" cx="0" cy="0" r="13.5875" fx="0" fy="0" gradientTransform="matrix( 1, 0, 0, 1, 0,0) " spreadMethod="pad">
<stop offset="0%" stop-color="#000000" stop-opacity="0.30196078431372547"/>

<stop offset="100%" stop-color="#000000" stop-opacity="0"/>
</radialGradient><filter id="Filter_1" x="-20%" y="-20%" width="140%" height="140%" color-interpolation-filters="sRGB">
<feFlood flood-color="#000000" flood-opacity="1" in="SourceGraphic" result="result1"/>

<feComposite in2="SourceGraphic" in="result1" operator="in" result="result2"/>

<feColorMatrix in="SourceGraphic" type="matrix" values="0 0 0 0 255 0 0 0 0 255 0 0 0 0 255 0 0 0 255 0" result="result3"/>

<feOffset dx="-1.4695761589768238e-15" dy="-8" in="SourceGraphic" result="result4"/>

<feGaussianBlur in="result4" stdDeviation="3.3333333333333335,3.3333333333333335" result="result5"/>

<feComposite in2="result5" in="result2" operator="out" result="result6"/>

<feOffset dx="-1.4695761589768238e-15" dy="-8" in="result3" result="result7"/>

<feComposite in2="result3" in="result7" operator="in" result="result8"/>

<feComposite in2="result8" in="SourceGraphic" operator="in" result="result9"/>

<feBlend mode="normal" in2="result9" in="result6" result="result10"/>

<feComposite in2="result3" in="result10" operator="in" result="result11"/>

<feFlood flood-color="#FFFFFF" flood-opacity="1" in="result11" result="result12"/>

<feFlood flood-color="#000000" flood-opacity="1" in="result11" result="result13"/>

<feComposite in2="result11" in="result13" operator="in" result="result14"/>

<feColorMatrix in="result14" type="matrix" values="0 0 0 0 255 0 0 0 0 255 0 0 0 0 255 0 0 0 255 0" result="result15"/>

<feComposite in2="result11" in="result12" operator="in" result="result16"/>

<feGaussianBlur in="result14" stdDeviation="1.3333333333333333,1.3333333333333333" result="result17"/>

<feComposite in2="result17" in="result16" operator="out" result="result18"/>

<feBlend mode="normal" in2="result11" in="result18" result="result19"/>

<feComposite in2="result15" in="result19" operator="in" result="result20"/>
</filter><g id="arm_0_Layer0_0_FILL">
<path fill="#BF7958" stroke="none" d="&#10;M 13.15 10.6&#10;Q 11.9 7.15 9.95 3.9 4.35 5.25 -0.3 10.1 0.55 11.45 1.2 12.85 2.75 16.05 3.15 19.75 3.4 22.15 5.3 23.7 7.25 25.2 9.7 25 12.1 24.7 13.65 22.75 15.2 20.9 14.95 18.4 14.6 15.5 13.85 12.85 13.55 11.7 13.15 10.6 Z"/>

<path fill="#E7F3FC" stroke="none" d="&#10;M -0.2 -5&#10;Q -2.65 -4.95 -4.4 -3.2 -6.1 -1.4 -6 1 -6 3.45 -4.3 5.15 -1.9 7.45 -0.3 10.1 4.35 5.25 9.95 3.9 7.5 0.05 4 -3.35 2.25 -4.95 -0.2 -5 Z"/>
</g><g id="arm_0_Layer0_1_FILL">
<path fill="#BFD4E5" stroke="none" d="&#10;M 12.4 4.8&#10;L 10.35 1.2 -2.55 8.7 -0.55 12.25 12.4 4.8 Z"/>
</g><g id="leg_0_Layer0_0_FILL">
<path fill="#4C4EAA" stroke="none" d="&#10;M 5.3 14&#10;L 5.45 9 -6.45 9 -6.6 14 5.25 14 5.3 14 Z"/>

<path fill="#FFFFFF" stroke="none" d="&#10;M 11 20&#10;L 5.25 14 -6.6 14 -6.85 20 11 20 Z"/>

<path fill="#EEA160" stroke="none" d="&#10;M 10.9 23&#10;L 11 20 -6.85 20 -7 23 10.9 23 Z"/>

<path fill="#676AC6" stroke="none" d="&#10;M 5.9 -0.2&#10;Q 5.9 -2.6 4 -4.3 2.15 -6 -0.55 -6 -3.2 -6 -5.1 -4.3 -7 -2.6 -7 -0.2&#10;L -6.45 9 5.45 9 5.9 -0.2 Z"/>
</g><g id="legBend_0_Layer0_0_FILL">
<path fill="#4C4EAA" stroke="none" d="&#10;M 11.5 13.25&#10;Q 11.65 9.7 11.05 6.7&#10;L -1.15 8.05&#10;Q -0.3490234375 9.6375 -0.3 11.6&#10;L 11.5 13.25 Z"/>

<path fill="#EEA160" stroke="none" d="&#10;M 15.45 23&#10;L 16 20.05 -1.4 17.1 -2.05 20.35 15.45 23 Z"/>

<path fill="#FFFFFF" stroke="none" d="&#10;M 16 20.05&#10;L 11.5 13.25 -0.3 11.6 -1.4 17.1 16 20.05 Z"/>

<path fill="#676AC6" stroke="none" d="&#10;M -2.55 -5.8&#10;Q -4.9 -5.2 -6.15 -3.1 -7.4 -0.95 -6.8 1.45 -6.2 3.8 -4.05 5.1 -2.1 6.25 -1.15 8&#10;L -1.15 8.05 11.05 6.7&#10;Q 9.3 -0.85 2 -5.15 -0.15 -6.45 -2.55 -5.8 Z"/>
</g><g id="bodyBack_0_Layer0_0_MEMBER_0_FILL">
<path fill="#A8603F" stroke="none" d="&#10;M 7.6 -28.45&#10;Q 4.45 -31 0.05 -31 -4.35 -31 -7.5 -28.45 -10.6 -25.75 -10.6 -22 -10.6 -21.75 -10.55 -21.5 -10.4 -18.1 -7.5 -15.7 -4.35 -13 0.05 -13 4.45 -13 7.6 -15.7 10.5 -18.1 10.65 -21.5 10.7 -21.75 10.7 -22 10.7 -25.75 7.6 -28.45 Z"/>
</g><g id="bodyBack_0_Layer0_0_MEMBER_1_FILL">
<path fill="#BFD4E5" stroke="none" d="&#10;M 14.6 2.8&#10;L 14.6 -2.15 -15.45 -2.15 -15.45 2.8 14.6 2.8 Z"/>

<path fill="#676AC6" stroke="none" d="&#10;M 13.1 8&#10;Q 14.5 6.1 14.6 2.8&#10;L -15.45 2.8&#10;Q -15.35 6.1 -13.95 8&#10;L 13.1 8 Z"/>

<path fill="#E7F3FC" stroke="none" d="&#10;M 17.8 -15.8&#10;Q 18.85 -21.2 15.2 -21&#10;L -16.1 -21&#10;Q -19.75 -21.2 -18.7 -15.8&#10;L -15.45 -2.15 14.6 -2.15 17.8 -15.8 Z"/>
</g><g id="bodyBack_0_Layer0_0_MEMBER_2_FILL">
<path fill="#D78B49" stroke="none" d="&#10;M 16 4.5&#10;Q 16.45 1.75 16.85 -0.7 0.097265625 -3.177734375 -17.25 -0.7 -16.85 1.75 -16.4 4.5 0.498828125 2.503125 16 4.5 Z"/>

<path fill="#EEA160" stroke="none" d="&#10;M 16.85 -0.7&#10;Q 19.8 -19.55 17.75 -23.25&#10;L 13.2 -22.4&#10;Q 9.25 -13.75 -0.25 -13.75 -9.65 -13.75 -13.6 -22.4&#10;L -18.15 -23.25&#10;Q -20.2 -19.55 -17.25 -0.7 0.097265625 -3.177734375 16.85 -0.7 Z"/>
</g><g id="hand_0_Layer0_0_FILL">
<path fill="#A8603F" stroke="none" d="&#10;M -9.2 7.6&#10;L -9.25 6.65&#10;Q -8.75 0.45 -5.45 -2.95 -14.15 3.5 -9.25 7.65&#10;L -9.2 7.6 Z"/>

<path fill="#BF7958" stroke="none" d="&#10;M 7 -1.65&#10;Q 6.95 -3 5.5 -3&#10;L -5.45 -2.95&#10;Q -8.75 0.45 -9.25 6.65&#10;L -9.2 7.6 -9.25 7.65&#10;Q -9.3 9.3 -9.25 11.15&#10;L -9.25 11.55&#10;Q -9.25 12.95 -7.1 13.35 -3.95 14.05 -0.95 14 7.55 13.95 7 -0.75&#10;L 7 -1.65 Z"/>
</g><g id="body_0_Layer0_0_FILL">
<path fill="#BFD4E5" stroke="none" d="&#10;M 14.6 2.8&#10;L 14.6 -2.15 -15.45 -2.15 -15.45 2.8 14.6 2.8 Z"/>

<path fill="#676AC6" stroke="none" d="&#10;M 13.1 8&#10;Q 14.5 6.1 14.6 2.8&#10;L -15.45 2.8&#10;Q -15.35 6.1 -13.95 8&#10;L 13.1 8 Z"/>

<path fill="#E7F3FC" stroke="none" d="&#10;M 17.8 -15.8&#10;Q 18.85 -21.2 15.2 -21&#10;L -16.1 -21&#10;Q -19.75 -21.2 -18.7 -15.8&#10;L -15.45 -2.15 14.6 -2.15 17.8 -15.8 Z"/>
</g><g id="body_0_Layer0_0_MEMBER_0_FILL">
<path fill="#A8603F" stroke="none" d="&#10;M 7.6 -28.45&#10;Q 4.45 -31 0.05 -31 -4.35 -31 -7.5 -28.45 -10.6 -25.75 -10.6 -22 -10.6 -21.75 -10.55 -21.5 -10.4 -18.1 -7.5 -15.7 -4.35 -13 0.05 -13 4.45 -13 7.6 -15.7 10.5 -18.1 10.65 -21.5 10.7 -21.75 10.7 -22 10.7 -25.75 7.6 -28.45 Z"/>
</g><g id="body_0_Layer0_0_MEMBER_1_FILL">
<path fill="#D78B49" stroke="none" d="&#10;M -3.15 -1.95&#10;L -17.25 -0.7&#10;Q -16.85 1.75 -16.4 4.5&#10;L -3.95 3&#10;Q -3.45 0.7 -3.15 -1.95 Z"/>

<path fill="#EEA160" stroke="none" d="&#10;M -3.15 -1.95&#10;Q -2.8 -5.45 -2.9 -9.5 -9.65 -13.75 -13.6 -22.4&#10;L -18.15 -23.25&#10;Q -20.2 -19.55 -17.25 -0.7&#10;L -3.15 -1.95 Z"/>
</g><g id="body_0_Layer0_0_MEMBER_2_FILL">
<path fill="#D78B49" stroke="none" d="&#10;M 16.85 -0.7&#10;L 2.75 -1.95&#10;Q 3.05 0.7 3.55 3&#10;L 16 4.5&#10;Q 16.45 1.75 16.85 -0.7 Z"/>

<path fill="#EEA160" stroke="none" d="&#10;M 2.5 -9.5&#10;Q 2.4 -5.45 2.75 -1.95&#10;L 16.85 -0.7&#10;Q 19.8 -19.55 17.75 -23.25&#10;L 13.2 -22.4&#10;Q 9.25 -13.75 2.5 -9.5 Z"/>
</g><g id="body_0_Layer0_0_MEMBER_3_FILL">
<path fill="#BFD4E5" stroke="none" d="&#10;M -13.05 -22&#10;L -15.1 -18.4 -2 -10.8 0.05 -14.45 -13.05 -22&#10;M 13.15 -22&#10;L 0.05 -14.45 2.1 -10.8 15.2 -18.4 13.15 -22 Z"/>

<path fill="#E7F3FC" stroke="none" d="&#10;M 2.1 -10.8&#10;L 0.05 -14.45 -2 -10.8 2.1 -10.8 Z"/>
</g><g id="shadow_0_Layer0_0_FILL">
<path fill="url(#Gradient_1)" stroke="none" d="&#10;M 9.45 -9.55&#10;Q 5.55 -13.45 0 -13.45 -5.55 -13.45 -9.55 -9.55 -13.45 -5.55 -13.45 0 -13.45 5.55 -9.55 9.45 -5.55 13.45 0 13.45 5.55 13.45 9.45 9.45 13.45 5.55 13.45 0 13.45 -5.55 9.45 -9.55 Z"/>
</g><g id="headFocus_0_Layer0_0_FILL">
<path fill="#454A51" stroke="none" d="&#10;M 12.65 -35.05&#10;L 9.75 -39.6&#10;Q -4.85 -40.75 -17.6 -38.7 -24.75 -37.7 -24.1 -31.9&#10;L -23.9 -30.2&#10;Q -22.95 -33.75 -17.55 -34.5 -4.8 -36.5 9.8 -35.35&#10;L 12.65 -35.05&#10;M 23.15 -30.65&#10;L 23.3 -31.9&#10;Q 24 -37.55 17.85 -38.7&#10;L 13.3 -34.95 17.9 -34.5&#10;Q 22.2 -33.7 23.15 -30.65 Z"/>

<path fill="#3C3E41" stroke="none" d="&#10;M 17.9 -34.5&#10;L 13.3 -34.95 12.9 -34.65 12.65 -35.05 9.8 -35.35&#10;Q -4.8 -36.5 -17.55 -34.5 -22.95 -33.75 -23.9 -30.2&#10;L -21.65 -10.8&#10;Q -21.1 -6.45 -15.95 -6.45&#10;L 15.15 -6.45&#10;Q 20.35 -6.45 20.85 -10.8&#10;L 23.15 -30.65&#10;Q 22.2 -33.7 17.9 -34.5 Z"/>
</g><g id="headFocus_0_Layer0_1_FILL">
<path fill="#BF7958" stroke="none" d="&#10;M -24.65 -11.25&#10;Q -27 -8.9 -27 -5.55 -27 -2.2 -24.65 0.15 -22.25 2.6 -19 2.6 -15.7 2.6 -13.3 0.15 -11 -2.2 -11 -5.55 -11 -8.9 -13.3 -11.25 -15.7 -13.7 -19 -13.7 -22.25 -13.7 -24.65 -11.25&#10;M -22.35 -2.1&#10;Q -23.75 -3.5 -23.75 -5.55 -23.75 -7.5 -22.35 -9 -20.95 -10.4 -19 -10.4 -16.95 -10.4 -15.55 -9 -14.15 -7.5 -14.15 -5.55 -14.15 -3.5 -15.55 -2.1 -16.95 -0.65 -19 -0.65 -20.95 -0.65 -22.35 -2.1&#10;M 12.35 -11.25&#10;Q 10 -8.9 10 -5.55 10 -2.2 12.35 0.15 14.75 2.6 18 2.6 21.3 2.6 23.7 0.15 26 -2.2 26 -5.55 26 -8.9 23.7 -11.25 21.3 -13.7 18 -13.7 14.75 -13.7 12.35 -11.25&#10;M 14.65 -9&#10;Q 16.05 -10.4 18 -10.4 20 -10.4 21.45 -9 22.85 -7.5 22.85 -5.55 22.85 -3.5 21.45 -2.1 20 -0.65 18 -0.65 16.05 -0.65 14.65 -2.1 13.2 -3.5 13.2 -5.55 13.2 -7.5 14.65 -9 Z"/>

<path fill="#A8603F" stroke="none" d="&#10;M -23.75 -5.55&#10;Q -23.75 -3.5 -22.35 -2.1 -20.95 -0.65 -19 -0.65 -16.95 -0.65 -15.55 -2.1 -14.15 -3.5 -14.15 -5.55 -14.15 -7.5 -15.55 -9 -16.95 -10.4 -19 -10.4 -20.95 -10.4 -22.35 -9 -23.75 -7.5 -23.75 -5.55&#10;M 18 -10.4&#10;Q 16.05 -10.4 14.65 -9 13.2 -7.5 13.2 -5.55 13.2 -3.5 14.65 -2.1 16.05 -0.65 18 -0.65 20 -0.65 21.45 -2.1 22.85 -3.5 22.85 -5.55 22.85 -7.5 21.45 -9 20 -10.4 18 -10.4 Z"/>
</g><g id="headFocus_0_Layer0_2_FILL">
<path fill="#BF7958" stroke="none" d="&#10;M 11.7 8&#10;Q 17.1 7.3 17.8 2.2&#10;L 20.45 -23.8 -21.4 -23.8 -18.2 8 11.7 8 Z"/>
</g><g id="headFocus_0_Layer0_3_FILL">
<path fill="#FFFFFF" stroke="none" d="&#10;M -12.95 -6.15&#10;Q -12.95 -4.4 -11.85 -3.15 -10.65 -1.8 -8.85 -1.8 -7.15 -1.8 -6 -3.15 -4.85 -4.4 -4.85 -6.15 -4.85 -7.9 -6 -9.15 -7.15 -10.45 -8.85 -10.45 -10.65 -10.45 -11.85 -9.15 -12.95 -7.9 -12.95 -6.15&#10;M -10.45 -6&#10;L -10.45 -6.25&#10;Q -10.4 -7.3 -9.75 -8.05 -9.05 -8.85 -8.05 -8.85 -7 -8.85 -6.3 -8.05 -5.65 -7.3 -5.6 -6.25&#10;L -5.6 -6&#10;Q -5.65 -5 -6.3 -4.25 -7 -3.45 -8.05 -3.45 -9.05 -3.45 -9.75 -4.25 -10.4 -5 -10.45 -6&#10;M 8.1 -10.45&#10;Q 6.35 -10.45 5.1 -9.15 4 -7.9 4 -6.15 4 -4.4 5.1 -3.15 6.35 -1.8 8.1 -1.8 9.85 -1.8 10.9 -3.15 12.15 -4.4 12.15 -6.15 12.15 -7.9 10.9 -9.15 9.85 -10.45 8.1 -10.45&#10;M 8.65 -8.05&#10;Q 9.35 -7.3 9.4 -6.25&#10;L 9.4 -6&#10;Q 9.35 -5 8.65 -4.25 8 -3.45 7 -3.45 6 -3.45 5.2 -4.25 4.6 -5 4.55 -6&#10;L 4.55 -6.35&#10;Q 4.6 -7.3 5.2 -8.05 6 -8.85 7 -8.85 8 -8.85 8.65 -8.05 Z"/>

<path fill="#3C3E41" stroke="none" d="&#10;M -10.45 -6.25&#10;L -10.45 -6&#10;Q -10.4 -5 -9.75 -4.25 -9.05 -3.45 -8.05 -3.45 -7 -3.45 -6.3 -4.25 -5.65 -5 -5.6 -6&#10;L -5.6 -6.25&#10;Q -5.65 -7.3 -6.3 -8.05 -7 -8.85 -8.05 -8.85 -9.05 -8.85 -9.75 -8.05 -10.4 -7.3 -10.45 -6.25&#10;M 9.4 -6.25&#10;Q 9.35 -7.3 8.65 -8.05 8 -8.85 7 -8.85 6 -8.85 5.2 -8.05 4.6 -7.3 4.55 -6.35&#10;L 4.55 -6&#10;Q 4.6 -5 5.2 -4.25 6 -3.45 7 -3.45 8 -3.45 8.65 -4.25 9.35 -5 9.4 -6&#10;L 9.4 -6.25 Z"/>
</g><g id="headFocus_0_Layer0_3_MEMBER_0_FILL">
<path fill="#3C3E41" stroke="none" d="&#10;M -14.05 -12.7&#10;L -14.5 -9.8 -3.95 -8.2 -3.5 -11.05 -14.05 -12.7&#10;M 2.85 -9.9&#10;L 3.35 -7.05 13.95 -9 13.45 -11.8 2.85 -9.9 Z"/>
</g><g id="headFocus_0_Layer0_3_MEMBER_1_FILL">
<path fill="#3C3E41" stroke="none" d="&#10;M -0.7 -2.3&#10;Q -4.25 -2.3 -6.7 -0.85 -9 0.45 -9.3 2.25 -9.4 2.5 -9.3 2.8 -9.2 3.05 -9 3.25 -8.8 3.45 -8.5 3.5 -4.2 4.15 -0.4 2.5 3.35 4.15 7.7 3.5 8 3.45 8.2 3.25 8.4 3.05 8.5 2.8 8.6 2.5 8.55 2.25 8.2 0.45 5.9 -0.85 3.4 -2.3 -0.1 -2.3 -0.25 -2.3 -0.4 -2.3 -0.55 -2.3 -0.7 -2.3 Z"/>
</g><g id="headFocus_0_Layer0_3_MEMBER_2_FILL">
<path fill="#955435" stroke="none" d="&#10;M 2.1 -1.4&#10;Q 3.1 -2.1 3.1 -3.05 3.1 -3.95 2.1 -4.7 1.1 -5.35 -0.35 -5.35 -1.75 -5.35 -2.75 -4.7 -3.75 -3.95 -3.75 -3.05 -3.75 -2.1 -2.75 -1.4 -1.75 -0.65 -0.35 -0.65 1.1 -0.65 2.1 -1.4 Z"/>
</g><g id="headFocus_0_Layer0_4_FILL">
<path fill="#3C3E41" stroke="none" d="&#10;M -20.6 -23.3&#10;L -20.65 -23.3&#10;Q -21.65 -23.15 -22.3 -22.3 -22.95 -21.55 -22.8 -20.55&#10;L -20.9 -4.55&#10;Q -20.8 -3.6 -20 -2.9 -19.2 -2.3 -18.2 -2.45&#10;L -18.15 -2.45&#10;Q -17.15 -2.55 -16.55 -3.35 -15.95 -4.15 -16.05 -5.2&#10;L -17.95 -21.1&#10;Q -18.1 -22.15 -18.9 -22.75 -19.65 -23.35 -20.6 -23.3&#10;M 17.9 -22.75&#10;Q 17.15 -22.15 17 -21.1&#10;L 15.1 -5.2&#10;Q 15 -4.15 15.6 -3.35 16.2 -2.55 17.2 -2.45&#10;L 17.25 -2.45&#10;Q 18.2 -2.3 19 -2.9 19.85 -3.6 19.95 -4.55&#10;L 21.85 -20.55&#10;Q 22 -21.55 21.35 -22.3 20.7 -23.15 19.7 -23.3&#10;L 19.65 -23.3&#10;Q 18.65 -23.35 17.9 -22.75 Z"/>
</g><g id="headFocus_0_Layer0_5_FILL">
<path fill="#3C3E41" stroke="none" d="&#10;M 14.65 -19.9&#10;Q 21.05 -21.95 21.05 -24.65 21.05 -27.3 14.65 -29 8.35 -30.7 -0.7 -30.45 -9.65 -30.15 -16.05 -28.1 -22.4 -26 -22.4 -23.35 -22.4 -20.65 -16.05 -19 -9.65 -17.25 -0.7 -17.55 8.35 -17.8 14.65 -19.9 Z"/>
</g><g id="headShock_0_Layer0_0_FILL">
<path fill="#454A51" stroke="none" d="&#10;M 12.65 -35.05&#10;L 9.75 -39.6&#10;Q -4.85 -40.75 -17.6 -38.7 -24.75 -37.7 -24.1 -31.9&#10;L -23.9 -30.2&#10;Q -22.95 -33.75 -17.55 -34.5 -4.8 -36.5 9.8 -35.35&#10;L 12.65 -35.05&#10;M 23.15 -30.65&#10;L 23.3 -31.9&#10;Q 24 -37.55 17.85 -38.7&#10;L 13.3 -34.95 17.9 -34.5&#10;Q 22.2 -33.7 23.15 -30.65 Z"/>

<path fill="#3C3E41" stroke="none" d="&#10;M 17.9 -34.5&#10;L 13.3 -34.95 12.9 -34.65 12.65 -35.05 9.8 -35.35&#10;Q -4.8 -36.5 -17.55 -34.5 -22.95 -33.75 -23.9 -30.2&#10;L -21.65 -10.8&#10;Q -21.1 -6.45 -15.95 -6.45&#10;L 15.15 -6.45&#10;Q 20.35 -6.45 20.85 -10.8&#10;L 23.15 -30.65&#10;Q 22.2 -33.7 17.9 -34.5 Z"/>
</g><g id="headShock_0_Layer0_1_FILL">
<path fill="#BF7958" stroke="none" d="&#10;M -24.65 -11.25&#10;Q -27 -8.9 -27 -5.55 -27 -2.2 -24.65 0.15 -22.25 2.6 -19 2.6 -15.7 2.6 -13.3 0.15 -11 -2.2 -11 -5.55 -11 -8.9 -13.3 -11.25 -15.7 -13.7 -19 -13.7 -22.25 -13.7 -24.65 -11.25&#10;M -22.35 -2.1&#10;Q -23.75 -3.5 -23.75 -5.55 -23.75 -7.5 -22.35 -9 -20.95 -10.4 -19 -10.4 -16.95 -10.4 -15.55 -9 -14.15 -7.5 -14.15 -5.55 -14.15 -3.5 -15.55 -2.1 -16.95 -0.65 -19 -0.65 -20.95 -0.65 -22.35 -2.1&#10;M 18 -13.7&#10;Q 14.75 -13.7 12.35 -11.25 10 -8.9 10 -5.55 10 -2.2 12.35 0.15 14.75 2.6 18 2.6 21.3 2.6 23.7 0.15 26 -2.2 26 -5.55 26 -8.9 23.7 -11.25 21.3 -13.7 18 -13.7&#10;M 18 -0.65&#10;Q 16.05 -0.65 14.65 -2.1 13.2 -3.5 13.2 -5.55 13.2 -7.5 14.65 -9 16.05 -10.4 18 -10.4 20 -10.4 21.45 -9 22.85 -7.5 22.85 -5.55 22.85 -3.5 21.45 -2.1 20 -0.65 18 -0.65 Z"/>

<path fill="#A8603F" stroke="none" d="&#10;M -23.75 -5.55&#10;Q -23.75 -3.5 -22.35 -2.1 -20.95 -0.65 -19 -0.65 -16.95 -0.65 -15.55 -2.1 -14.15 -3.5 -14.15 -5.55 -14.15 -7.5 -15.55 -9 -16.95 -10.4 -19 -10.4 -20.95 -10.4 -22.35 -9 -23.75 -7.5 -23.75 -5.55&#10;M 14.65 -2.1&#10;Q 16.05 -0.65 18 -0.65 20 -0.65 21.45 -2.1 22.85 -3.5 22.85 -5.55 22.85 -7.5 21.45 -9 20 -10.4 18 -10.4 16.05 -10.4 14.65 -9 13.2 -7.5 13.2 -5.55 13.2 -3.5 14.65 -2.1 Z"/>
</g><g id="headShock_0_Layer0_2_FILL">
<path fill="#BF7958" stroke="none" d="&#10;M 11.7 8&#10;Q 17.1 7.3 17.8 2.2&#10;L 20.45 -23.8 -21.4 -23.8 -18.2 8 11.7 8 Z"/>
</g><g id="headShock_0_Layer0_3_FILL">
<path fill="#FFFFFF" stroke="none" d="&#10;M -12.95 -8.15&#10;Q -12.95 -6.4 -11.85 -5.15 -10.65 -3.8 -8.85 -3.8 -7.15 -3.8 -6 -5.15 -4.85 -6.4 -4.85 -8.15 -4.85 -9.9 -6 -11.15 -7.15 -12.45 -8.85 -12.45 -10.65 -12.45 -11.85 -11.15 -12.95 -9.9 -12.95 -8.15&#10;M -10.45 -8&#10;L -10.45 -8.25&#10;Q -10.4 -9.3 -9.75 -10.05 -9.05 -10.85 -8.05 -10.85 -7 -10.85 -6.3 -10.05 -5.65 -9.3 -5.6 -8.25&#10;L -5.6 -8&#10;Q -5.65 -7 -6.3 -6.25 -7 -5.45 -8.05 -5.45 -9.05 -5.45 -9.75 -6.25 -10.4 -7 -10.45 -8&#10;M 5.1 -5.15&#10;Q 6.35 -3.8 8.1 -3.8 9.85 -3.8 10.9 -5.15 12.15 -6.4 12.15 -8.15 12.15 -9.9 10.9 -11.15 9.85 -12.45 8.1 -12.45 6.35 -12.45 5.1 -11.15 4 -9.9 4 -8.15 4 -6.4 5.1 -5.15&#10;M 8.65 -10.05&#10;Q 9.35 -9.3 9.4 -8.25&#10;L 9.4 -8&#10;Q 9.35 -7 8.65 -6.25 8 -5.45 7 -5.45 6 -5.45 5.2 -6.25 4.6 -7 4.55 -8&#10;L 4.55 -8.35&#10;Q 4.6 -9.3 5.2 -10.05 6 -10.85 7 -10.85 8 -10.85 8.65 -10.05 Z"/>

<path fill="#3C3E41" stroke="none" d="&#10;M -10.45 -8.25&#10;L -10.45 -8&#10;Q -10.4 -7 -9.75 -6.25 -9.05 -5.45 -8.05 -5.45 -7 -5.45 -6.3 -6.25 -5.65 -7 -5.6 -8&#10;L -5.6 -8.25&#10;Q -5.65 -9.3 -6.3 -10.05 -7 -10.85 -8.05 -10.85 -9.05 -10.85 -9.75 -10.05 -10.4 -9.3 -10.45 -8.25&#10;M 9.4 -8.25&#10;Q 9.35 -9.3 8.65 -10.05 8 -10.85 7 -10.85 6 -10.85 5.2 -10.05 4.6 -9.3 4.55 -8.35&#10;L 4.55 -8&#10;Q 4.6 -7 5.2 -6.25 6 -5.45 7 -5.45 8 -5.45 8.65 -6.25 9.35 -7 9.4 -8&#10;L 9.4 -8.25 Z"/>
</g><g id="headShock_0_Layer0_3_MEMBER_0_FILL">
<path fill="#3C3E41" stroke="none" d="&#10;M -14.9 -15.4&#10;L -14.6 -12.45 -4 -13.65 -4.3 -16.55 -14.9 -15.4&#10;M 3.15 -18.65&#10;L 2.9 -15.75 13.65 -14.9 13.85 -17.75 3.15 -18.65 Z"/>
</g><g id="headShock_0_Layer0_3_MEMBER_1_FILL">
<path fill="#A8603F" stroke="none" d="&#10;M -0.55 -1.1&#10;Q -1.9 -1.1 -2.85 -0.2 -3.75 0.75 -3.75 2.1 -3.75 3.45 -2.85 4.35 -1.9 5.3 -0.55 5.3 0.8 5.3 1.7 4.35 2.65 3.45 2.65 2.1 2.65 0.75 1.7 -0.2 0.8 -1.1 -0.55 -1.1 Z"/>
</g><g id="headShock_0_Layer0_3_MEMBER_2_FILL">
<path fill="#3C3E41" stroke="none" d="&#10;M -0.7 -4.3&#10;Q -4.25 -4.3 -6.7 -2.85 -9 -1.55 -9.3 0.25 -9.4 0.5 -9.3 0.8 -9.2 1.05 -9 1.25 -8.8 1.45 -8.5 1.5 -4.2 2.15 -0.4 0.5 3.35 2.15 7.7 1.5 8 1.45 8.2 1.25 8.4 1.05 8.5 0.8 8.6 0.5 8.55 0.25 8.2 -1.55 5.9 -2.85 3.4 -4.3 -0.1 -4.3 -0.25 -4.3 -0.4 -4.3 -0.55 -4.3 -0.7 -4.3 Z"/>
</g><g id="headShock_0_Layer0_3_MEMBER_3_FILL">
<path fill="#955435" stroke="none" d="&#10;M 2.1 -3.4&#10;Q 3.1 -4.1 3.1 -5.05 3.1 -5.95 2.1 -6.7 1.1 -7.35 -0.35 -7.35 -1.75 -7.35 -2.75 -6.7 -3.75 -5.95 -3.75 -5.05 -3.75 -4.1 -2.75 -3.4 -1.75 -2.65 -0.35 -2.65 1.1 -2.65 2.1 -3.4 Z"/>
</g><g id="headShock_0_Layer0_4_FILL">
<path fill="#3C3E41" stroke="none" d="&#10;M -20.6 -23.3&#10;L -20.65 -23.3&#10;Q -21.65 -23.15 -22.3 -22.3 -22.95 -21.55 -22.8 -20.55&#10;L -20.9 -4.55&#10;Q -20.8 -3.6 -20 -2.9 -19.2 -2.3 -18.2 -2.45&#10;L -18.15 -2.45&#10;Q -17.15 -2.55 -16.55 -3.35 -15.95 -4.15 -16.05 -5.2&#10;L -17.95 -21.1&#10;Q -18.1 -22.15 -18.9 -22.75 -19.65 -23.35 -20.6 -23.3&#10;M 17.9 -22.75&#10;Q 17.15 -22.15 17 -21.1&#10;L 15.1 -5.2&#10;Q 15 -4.15 15.6 -3.35 16.2 -2.55 17.2 -2.45&#10;L 17.25 -2.45&#10;Q 18.2 -2.3 19 -2.9 19.85 -3.6 19.95 -4.55&#10;L 21.85 -20.55&#10;Q 22 -21.55 21.35 -22.3 20.7 -23.15 19.7 -23.3&#10;L 19.65 -23.3&#10;Q 18.65 -23.35 17.9 -22.75 Z"/>
</g><g id="headShock_0_Layer0_5_FILL">
<path fill="#3C3E41" stroke="none" d="&#10;M 14.65 -19.9&#10;Q 21.05 -21.95 21.05 -24.65 21.05 -27.3 14.65 -29 8.35 -30.7 -0.7 -30.45 -9.65 -30.15 -16.05 -28.1 -22.4 -26 -22.4 -23.35 -22.4 -20.65 -16.05 -19 -9.65 -17.25 -0.7 -17.55 8.35 -17.8 14.65 -19.9 Z"/>
</g><g id="headBack_0_Layer0_0_FILL">
<path fill="#BF7958" stroke="none" d="&#10;M -24.65 -11.25&#10;Q -27 -8.9 -27 -5.55 -27 -2.2 -24.65 0.15 -22.25 2.6 -19 2.6 -15.7 2.6 -13.3 0.15 -11 -2.2 -11 -5.55 -11 -8.9 -13.3 -11.25 -15.7 -13.7 -19 -13.7 -22.25 -13.7 -24.65 -11.25&#10;M -22.35 -2.1&#10;Q -23.75 -3.5 -23.75 -5.55 -23.75 -7.5 -22.35 -9 -20.95 -10.4 -19 -10.4 -16.95 -10.4 -15.55 -9 -14.15 -7.5 -14.15 -5.55 -14.15 -3.5 -15.55 -2.1 -16.95 -0.65 -19 -0.65 -20.95 -0.65 -22.35 -2.1&#10;M 18 -13.7&#10;Q 14.75 -13.7 12.35 -11.25 10 -8.9 10 -5.55 10 -2.2 12.35 0.15 14.75 2.6 18 2.6 21.3 2.6 23.7 0.15 26 -2.2 26 -5.55 26 -8.9 23.7 -11.25 21.3 -13.7 18 -13.7&#10;M 18 -0.65&#10;Q 16.05 -0.65 14.65 -2.1 13.2 -3.5 13.2 -5.55 13.2 -7.5 14.65 -9 16.05 -10.4 18 -10.4 20 -10.4 21.45 -9 22.85 -7.5 22.85 -5.55 22.85 -3.5 21.45 -2.1 20 -0.65 18 -0.65 Z"/>

<path fill="#A8603F" stroke="none" d="&#10;M -23.75 -5.55&#10;Q -23.75 -3.5 -22.35 -2.1 -20.95 -0.65 -19 -0.65 -16.95 -0.65 -15.55 -2.1 -14.15 -3.5 -14.15 -5.55 -14.15 -7.5 -15.55 -9 -16.95 -10.4 -19 -10.4 -20.95 -10.4 -22.35 -9 -23.75 -7.5 -23.75 -5.55&#10;M 14.65 -2.1&#10;Q 16.05 -0.65 18 -0.65 20 -0.65 21.45 -2.1 22.85 -3.5 22.85 -5.55 22.85 -7.5 21.45 -9 20 -10.4 18 -10.4 16.05 -10.4 14.65 -9 13.2 -7.5 13.2 -5.55 13.2 -3.5 14.65 -2.1 Z"/>
</g><g id="headBack_0_Layer0_1_FILL">
<path fill="#BF7958" stroke="none" d="&#10;M 11.7 8&#10;Q 17.1 7.3 17.8 2.2&#10;L 20.45 -23.8 -21.4 -23.8 -18.2 8 11.7 8 Z"/>
</g><g id="headBack_0_Layer0_2_FILL">
<path fill="#454A51" stroke="none" d="&#10;M -14.1 -34.95&#10;L -18.65 -38.7&#10;Q -24.8 -37.55 -24.1 -31.9&#10;L -23.95 -30.65&#10;Q -23 -33.7 -18.7 -34.5&#10;L -14.1 -34.95&#10;M 23.1 -30.2&#10;L 23.3 -31.9&#10;Q 23.95 -37.7 16.8 -38.7 4.05 -40.75 -10.55 -39.6&#10;L -13.45 -35.05 -10.6 -35.35&#10;Q 4 -36.5 16.75 -34.5 22.15 -33.75 23.1 -30.2 Z"/>

<path fill="#3C3E41" stroke="none" d="&#10;M 13.65 -0.6&#10;Q 19.24375 -2.5705078125 20.3 -7.5&#10;L 20.5 -9.45&#10;Q 20.75703125 -10.0650390625 20.85 -10.8&#10;L 23.1 -30.2&#10;Q 22.15 -33.75 16.75 -34.5 4 -36.5 -10.6 -35.35&#10;L -13.45 -35.05 -13.7 -34.65 -14.1 -34.95 -18.7 -34.5&#10;Q -23 -33.7 -23.95 -30.65&#10;L -22.85 -20.9&#10;Q -22.8271484375 -20.7314453125 -22.8 -20.55&#10;L -22.7 -19.7&#10;Q -22.3326171875 -16.584765625 -22 -13.5&#10;L -21.35 -7.5&#10;Q -20.8974609375 -2.5138671875 -14.45 -0.55 -8.5892578125 1.2 -0.6 1.2 7.7443359375 1.2 13.65 -0.6 Z"/>
</g><g id="head_0_Layer0_0_FILL">
<path fill="#454A51" stroke="none" d="&#10;M 12.65 -35.05&#10;L 9.75 -39.6&#10;Q -4.85 -40.75 -17.6 -38.7 -24.75 -37.7 -24.1 -31.9&#10;L -23.9 -30.2&#10;Q -22.95 -33.75 -17.55 -34.5 -4.8 -36.5 9.8 -35.35&#10;L 12.65 -35.05&#10;M 23.15 -30.65&#10;L 23.3 -31.9&#10;Q 24 -37.55 17.85 -38.7&#10;L 13.3 -34.95 17.9 -34.5&#10;Q 22.2 -33.7 23.15 -30.65 Z"/>

<path fill="#3C3E41" stroke="none" d="&#10;M 17.9 -34.5&#10;L 13.3 -34.95 12.9 -34.65 12.65 -35.05 9.8 -35.35&#10;Q -4.8 -36.5 -17.55 -34.5 -22.95 -33.75 -23.9 -30.2&#10;L -21.65 -10.8&#10;Q -21.1 -6.45 -15.95 -6.45&#10;L 15.15 -6.45&#10;Q 20.35 -6.45 20.85 -10.8&#10;L 23.15 -30.65&#10;Q 22.2 -33.7 17.9 -34.5 Z"/>
</g><g id="head_0_Layer0_1_FILL">
<path fill="#BF7958" stroke="none" d="&#10;M -24.65 -11.25&#10;Q -27 -8.9 -27 -5.55 -27 -2.2 -24.65 0.15 -22.25 2.6 -19 2.6 -15.7 2.6 -13.3 0.15 -11 -2.2 -11 -5.55 -11 -8.9 -13.3 -11.25 -15.7 -13.7 -19 -13.7 -22.25 -13.7 -24.65 -11.25&#10;M -22.35 -2.1&#10;Q -23.75 -3.5 -23.75 -5.55 -23.75 -7.5 -22.35 -9 -20.95 -10.4 -19 -10.4 -16.95 -10.4 -15.55 -9 -14.15 -7.5 -14.15 -5.55 -14.15 -3.5 -15.55 -2.1 -16.95 -0.65 -19 -0.65 -20.95 -0.65 -22.35 -2.1&#10;M 12.35 -11.25&#10;Q 10 -8.9 10 -5.55 10 -2.2 12.35 0.15 14.75 2.6 18 2.6 21.3 2.6 23.7 0.15 26 -2.2 26 -5.55 26 -8.9 23.7 -11.25 21.3 -13.7 18 -13.7 14.75 -13.7 12.35 -11.25&#10;M 14.65 -9&#10;Q 16.05 -10.4 18 -10.4 20 -10.4 21.45 -9 22.85 -7.5 22.85 -5.55 22.85 -3.5 21.45 -2.1 20 -0.65 18 -0.65 16.05 -0.65 14.65 -2.1 13.2 -3.5 13.2 -5.55 13.2 -7.5 14.65 -9 Z"/>

<path fill="#A8603F" stroke="none" d="&#10;M -23.75 -5.55&#10;Q -23.75 -3.5 -22.35 -2.1 -20.95 -0.65 -19 -0.65 -16.95 -0.65 -15.55 -2.1 -14.15 -3.5 -14.15 -5.55 -14.15 -7.5 -15.55 -9 -16.95 -10.4 -19 -10.4 -20.95 -10.4 -22.35 -9 -23.75 -7.5 -23.75 -5.55&#10;M 18 -10.4&#10;Q 16.05 -10.4 14.65 -9 13.2 -7.5 13.2 -5.55 13.2 -3.5 14.65 -2.1 16.05 -0.65 18 -0.65 20 -0.65 21.45 -2.1 22.85 -3.5 22.85 -5.55 22.85 -7.5 21.45 -9 20 -10.4 18 -10.4 Z"/>
</g><g id="head_0_Layer0_2_FILL">
<path fill="#BF7958" stroke="none" d="&#10;M 11.7 8&#10;Q 17.1 7.3 17.8 2.2&#10;L 20.45 -23.8 -21.4 -23.8 -18.2 8 11.7 8 Z"/>
</g><g id="head_0_Layer0_3_FILL">
<path fill="#FFFFFF" stroke="none" d="&#10;M -12.95 -8.15&#10;Q -12.95 -6.4 -11.85 -5.15 -10.65 -3.8 -8.85 -3.8 -7.15 -3.8 -6 -5.15 -4.85 -6.4 -4.85 -8.15 -4.85 -9.9 -6 -11.15 -7.15 -12.45 -8.85 -12.45 -10.65 -12.45 -11.85 -11.15 -12.95 -9.9 -12.95 -8.15&#10;M -10.45 -8&#10;L -10.45 -8.25&#10;Q -10.4 -9.3 -9.75 -10.05 -9.05 -10.85 -8.05 -10.85 -7 -10.85 -6.3 -10.05 -5.65 -9.3 -5.6 -8.25&#10;L -5.6 -8&#10;Q -5.65 -7 -6.3 -6.25 -7 -5.45 -8.05 -5.45 -9.05 -5.45 -9.75 -6.25 -10.4 -7 -10.45 -8&#10;M 5.1 -5.15&#10;Q 6.35 -3.8 8.1 -3.8 9.85 -3.8 10.9 -5.15 12.15 -6.4 12.15 -8.15 12.15 -9.9 10.9 -11.15 9.85 -12.45 8.1 -12.45 6.35 -12.45 5.1 -11.15 4 -9.9 4 -8.15 4 -6.4 5.1 -5.15&#10;M 8.65 -10.05&#10;Q 9.35 -9.3 9.4 -8.25&#10;L 9.4 -8&#10;Q 9.35 -7 8.65 -6.25 8 -5.45 7 -5.45 6 -5.45 5.2 -6.25 4.6 -7 4.55 -8&#10;L 4.55 -8.35&#10;Q 4.6 -9.3 5.2 -10.05 6 -10.85 7 -10.85 8 -10.85 8.65 -10.05 Z"/>

<path fill="#3C3E41" stroke="none" d="&#10;M -10.45 -8.25&#10;L -10.45 -8&#10;Q -10.4 -7 -9.75 -6.25 -9.05 -5.45 -8.05 -5.45 -7 -5.45 -6.3 -6.25 -5.65 -7 -5.6 -8&#10;L -5.6 -8.25&#10;Q -5.65 -9.3 -6.3 -10.05 -7 -10.85 -8.05 -10.85 -9.05 -10.85 -9.75 -10.05 -10.4 -9.3 -10.45 -8.25&#10;M 9.4 -8.25&#10;Q 9.35 -9.3 8.65 -10.05 8 -10.85 7 -10.85 6 -10.85 5.2 -10.05 4.6 -9.3 4.55 -8.35&#10;L 4.55 -8&#10;Q 4.6 -7 5.2 -6.25 6 -5.45 7 -5.45 8 -5.45 8.65 -6.25 9.35 -7 9.4 -8&#10;L 9.4 -8.25 Z"/>
</g><g id="head_0_Layer0_3_MEMBER_0_FILL">
<path fill="#3C3E41" stroke="none" d="&#10;M -3.4 -11.3&#10;L -3.2 -14.15 -14 -14.65 -14.15 -11.8 -3.4 -11.3&#10;M 2.9 -14.15&#10;L 3.1 -11.3 13.85 -11.8 13.7 -14.65 2.9 -14.15 Z"/>
</g><g id="head_0_Layer0_3_MEMBER_1_FILL">
<path fill="#3C3E41" stroke="none" d="&#10;M -0.7 -3.3&#10;Q -4.25 -3.3 -6.7 -1.85 -9 -0.55 -9.3 1.25 -9.4 1.5 -9.3 1.8 -9.2 2.05 -9 2.25 -8.8 2.45 -8.5 2.5 -4.2 3.15 -0.4 1.5 3.35 3.15 7.7 2.5 8 2.45 8.2 2.25 8.4 2.05 8.5 1.8 8.6 1.5 8.55 1.25 8.2 -0.55 5.9 -1.85 3.4 -3.3 -0.1 -3.3 -0.25 -3.3 -0.4 -3.3 -0.55 -3.3 -0.7 -3.3 Z"/>
</g><g id="head_0_Layer0_3_MEMBER_2_FILL">
<path fill="#955435" stroke="none" d="&#10;M 2.1 -3.4&#10;Q 3.1 -4.1 3.1 -5.05 3.1 -5.95 2.1 -6.7 1.1 -7.35 -0.35 -7.35 -1.75 -7.35 -2.75 -6.7 -3.75 -5.95 -3.75 -5.05 -3.75 -4.1 -2.75 -3.4 -1.75 -2.65 -0.35 -2.65 1.1 -2.65 2.1 -3.4 Z"/>
</g><g id="head_0_Layer0_4_FILL">
<path fill="#3C3E41" stroke="none" d="&#10;M -20.6 -23.3&#10;L -20.65 -23.3&#10;Q -21.65 -23.15 -22.3 -22.3 -22.95 -21.55 -22.8 -20.55&#10;L -20.9 -4.55&#10;Q -20.8 -3.6 -20 -2.9 -19.2 -2.3 -18.2 -2.45&#10;L -18.15 -2.45&#10;Q -17.15 -2.55 -16.55 -3.35 -15.95 -4.15 -16.05 -5.2&#10;L -17.95 -21.1&#10;Q -18.1 -22.15 -18.9 -22.75 -19.65 -23.35 -20.6 -23.3&#10;M 17.9 -22.75&#10;Q 17.15 -22.15 17 -21.1&#10;L 15.1 -5.2&#10;Q 15 -4.15 15.6 -3.35 16.2 -2.55 17.2 -2.45&#10;L 17.25 -2.45&#10;Q 18.2 -2.3 19 -2.9 19.85 -3.6 19.95 -4.55&#10;L 21.85 -20.55&#10;Q 22 -21.55 21.35 -22.3 20.7 -23.15 19.7 -23.3&#10;L 19.65 -23.3&#10;Q 18.65 -23.35 17.9 -22.75 Z"/>
</g><g id="head_0_Layer0_5_FILL">
<path fill="#3C3E41" stroke="none" d="&#10;M 14.65 -19.9&#10;Q 21.05 -21.95 21.05 -24.65 21.05 -27.3 14.65 -29 8.35 -30.7 -0.7 -30.45 -9.65 -30.15 -16.05 -28.1 -22.4 -26 -22.4 -23.35 -22.4 -20.65 -16.05 -19 -9.65 -17.25 -0.7 -17.55 8.35 -17.8 14.65 -19.9 Z"/>
</g></defs><g transform="matrix(8.931655883789062, 0, 0, 6.609485798728882, -9526.3330078125, -3940.865030611245)"><g transform="matrix(1.6203703880310056, 0, 0, 1.5312499999999998, 1158.5987548828125, 708.9796142578124)">
<g transform="matrix( 1, 0, 0, 1, 0,0) ">
<use xlink:href="#leg_0_Layer0_0_FILL"/>
</g>
</g><g transform="matrix(-1.6203703880310056, 0, 0, 1.5312499999999998, 1132.6728515625, 708.9796142578124)">
<g transform="matrix( 1, 0, 0, 1, 0,0) ">
<use xlink:href="#leg_0_Layer0_0_FILL"/>
</g>
</g><g transform="matrix(-0.4193836152553558, 1.4790525436401365, 1.5651350021362302, 0.396317571401596, 1170.346435546875, 679.6561279296874)">
<g transform="matrix( 1, 0, 0, 1, 0,0) ">
<use xlink:href="#arm_0_Layer0_0_FILL"/>
</g>

<g transform="matrix( 1, 0, 0, 1, 0,0) ">
<use xlink:href="#arm_0_Layer0_1_FILL"/>
</g>
</g><g transform="matrix(0, 1.5312031507492063, -1.6203210353851316, 0, 1122.5455322265625, 679.6561279296874)">
<g transform="matrix( 1, 0, 0, 1, 0,0) ">
<use xlink:href="#arm_0_Layer0_0_FILL"/>
</g>

<g transform="matrix( 1, 0, 0, 1, 0,0) ">
<use xlink:href="#arm_0_Layer0_1_FILL"/>
</g>
</g><g transform="matrix(1.6203703880310056, 0, 0, 1.5312499999999998, 1145.6357421875, 704.5389404296874)">
<g transform="matrix( 1, 0, 0, 1, 0,0) ">
<use xlink:href="#body_0_Layer0_0_FILL"/>
</g>

<g transform="matrix( 1, 0, 0, 1, 0,0) ">
<use xlink:href="#body_0_Layer0_0_MEMBER_0_FILL"/>
</g>

<g transform="matrix( 1, 0, 0, 1, 0,0) ">
<use xlink:href="#body_0_Layer0_0_MEMBER_1_FILL"/>
</g>

<g transform="matrix( 1, 0, 0, 1, 0,0) ">
<use xlink:href="#body_0_Layer0_0_MEMBER_2_FILL"/>
</g>

<g transform="matrix( 1, 0, 0, 1, 0,0) ">
<use xlink:href="#body_0_Layer0_0_MEMBER_3_FILL"/>
</g>
</g><g transform="matrix(-0.6206194758415221, 1.414471626281738, 1.4967954158782957, 0.5864854454994202, 1195.218994140625, 699.4858398437499)">
<g transform="matrix( 1, 0, 0, 1, 0,0) ">
<use xlink:href="#hand_0_Layer0_0_FILL"/>
</g>
</g><g transform="matrix(2.442522525787353, 0, 0, 1.5312499999999998, 1146.283935546875, 673.9905395507811)">
<g transform="matrix( 1, 0, 0, 1, 0,0) ">
<use xlink:href="#shadow_0_Layer0_0_FILL"/>
</g>
</g><g transform="matrix(1.6093430519104002, 0.17832183837890622, -0.18870036303997037, 1.5208292007446287, 1148.6334228515625, 661.8936767578124)">
<g transform="matrix( 1, 0, 0, 1, 0,0) ">
<use xlink:href="#head_0_Layer0_0_FILL"/>
</g>

<g transform="matrix( 1, 0, 0, 1, 0,0) ">
<use xlink:href="#head_0_Layer0_1_FILL"/>
</g>

<g transform="matrix( 1, 0, 0, 1, 0,0) ">
<use xlink:href="#head_0_Layer0_2_FILL"/>
</g>

<g transform="matrix( 1, 0, 0, 1, 0,0) ">
<use xlink:href="#head_0_Layer0_3_FILL"/>
</g>

<g transform="matrix( 1, 0, 0, 1, 0,0) ">
<use xlink:href="#head_0_Layer0_3_MEMBER_0_FILL"/>
</g>

<g transform="matrix( 1, 0, 0, 1, 0,0) ">
<use xlink:href="#head_0_Layer0_3_MEMBER_1_FILL"/>
</g>

<g transform="matrix( 1, 0, 0, 1, 0,0) ">
<use xlink:href="#head_0_Layer0_3_MEMBER_2_FILL"/>
</g>

<g transform="matrix( 1, 0, 0, 1, 0,0) ">
<use xlink:href="#head_0_Layer0_4_FILL"/>
</g>

<g transform="matrix( 1, 0, 0, 1, 0,0) ">
<use xlink:href="#head_0_Layer0_5_FILL"/>
</g>
</g><g transform="matrix(0.6206194758415221, 1.414471626281738, -1.4967954158782957, 0.5864854454994202, 1094.5941162109375, 693.2077026367186)">
<g transform="matrix( 1, 0, 0, 1, 0,0) ">
<use xlink:href="#hand_0_Layer0_0_FILL"/>
</g>
</g></g></svg>