<?xml version="1.0" encoding="utf-8"?>
<svg id="master-artboard" viewBox="0 0 1400 980" version="1.1" xmlns="http://www.w3.org/2000/svg" x="0px" y="0px" style="enable-background:new 0 0 1400 980;" width="1400px" height="980px" xmlns:xlink="http://www.w3.org/1999/xlink"><rect id="ee-background" x="0" y="0" width="1400" height="980" style="fill: white; fill-opacity: 0; pointer-events: none;"/><defs><radialGradient id="Gradient_1" gradientUnits="userSpaceOnUse" cx="0" cy="0" r="13.5875" fx="0" fy="0" gradientTransform="matrix( 1, 0, 0, 1, 0,0) " spreadMethod="pad">
<stop offset="0%" stop-color="#000000" stop-opacity="0.30196078431372547"/>

<stop offset="100%" stop-color="#000000" stop-opacity="0"/>
</radialGradient><filter id="Filter_1" x="-20%" y="-20%" width="140%" height="140%" color-interpolation-filters="sRGB">
<feFlood flood-color="#000000" flood-opacity="1" in="SourceGraphic" result="result1"/>

<feComposite in2="SourceGraphic" in="result1" operator="in" result="result2"/>

<feColorMatrix in="SourceGraphic" type="matrix" values="0 0 0 0 255 0 0 0 0 255 0 0 0 0 255 0 0 0 255 0" result="result3"/>

<feOffset dx="-1.4695761589768238e-15" dy="-8" in="SourceGraphic" result="result4"/>

<feGaussianBlur in="result4" stdDeviation="3.3333333333333335,3.3333333333333335" result="result5"/>

<feComposite in2="result5" in="result2" operator="out" result="result6"/>

<feOffset dx="-1.4695761589768238e-15" dy="-8" in="result3" result="result7"/>

<feComposite in2="result3" in="result7" operator="in" result="result8"/>

<feComposite in2="result8" in="SourceGraphic" operator="in" result="result9"/>

<feBlend mode="normal" in2="result9" in="result6" result="result10"/>

<feComposite in2="result3" in="result10" operator="in" result="result11"/>

<feFlood flood-color="#FFFFFF" flood-opacity="1" in="result11" result="result12"/>

<feFlood flood-color="#000000" flood-opacity="1" in="result11" result="result13"/>

<feComposite in2="result11" in="result13" operator="in" result="result14"/>

<feColorMatrix in="result14" type="matrix" values="0 0 0 0 255 0 0 0 0 255 0 0 0 0 255 0 0 0 255 0" result="result15"/>

<feComposite in2="result11" in="result12" operator="in" result="result16"/>

<feGaussianBlur in="result14" stdDeviation="1.3333333333333333,1.3333333333333333" result="result17"/>

<feComposite in2="result17" in="result16" operator="out" result="result18"/>

<feBlend mode="normal" in2="result11" in="result18" result="result19"/>

<feComposite in2="result15" in="result19" operator="in" result="result20"/>
</filter><g id="arm_0_Layer0_0_FILL">
<path fill="#BF7958" stroke="none" d="&#10;M 13.15 10.6&#10;Q 11.9 7.15 9.95 3.9 4.35 5.25 -0.3 10.1 0.55 11.45 1.2 12.85 2.75 16.05 3.15 19.75 3.4 22.15 5.3 23.7 7.25 25.2 9.7 25 12.1 24.7 13.65 22.75 15.2 20.9 14.95 18.4 14.6 15.5 13.85 12.85 13.55 11.7 13.15 10.6 Z"/>

<path fill="#E7F3FC" stroke="none" d="&#10;M -0.2 -5&#10;Q -2.65 -4.95 -4.4 -3.2 -6.1 -1.4 -6 1 -6 3.45 -4.3 5.15 -1.9 7.45 -0.3 10.1 4.35 5.25 9.95 3.9 7.5 0.05 4 -3.35 2.25 -4.95 -0.2 -5 Z"/>
</g><g id="arm_0_Layer0_1_FILL">
<path fill="#BFD4E5" stroke="none" d="&#10;M 12.4 4.8&#10;L 10.35 1.2 -2.55 8.7 -0.55 12.25 12.4 4.8 Z"/>
</g><g id="leg_0_Layer0_0_FILL">
<path fill="#4C4EAA" stroke="none" d="&#10;M 5.3 14&#10;L 5.45 9 -6.45 9 -6.6 14 5.25 14 5.3 14 Z"/>

<path fill="#FFFFFF" stroke="none" d="&#10;M 11 20&#10;L 5.25 14 -6.6 14 -6.85 20 11 20 Z"/>

<path fill="#EEA160" stroke="none" d="&#10;M 10.9 23&#10;L 11 20 -6.85 20 -7 23 10.9 23 Z"/>

<path fill="#676AC6" stroke="none" d="&#10;M 5.9 -0.2&#10;Q 5.9 -2.6 4 -4.3 2.15 -6 -0.55 -6 -3.2 -6 -5.1 -4.3 -7 -2.6 -7 -0.2&#10;L -6.45 9 5.45 9 5.9 -0.2 Z"/>
</g><g id="legBend_0_Layer0_0_FILL">
<path fill="#4C4EAA" stroke="none" d="&#10;M 11.5 13.25&#10;Q 11.65 9.7 11.05 6.7&#10;L -1.15 8.05&#10;Q -0.3490234375 9.6375 -0.3 11.6&#10;L 11.5 13.25 Z"/>

<path fill="#EEA160" stroke="none" d="&#10;M 15.45 23&#10;L 16 20.05 -1.4 17.1 -2.05 20.35 15.45 23 Z"/>

<path fill="#FFFFFF" stroke="none" d="&#10;M 16 20.05&#10;L 11.5 13.25 -0.3 11.6 -1.4 17.1 16 20.05 Z"/>

<path fill="#676AC6" stroke="none" d="&#10;M -2.55 -5.8&#10;Q -4.9 -5.2 -6.15 -3.1 -7.4 -0.95 -6.8 1.45 -6.2 3.8 -4.05 5.1 -2.1 6.25 -1.15 8&#10;L -1.15 8.05 11.05 6.7&#10;Q 9.3 -0.85 2 -5.15 -0.15 -6.45 -2.55 -5.8 Z"/>
</g><g id="bodyBack_0_Layer0_0_MEMBER_0_FILL">
<path fill="#A8603F" stroke="none" d="&#10;M 7.6 -28.45&#10;Q 4.45 -31 0.05 -31 -4.35 -31 -7.5 -28.45 -10.6 -25.75 -10.6 -22 -10.6 -21.75 -10.55 -21.5 -10.4 -18.1 -7.5 -15.7 -4.35 -13 0.05 -13 4.45 -13 7.6 -15.7 10.5 -18.1 10.65 -21.5 10.7 -21.75 10.7 -22 10.7 -25.75 7.6 -28.45 Z"/>
</g><g id="bodyBack_0_Layer0_0_MEMBER_1_FILL">
<path fill="#BFD4E5" stroke="none" d="&#10;M 14.6 2.8&#10;L 14.6 -2.15 -15.45 -2.15 -15.45 2.8 14.6 2.8 Z"/>

<path fill="#676AC6" stroke="none" d="&#10;M 13.1 8&#10;Q 14.5 6.1 14.6 2.8&#10;L -15.45 2.8&#10;Q -15.35 6.1 -13.95 8&#10;L 13.1 8 Z"/>

<path fill="#E7F3FC" stroke="none" d="&#10;M 17.8 -15.8&#10;Q 18.85 -21.2 15.2 -21&#10;L -16.1 -21&#10;Q -19.75 -21.2 -18.7 -15.8&#10;L -15.45 -2.15 14.6 -2.15 17.8 -15.8 Z"/>
</g><g id="bodyBack_0_Layer0_0_MEMBER_2_FILL">
<path fill="#D78B49" stroke="none" d="&#10;M 16 4.5&#10;Q 16.45 1.75 16.85 -0.7 0.097265625 -3.177734375 -17.25 -0.7 -16.85 1.75 -16.4 4.5 0.498828125 2.503125 16 4.5 Z"/>

<path fill="#EEA160" stroke="none" d="&#10;M 16.85 -0.7&#10;Q 19.8 -19.55 17.75 -23.25&#10;L 13.2 -22.4&#10;Q 9.25 -13.75 -0.25 -13.75 -9.65 -13.75 -13.6 -22.4&#10;L -18.15 -23.25&#10;Q -20.2 -19.55 -17.25 -0.7 0.097265625 -3.177734375 16.85 -0.7 Z"/>
</g><g id="hand_0_Layer0_0_FILL">
<path fill="#A8603F" stroke="none" d="&#10;M -9.2 7.6&#10;L -9.25 6.65&#10;Q -8.75 0.45 -5.45 -2.95 -14.15 3.5 -9.25 7.65&#10;L -9.2 7.6 Z"/>

<path fill="#BF7958" stroke="none" d="&#10;M 7 -1.65&#10;Q 6.95 -3 5.5 -3&#10;L -5.45 -2.95&#10;Q -8.75 0.45 -9.25 6.65&#10;L -9.2 7.6 -9.25 7.65&#10;Q -9.3 9.3 -9.25 11.15&#10;L -9.25 11.55&#10;Q -9.25 12.95 -7.1 13.35 -3.95 14.05 -0.95 14 7.55 13.95 7 -0.75&#10;L 7 -1.65 Z"/>
</g><g id="body_0_Layer0_0_FILL">
<path fill="#BFD4E5" stroke="none" d="&#10;M 14.6 2.8&#10;L 14.6 -2.15 -15.45 -2.15 -15.45 2.8 14.6 2.8 Z"/>

<path fill="#676AC6" stroke="none" d="&#10;M 13.1 8&#10;Q 14.5 6.1 14.6 2.8&#10;L -15.45 2.8&#10;Q -15.35 6.1 -13.95 8&#10;L 13.1 8 Z"/>

<path fill="#E7F3FC" stroke="none" d="&#10;M 17.8 -15.8&#10;Q 18.85 -21.2 15.2 -21&#10;L -16.1 -21&#10;Q -19.75 -21.2 -18.7 -15.8&#10;L -15.45 -2.15 14.6 -2.15 17.8 -15.8 Z"/>
</g><g id="body_0_Layer0_0_MEMBER_0_FILL">
<path fill="#A8603F" stroke="none" d="&#10;M 7.6 -28.45&#10;Q 4.45 -31 0.05 -31 -4.35 -31 -7.5 -28.45 -10.6 -25.75 -10.6 -22 -10.6 -21.75 -10.55 -21.5 -10.4 -18.1 -7.5 -15.7 -4.35 -13 0.05 -13 4.45 -13 7.6 -15.7 10.5 -18.1 10.65 -21.5 10.7 -21.75 10.7 -22 10.7 -25.75 7.6 -28.45 Z"/>
</g><g id="body_0_Layer0_0_MEMBER_1_FILL">
<path fill="#D78B49" stroke="none" d="&#10;M -3.15 -1.95&#10;L -17.25 -0.7&#10;Q -16.85 1.75 -16.4 4.5&#10;L -3.95 3&#10;Q -3.45 0.7 -3.15 -1.95 Z"/>

<path fill="#EEA160" stroke="none" d="&#10;M -3.15 -1.95&#10;Q -2.8 -5.45 -2.9 -9.5 -9.65 -13.75 -13.6 -22.4&#10;L -18.15 -23.25&#10;Q -20.2 -19.55 -17.25 -0.7&#10;L -3.15 -1.95 Z"/>
</g><g id="body_0_Layer0_0_MEMBER_2_FILL">
<path fill="#D78B49" stroke="none" d="&#10;M 16.85 -0.7&#10;L 2.75 -1.95&#10;Q 3.05 0.7 3.55 3&#10;L 16 4.5&#10;Q 16.45 1.75 16.85 -0.7 Z"/>

<path fill="#EEA160" stroke="none" d="&#10;M 2.5 -9.5&#10;Q 2.4 -5.45 2.75 -1.95&#10;L 16.85 -0.7&#10;Q 19.8 -19.55 17.75 -23.25&#10;L 13.2 -22.4&#10;Q 9.25 -13.75 2.5 -9.5 Z"/>
</g><g id="body_0_Layer0_0_MEMBER_3_FILL">
<path fill="#BFD4E5" stroke="none" d="&#10;M -13.05 -22&#10;L -15.1 -18.4 -2 -10.8 0.05 -14.45 -13.05 -22&#10;M 13.15 -22&#10;L 0.05 -14.45 2.1 -10.8 15.2 -18.4 13.15 -22 Z"/>

<path fill="#E7F3FC" stroke="none" d="&#10;M 2.1 -10.8&#10;L 0.05 -14.45 -2 -10.8 2.1 -10.8 Z"/>
</g><g id="shadow_0_Layer0_0_FILL">
<path fill="url(#Gradient_1)" stroke="none" d="&#10;M 9.45 -9.55&#10;Q 5.55 -13.45 0 -13.45 -5.55 -13.45 -9.55 -9.55 -13.45 -5.55 -13.45 0 -13.45 5.55 -9.55 9.45 -5.55 13.45 0 13.45 5.55 13.45 9.45 9.45 13.45 5.55 13.45 0 13.45 -5.55 9.45 -9.55 Z"/>
</g><g id="headFocus_0_Layer0_0_FILL">
<path fill="#454A51" stroke="none" d="&#10;M 12.65 -35.05&#10;L 9.75 -39.6&#10;Q -4.85 -40.75 -17.6 -38.7 -24.75 -37.7 -24.1 -31.9&#10;L -23.9 -30.2&#10;Q -22.95 -33.75 -17.55 -34.5 -4.8 -36.5 9.8 -35.35&#10;L 12.65 -35.05&#10;M 23.15 -30.65&#10;L 23.3 -31.9&#10;Q 24 -37.55 17.85 -38.7&#10;L 13.3 -34.95 17.9 -34.5&#10;Q 22.2 -33.7 23.15 -30.65 Z"/>

<path fill="#3C3E41" stroke="none" d="&#10;M 17.9 -34.5&#10;L 13.3 -34.95 12.9 -34.65 12.65 -35.05 9.8 -35.35&#10;Q -4.8 -36.5 -17.55 -34.5 -22.95 -33.75 -23.9 -30.2&#10;L -21.65 -10.8&#10;Q -21.1 -6.45 -15.95 -6.45&#10;L 15.15 -6.45&#10;Q 20.35 -6.45 20.85 -10.8&#10;L 23.15 -30.65&#10;Q 22.2 -33.7 17.9 -34.5 Z"/>
</g><g id="headFocus_0_Layer0_1_FILL">
<path fill="#BF7958" stroke="none" d="&#10;M -24.65 -11.25&#10;Q -27 -8.9 -27 -5.55 -27 -2.2 -24.65 0.15 -22.25 2.6 -19 2.6 -15.7 2.6 -13.3 0.15 -11 -2.2 -11 -5.55 -11 -8.9 -13.3 -11.25 -15.7 -13.7 -19 -13.7 -22.25 -13.7 -24.65 -11.25&#10;M -22.35 -2.1&#10;Q -23.75 -3.5 -23.75 -5.55 -23.75 -7.5 -22.35 -9 -20.95 -10.4 -19 -10.4 -16.95 -10.4 -15.55 -9 -14.15 -7.5 -14.15 -5.55 -14.15 -3.5 -15.55 -2.1 -16.95 -0.65 -19 -0.65 -20.95 -0.65 -22.35 -2.1&#10;M 12.35 -11.25&#10;Q 10 -8.9 10 -5.55 10 -2.2 12.35 0.15 14.75 2.6 18 2.6 21.3 2.6 23.7 0.15 26 -2.2 26 -5.55 26 -8.9 23.7 -11.25 21.3 -13.7 18 -13.7 14.75 -13.7 12.35 -11.25&#10;M 14.65 -9&#10;Q 16.05 -10.4 18 -10.4 20 -10.4 21.45 -9 22.85 -7.5 22.85 -5.55 22.85 -3.5 21.45 -2.1 20 -0.65 18 -0.65 16.05 -0.65 14.65 -2.1 13.2 -3.5 13.2 -5.55 13.2 -7.5 14.65 -9 Z"/>

<path fill="#A8603F" stroke="none" d="&#10;M -23.75 -5.55&#10;Q -23.75 -3.5 -22.35 -2.1 -20.95 -0.65 -19 -0.65 -16.95 -0.65 -15.55 -2.1 -14.15 -3.5 -14.15 -5.55 -14.15 -7.5 -15.55 -9 -16.95 -10.4 -19 -10.4 -20.95 -10.4 -22.35 -9 -23.75 -7.5 -23.75 -5.55&#10;M 18 -10.4&#10;Q 16.05 -10.4 14.65 -9 13.2 -7.5 13.2 -5.55 13.2 -3.5 14.65 -2.1 16.05 -0.65 18 -0.65 20 -0.65 21.45 -2.1 22.85 -3.5 22.85 -5.55 22.85 -7.5 21.45 -9 20 -10.4 18 -10.4 Z"/>
</g><g id="headFocus_0_Layer0_2_FILL">
<path fill="#BF7958" stroke="none" d="&#10;M 11.7 8&#10;Q 17.1 7.3 17.8 2.2&#10;L 20.45 -23.8 -21.4 -23.8 -18.2 8 11.7 8 Z"/>
</g><g id="headFocus_0_Layer0_3_FILL">
<path fill="#FFFFFF" stroke="none" d="&#10;M -12.95 -6.15&#10;Q -12.95 -4.4 -11.85 -3.15 -10.65 -1.8 -8.85 -1.8 -7.15 -1.8 -6 -3.15 -4.85 -4.4 -4.85 -6.15 -4.85 -7.9 -6 -9.15 -7.15 -10.45 -8.85 -10.45 -10.65 -10.45 -11.85 -9.15 -12.95 -7.9 -12.95 -6.15&#10;M -10.45 -6&#10;L -10.45 -6.25&#10;Q -10.4 -7.3 -9.75 -8.05 -9.05 -8.85 -8.05 -8.85 -7 -8.85 -6.3 -8.05 -5.65 -7.3 -5.6 -6.25&#10;L -5.6 -6&#10;Q -5.65 -5 -6.3 -4.25 -7 -3.45 -8.05 -3.45 -9.05 -3.45 -9.75 -4.25 -10.4 -5 -10.45 -6&#10;M 8.1 -10.45&#10;Q 6.35 -10.45 5.1 -9.15 4 -7.9 4 -6.15 4 -4.4 5.1 -3.15 6.35 -1.8 8.1 -1.8 9.85 -1.8 10.9 -3.15 12.15 -4.4 12.15 -6.15 12.15 -7.9 10.9 -9.15 9.85 -10.45 8.1 -10.45&#10;M 8.65 -8.05&#10;Q 9.35 -7.3 9.4 -6.25&#10;L 9.4 -6&#10;Q 9.35 -5 8.65 -4.25 8 -3.45 7 -3.45 6 -3.45 5.2 -4.25 4.6 -5 4.55 -6&#10;L 4.55 -6.35&#10;Q 4.6 -7.3 5.2 -8.05 6 -8.85 7 -8.85 8 -8.85 8.65 -8.05 Z"/>

<path fill="#3C3E41" stroke="none" d="&#10;M -10.45 -6.25&#10;L -10.45 -6&#10;Q -10.4 -5 -9.75 -4.25 -9.05 -3.45 -8.05 -3.45 -7 -3.45 -6.3 -4.25 -5.65 -5 -5.6 -6&#10;L -5.6 -6.25&#10;Q -5.65 -7.3 -6.3 -8.05 -7 -8.85 -8.05 -8.85 -9.05 -8.85 -9.75 -8.05 -10.4 -7.3 -10.45 -6.25&#10;M 9.4 -6.25&#10;Q 9.35 -7.3 8.65 -8.05 8 -8.85 7 -8.85 6 -8.85 5.2 -8.05 4.6 -7.3 4.55 -6.35&#10;L 4.55 -6&#10;Q 4.6 -5 5.2 -4.25 6 -3.45 7 -3.45 8 -3.45 8.65 -4.25 9.35 -5 9.4 -6&#10;L 9.4 -6.25 Z"/>
</g><g id="headFocus_0_Layer0_3_MEMBER_0_FILL">
<path fill="#3C3E41" stroke="none" d="&#10;M -14.05 -12.7&#10;L -14.5 -9.8 -3.95 -8.2 -3.5 -11.05 -14.05 -12.7&#10;M 2.85 -9.9&#10;L 3.35 -7.05 13.95 -9 13.45 -11.8 2.85 -9.9 Z"/>
</g><g id="headFocus_0_Layer0_3_MEMBER_1_FILL">
<path fill="#3C3E41" stroke="none" d="&#10;M -0.7 -2.3&#10;Q -4.25 -2.3 -6.7 -0.85 -9 0.45 -9.3 2.25 -9.4 2.5 -9.3 2.8 -9.2 3.05 -9 3.25 -8.8 3.45 -8.5 3.5 -4.2 4.15 -0.4 2.5 3.35 4.15 7.7 3.5 8 3.45 8.2 3.25 8.4 3.05 8.5 2.8 8.6 2.5 8.55 2.25 8.2 0.45 5.9 -0.85 3.4 -2.3 -0.1 -2.3 -0.25 -2.3 -0.4 -2.3 -0.55 -2.3 -0.7 -2.3 Z"/>
</g><g id="headFocus_0_Layer0_3_MEMBER_2_FILL">
<path fill="#955435" stroke="none" d="&#10;M 2.1 -1.4&#10;Q 3.1 -2.1 3.1 -3.05 3.1 -3.95 2.1 -4.7 1.1 -5.35 -0.35 -5.35 -1.75 -5.35 -2.75 -4.7 -3.75 -3.95 -3.75 -3.05 -3.75 -2.1 -2.75 -1.4 -1.75 -0.65 -0.35 -0.65 1.1 -0.65 2.1 -1.4 Z"/>
</g><g id="headFocus_0_Layer0_4_FILL">
<path fill="#3C3E41" stroke="none" d="&#10;M -20.6 -23.3&#10;L -20.65 -23.3&#10;Q -21.65 -23.15 -22.3 -22.3 -22.95 -21.55 -22.8 -20.55&#10;L -20.9 -4.55&#10;Q -20.8 -3.6 -20 -2.9 -19.2 -2.3 -18.2 -2.45&#10;L -18.15 -2.45&#10;Q -17.15 -2.55 -16.55 -3.35 -15.95 -4.15 -16.05 -5.2&#10;L -17.95 -21.1&#10;Q -18.1 -22.15 -18.9 -22.75 -19.65 -23.35 -20.6 -23.3&#10;M 17.9 -22.75&#10;Q 17.15 -22.15 17 -21.1&#10;L 15.1 -5.2&#10;Q 15 -4.15 15.6 -3.35 16.2 -2.55 17.2 -2.45&#10;L 17.25 -2.45&#10;Q 18.2 -2.3 19 -2.9 19.85 -3.6 19.95 -4.55&#10;L 21.85 -20.55&#10;Q 22 -21.55 21.35 -22.3 20.7 -23.15 19.7 -23.3&#10;L 19.65 -23.3&#10;Q 18.65 -23.35 17.9 -22.75 Z"/>
</g><g id="headFocus_0_Layer0_5_FILL">
<path fill="#3C3E41" stroke="none" d="&#10;M 14.65 -19.9&#10;Q 21.05 -21.95 21.05 -24.65 21.05 -27.3 14.65 -29 8.35 -30.7 -0.7 -30.45 -9.65 -30.15 -16.05 -28.1 -22.4 -26 -22.4 -23.35 -22.4 -20.65 -16.05 -19 -9.65 -17.25 -0.7 -17.55 8.35 -17.8 14.65 -19.9 Z"/>
</g><g id="headShock_0_Layer0_0_FILL">
<path fill="#454A51" stroke="none" d="&#10;M 12.65 -35.05&#10;L 9.75 -39.6&#10;Q -4.85 -40.75 -17.6 -38.7 -24.75 -37.7 -24.1 -31.9&#10;L -23.9 -30.2&#10;Q -22.95 -33.75 -17.55 -34.5 -4.8 -36.5 9.8 -35.35&#10;L 12.65 -35.05&#10;M 23.15 -30.65&#10;L 23.3 -31.9&#10;Q 24 -37.55 17.85 -38.7&#10;L 13.3 -34.95 17.9 -34.5&#10;Q 22.2 -33.7 23.15 -30.65 Z"/>

<path fill="#3C3E41" stroke="none" d="&#10;M 17.9 -34.5&#10;L 13.3 -34.95 12.9 -34.65 12.65 -35.05 9.8 -35.35&#10;Q -4.8 -36.5 -17.55 -34.5 -22.95 -33.75 -23.9 -30.2&#10;L -21.65 -10.8&#10;Q -21.1 -6.45 -15.95 -6.45&#10;L 15.15 -6.45&#10;Q 20.35 -6.45 20.85 -10.8&#10;L 23.15 -30.65&#10;Q 22.2 -33.7 17.9 -34.5 Z"/>
</g><g id="headShock_0_Layer0_1_FILL">
<path fill="#BF7958" stroke="none" d="&#10;M -24.65 -11.25&#10;Q -27 -8.9 -27 -5.55 -27 -2.2 -24.65 0.15 -22.25 2.6 -19 2.6 -15.7 2.6 -13.3 0.15 -11 -2.2 -11 -5.55 -11 -8.9 -13.3 -11.25 -15.7 -13.7 -19 -13.7 -22.25 -13.7 -24.65 -11.25&#10;M -22.35 -2.1&#10;Q -23.75 -3.5 -23.75 -5.55 -23.75 -7.5 -22.35 -9 -20.95 -10.4 -19 -10.4 -16.95 -10.4 -15.55 -9 -14.15 -7.5 -14.15 -5.55 -14.15 -3.5 -15.55 -2.1 -16.95 -0.65 -19 -0.65 -20.95 -0.65 -22.35 -2.1&#10;M 18 -13.7&#10;Q 14.75 -13.7 12.35 -11.25 10 -8.9 10 -5.55 10 -2.2 12.35 0.15 14.75 2.6 18 2.6 21.3 2.6 23.7 0.15 26 -2.2 26 -5.55 26 -8.9 23.7 -11.25 21.3 -13.7 18 -13.7&#10;M 18 -0.65&#10;Q 16.05 -0.65 14.65 -2.1 13.2 -3.5 13.2 -5.55 13.2 -7.5 14.65 -9 16.05 -10.4 18 -10.4 20 -10.4 21.45 -9 22.85 -7.5 22.85 -5.55 22.85 -3.5 21.45 -2.1 20 -0.65 18 -0.65 Z"/>

<path fill="#A8603F" stroke="none" d="&#10;M -23.75 -5.55&#10;Q -23.75 -3.5 -22.35 -2.1 -20.95 -0.65 -19 -0.65 -16.95 -0.65 -15.55 -2.1 -14.15 -3.5 -14.15 -5.55 -14.15 -7.5 -15.55 -9 -16.95 -10.4 -19 -10.4 -20.95 -10.4 -22.35 -9 -23.75 -7.5 -23.75 -5.55&#10;M 14.65 -2.1&#10;Q 16.05 -0.65 18 -0.65 20 -0.65 21.45 -2.1 22.85 -3.5 22.85 -5.55 22.85 -7.5 21.45 -9 20 -10.4 18 -10.4 16.05 -10.4 14.65 -9 13.2 -7.5 13.2 -5.55 13.2 -3.5 14.65 -2.1 Z"/>
</g><g id="headShock_0_Layer0_2_FILL">
<path fill="#BF7958" stroke="none" d="&#10;M 11.7 8&#10;Q 17.1 7.3 17.8 2.2&#10;L 20.45 -23.8 -21.4 -23.8 -18.2 8 11.7 8 Z"/>
</g><g id="headShock_0_Layer0_3_FILL">
<path fill="#FFFFFF" stroke="none" d="&#10;M -12.95 -8.15&#10;Q -12.95 -6.4 -11.85 -5.15 -10.65 -3.8 -8.85 -3.8 -7.15 -3.8 -6 -5.15 -4.85 -6.4 -4.85 -8.15 -4.85 -9.9 -6 -11.15 -7.15 -12.45 -8.85 -12.45 -10.65 -12.45 -11.85 -11.15 -12.95 -9.9 -12.95 -8.15&#10;M -10.45 -8&#10;L -10.45 -8.25&#10;Q -10.4 -9.3 -9.75 -10.05 -9.05 -10.85 -8.05 -10.85 -7 -10.85 -6.3 -10.05 -5.65 -9.3 -5.6 -8.25&#10;L -5.6 -8&#10;Q -5.65 -7 -6.3 -6.25 -7 -5.45 -8.05 -5.45 -9.05 -5.45 -9.75 -6.25 -10.4 -7 -10.45 -8&#10;M 5.1 -5.15&#10;Q 6.35 -3.8 8.1 -3.8 9.85 -3.8 10.9 -5.15 12.15 -6.4 12.15 -8.15 12.15 -9.9 10.9 -11.15 9.85 -12.45 8.1 -12.45 6.35 -12.45 5.1 -11.15 4 -9.9 4 -8.15 4 -6.4 5.1 -5.15&#10;M 8.65 -10.05&#10;Q 9.35 -9.3 9.4 -8.25&#10;L 9.4 -8&#10;Q 9.35 -7 8.65 -6.25 8 -5.45 7 -5.45 6 -5.45 5.2 -6.25 4.6 -7 4.55 -8&#10;L 4.55 -8.35&#10;Q 4.6 -9.3 5.2 -10.05 6 -10.85 7 -10.85 8 -10.85 8.65 -10.05 Z"/>

<path fill="#3C3E41" stroke="none" d="&#10;M -10.45 -8.25&#10;L -10.45 -8&#10;Q -10.4 -7 -9.75 -6.25 -9.05 -5.45 -8.05 -5.45 -7 -5.45 -6.3 -6.25 -5.65 -7 -5.6 -8&#10;L -5.6 -8.25&#10;Q -5.65 -9.3 -6.3 -10.05 -7 -10.85 -8.05 -10.85 -9.05 -10.85 -9.75 -10.05 -10.4 -9.3 -10.45 -8.25&#10;M 9.4 -8.25&#10;Q 9.35 -9.3 8.65 -10.05 8 -10.85 7 -10.85 6 -10.85 5.2 -10.05 4.6 -9.3 4.55 -8.35&#10;L 4.55 -8&#10;Q 4.6 -7 5.2 -6.25 6 -5.45 7 -5.45 8 -5.45 8.65 -6.25 9.35 -7 9.4 -8&#10;L 9.4 -8.25 Z"/>
</g><g id="headShock_0_Layer0_3_MEMBER_0_FILL">
<path fill="#3C3E41" stroke="none" d="&#10;M -14.9 -15.4&#10;L -14.6 -12.45 -4 -13.65 -4.3 -16.55 -14.9 -15.4&#10;M 3.15 -18.65&#10;L 2.9 -15.75 13.65 -14.9 13.85 -17.75 3.15 -18.65 Z"/>
</g><g id="headShock_0_Layer0_3_MEMBER_1_FILL">
<path fill="#A8603F" stroke="none" d="&#10;M -0.55 -1.1&#10;Q -1.9 -1.1 -2.85 -0.2 -3.75 0.75 -3.75 2.1 -3.75 3.45 -2.85 4.35 -1.9 5.3 -0.55 5.3 0.8 5.3 1.7 4.35 2.65 3.45 2.65 2.1 2.65 0.75 1.7 -0.2 0.8 -1.1 -0.55 -1.1 Z"/>
</g><g id="headShock_0_Layer0_3_MEMBER_2_FILL">
<path fill="#3C3E41" stroke="none" d="&#10;M -0.7 -4.3&#10;Q -4.25 -4.3 -6.7 -2.85 -9 -1.55 -9.3 0.25 -9.4 0.5 -9.3 0.8 -9.2 1.05 -9 1.25 -8.8 1.45 -8.5 1.5 -4.2 2.15 -0.4 0.5 3.35 2.15 7.7 1.5 8 1.45 8.2 1.25 8.4 1.05 8.5 0.8 8.6 0.5 8.55 0.25 8.2 -1.55 5.9 -2.85 3.4 -4.3 -0.1 -4.3 -0.25 -4.3 -0.4 -4.3 -0.55 -4.3 -0.7 -4.3 Z"/>
</g><g id="headShock_0_Layer0_3_MEMBER_3_FILL">
<path fill="#955435" stroke="none" d="&#10;M 2.1 -3.4&#10;Q 3.1 -4.1 3.1 -5.05 3.1 -5.95 2.1 -6.7 1.1 -7.35 -0.35 -7.35 -1.75 -7.35 -2.75 -6.7 -3.75 -5.95 -3.75 -5.05 -3.75 -4.1 -2.75 -3.4 -1.75 -2.65 -0.35 -2.65 1.1 -2.65 2.1 -3.4 Z"/>
</g><g id="headShock_0_Layer0_4_FILL">
<path fill="#3C3E41" stroke="none" d="&#10;M -20.6 -23.3&#10;L -20.65 -23.3&#10;Q -21.65 -23.15 -22.3 -22.3 -22.95 -21.55 -22.8 -20.55&#10;L -20.9 -4.55&#10;Q -20.8 -3.6 -20 -2.9 -19.2 -2.3 -18.2 -2.45&#10;L -18.15 -2.45&#10;Q -17.15 -2.55 -16.55 -3.35 -15.95 -4.15 -16.05 -5.2&#10;L -17.95 -21.1&#10;Q -18.1 -22.15 -18.9 -22.75 -19.65 -23.35 -20.6 -23.3&#10;M 17.9 -22.75&#10;Q 17.15 -22.15 17 -21.1&#10;L 15.1 -5.2&#10;Q 15 -4.15 15.6 -3.35 16.2 -2.55 17.2 -2.45&#10;L 17.25 -2.45&#10;Q 18.2 -2.3 19 -2.9 19.85 -3.6 19.95 -4.55&#10;L 21.85 -20.55&#10;Q 22 -21.55 21.35 -22.3 20.7 -23.15 19.7 -23.3&#10;L 19.65 -23.3&#10;Q 18.65 -23.35 17.9 -22.75 Z"/>
</g><g id="headShock_0_Layer0_5_FILL">
<path fill="#3C3E41" stroke="none" d="&#10;M 14.65 -19.9&#10;Q 21.05 -21.95 21.05 -24.65 21.05 -27.3 14.65 -29 8.35 -30.7 -0.7 -30.45 -9.65 -30.15 -16.05 -28.1 -22.4 -26 -22.4 -23.35 -22.4 -20.65 -16.05 -19 -9.65 -17.25 -0.7 -17.55 8.35 -17.8 14.65 -19.9 Z"/>
</g><g id="headBack_0_Layer0_0_FILL">
<path fill="#BF7958" stroke="none" d="&#10;M -24.65 -11.25&#10;Q -27 -8.9 -27 -5.55 -27 -2.2 -24.65 0.15 -22.25 2.6 -19 2.6 -15.7 2.6 -13.3 0.15 -11 -2.2 -11 -5.55 -11 -8.9 -13.3 -11.25 -15.7 -13.7 -19 -13.7 -22.25 -13.7 -24.65 -11.25&#10;M -22.35 -2.1&#10;Q -23.75 -3.5 -23.75 -5.55 -23.75 -7.5 -22.35 -9 -20.95 -10.4 -19 -10.4 -16.95 -10.4 -15.55 -9 -14.15 -7.5 -14.15 -5.55 -14.15 -3.5 -15.55 -2.1 -16.95 -0.65 -19 -0.65 -20.95 -0.65 -22.35 -2.1&#10;M 18 -13.7&#10;Q 14.75 -13.7 12.35 -11.25 10 -8.9 10 -5.55 10 -2.2 12.35 0.15 14.75 2.6 18 2.6 21.3 2.6 23.7 0.15 26 -2.2 26 -5.55 26 -8.9 23.7 -11.25 21.3 -13.7 18 -13.7&#10;M 18 -0.65&#10;Q 16.05 -0.65 14.65 -2.1 13.2 -3.5 13.2 -5.55 13.2 -7.5 14.65 -9 16.05 -10.4 18 -10.4 20 -10.4 21.45 -9 22.85 -7.5 22.85 -5.55 22.85 -3.5 21.45 -2.1 20 -0.65 18 -0.65 Z"/>

<path fill="#A8603F" stroke="none" d="&#10;M -23.75 -5.55&#10;Q -23.75 -3.5 -22.35 -2.1 -20.95 -0.65 -19 -0.65 -16.95 -0.65 -15.55 -2.1 -14.15 -3.5 -14.15 -5.55 -14.15 -7.5 -15.55 -9 -16.95 -10.4 -19 -10.4 -20.95 -10.4 -22.35 -9 -23.75 -7.5 -23.75 -5.55&#10;M 14.65 -2.1&#10;Q 16.05 -0.65 18 -0.65 20 -0.65 21.45 -2.1 22.85 -3.5 22.85 -5.55 22.85 -7.5 21.45 -9 20 -10.4 18 -10.4 16.05 -10.4 14.65 -9 13.2 -7.5 13.2 -5.55 13.2 -3.5 14.65 -2.1 Z"/>
</g><g id="headBack_0_Layer0_1_FILL">
<path fill="#BF7958" stroke="none" d="&#10;M 11.7 8&#10;Q 17.1 7.3 17.8 2.2&#10;L 20.45 -23.8 -21.4 -23.8 -18.2 8 11.7 8 Z"/>
</g><g id="headBack_0_Layer0_2_FILL">
<path fill="#454A51" stroke="none" d="&#10;M -14.1 -34.95&#10;L -18.65 -38.7&#10;Q -24.8 -37.55 -24.1 -31.9&#10;L -23.95 -30.65&#10;Q -23 -33.7 -18.7 -34.5&#10;L -14.1 -34.95&#10;M 23.1 -30.2&#10;L 23.3 -31.9&#10;Q 23.95 -37.7 16.8 -38.7 4.05 -40.75 -10.55 -39.6&#10;L -13.45 -35.05 -10.6 -35.35&#10;Q 4 -36.5 16.75 -34.5 22.15 -33.75 23.1 -30.2 Z"/>

<path fill="#3C3E41" stroke="none" d="&#10;M 13.65 -0.6&#10;Q 19.24375 -2.5705078125 20.3 -7.5&#10;L 20.5 -9.45&#10;Q 20.75703125 -10.0650390625 20.85 -10.8&#10;L 23.1 -30.2&#10;Q 22.15 -33.75 16.75 -34.5 4 -36.5 -10.6 -35.35&#10;L -13.45 -35.05 -13.7 -34.65 -14.1 -34.95 -18.7 -34.5&#10;Q -23 -33.7 -23.95 -30.65&#10;L -22.85 -20.9&#10;Q -22.8271484375 -20.7314453125 -22.8 -20.55&#10;L -22.7 -19.7&#10;Q -22.3326171875 -16.584765625 -22 -13.5&#10;L -21.35 -7.5&#10;Q -20.8974609375 -2.5138671875 -14.45 -0.55 -8.5892578125 1.2 -0.6 1.2 7.7443359375 1.2 13.65 -0.6 Z"/>
</g><g id="head_0_Layer0_0_FILL">
<path fill="#454A51" stroke="none" d="&#10;M 12.65 -35.05&#10;L 9.75 -39.6&#10;Q -4.85 -40.75 -17.6 -38.7 -24.75 -37.7 -24.1 -31.9&#10;L -23.9 -30.2&#10;Q -22.95 -33.75 -17.55 -34.5 -4.8 -36.5 9.8 -35.35&#10;L 12.65 -35.05&#10;M 23.15 -30.65&#10;L 23.3 -31.9&#10;Q 24 -37.55 17.85 -38.7&#10;L 13.3 -34.95 17.9 -34.5&#10;Q 22.2 -33.7 23.15 -30.65 Z"/>

<path fill="#3C3E41" stroke="none" d="&#10;M 17.9 -34.5&#10;L 13.3 -34.95 12.9 -34.65 12.65 -35.05 9.8 -35.35&#10;Q -4.8 -36.5 -17.55 -34.5 -22.95 -33.75 -23.9 -30.2&#10;L -21.65 -10.8&#10;Q -21.1 -6.45 -15.95 -6.45&#10;L 15.15 -6.45&#10;Q 20.35 -6.45 20.85 -10.8&#10;L 23.15 -30.65&#10;Q 22.2 -33.7 17.9 -34.5 Z"/>
</g><g id="head_0_Layer0_1_FILL">
<path fill="#BF7958" stroke="none" d="&#10;M -24.65 -11.25&#10;Q -27 -8.9 -27 -5.55 -27 -2.2 -24.65 0.15 -22.25 2.6 -19 2.6 -15.7 2.6 -13.3 0.15 -11 -2.2 -11 -5.55 -11 -8.9 -13.3 -11.25 -15.7 -13.7 -19 -13.7 -22.25 -13.7 -24.65 -11.25&#10;M -22.35 -2.1&#10;Q -23.75 -3.5 -23.75 -5.55 -23.75 -7.5 -22.35 -9 -20.95 -10.4 -19 -10.4 -16.95 -10.4 -15.55 -9 -14.15 -7.5 -14.15 -5.55 -14.15 -3.5 -15.55 -2.1 -16.95 -0.65 -19 -0.65 -20.95 -0.65 -22.35 -2.1&#10;M 12.35 -11.25&#10;Q 10 -8.9 10 -5.55 10 -2.2 12.35 0.15 14.75 2.6 18 2.6 21.3 2.6 23.7 0.15 26 -2.2 26 -5.55 26 -8.9 23.7 -11.25 21.3 -13.7 18 -13.7 14.75 -13.7 12.35 -11.25&#10;M 14.65 -9&#10;Q 16.05 -10.4 18 -10.4 20 -10.4 21.45 -9 22.85 -7.5 22.85 -5.55 22.85 -3.5 21.45 -2.1 20 -0.65 18 -0.65 16.05 -0.65 14.65 -2.1 13.2 -3.5 13.2 -5.55 13.2 -7.5 14.65 -9 Z"/>

<path fill="#A8603F" stroke="none" d="&#10;M -23.75 -5.55&#10;Q -23.75 -3.5 -22.35 -2.1 -20.95 -0.65 -19 -0.65 -16.95 -0.65 -15.55 -2.1 -14.15 -3.5 -14.15 -5.55 -14.15 -7.5 -15.55 -9 -16.95 -10.4 -19 -10.4 -20.95 -10.4 -22.35 -9 -23.75 -7.5 -23.75 -5.55&#10;M 18 -10.4&#10;Q 16.05 -10.4 14.65 -9 13.2 -7.5 13.2 -5.55 13.2 -3.5 14.65 -2.1 16.05 -0.65 18 -0.65 20 -0.65 21.45 -2.1 22.85 -3.5 22.85 -5.55 22.85 -7.5 21.45 -9 20 -10.4 18 -10.4 Z"/>
</g><g id="head_0_Layer0_2_FILL">
<path fill="#BF7958" stroke="none" d="&#10;M 11.7 8&#10;Q 17.1 7.3 17.8 2.2&#10;L 20.45 -23.8 -21.4 -23.8 -18.2 8 11.7 8 Z"/>
</g><g id="head_0_Layer0_3_FILL">
<path fill="#FFFFFF" stroke="none" d="&#10;M -12.95 -8.15&#10;Q -12.95 -6.4 -11.85 -5.15 -10.65 -3.8 -8.85 -3.8 -7.15 -3.8 -6 -5.15 -4.85 -6.4 -4.85 -8.15 -4.85 -9.9 -6 -11.15 -7.15 -12.45 -8.85 -12.45 -10.65 -12.45 -11.85 -11.15 -12.95 -9.9 -12.95 -8.15&#10;M -10.45 -8&#10;L -10.45 -8.25&#10;Q -10.4 -9.3 -9.75 -10.05 -9.05 -10.85 -8.05 -10.85 -7 -10.85 -6.3 -10.05 -5.65 -9.3 -5.6 -8.25&#10;L -5.6 -8&#10;Q -5.65 -7 -6.3 -6.25 -7 -5.45 -8.05 -5.45 -9.05 -5.45 -9.75 -6.25 -10.4 -7 -10.45 -8&#10;M 5.1 -5.15&#10;Q 6.35 -3.8 8.1 -3.8 9.85 -3.8 10.9 -5.15 12.15 -6.4 12.15 -8.15 12.15 -9.9 10.9 -11.15 9.85 -12.45 8.1 -12.45 6.35 -12.45 5.1 -11.15 4 -9.9 4 -8.15 4 -6.4 5.1 -5.15&#10;M 8.65 -10.05&#10;Q 9.35 -9.3 9.4 -8.25&#10;L 9.4 -8&#10;Q 9.35 -7 8.65 -6.25 8 -5.45 7 -5.45 6 -5.45 5.2 -6.25 4.6 -7 4.55 -8&#10;L 4.55 -8.35&#10;Q 4.6 -9.3 5.2 -10.05 6 -10.85 7 -10.85 8 -10.85 8.65 -10.05 Z"/>

<path fill="#3C3E41" stroke="none" d="&#10;M -10.45 -8.25&#10;L -10.45 -8&#10;Q -10.4 -7 -9.75 -6.25 -9.05 -5.45 -8.05 -5.45 -7 -5.45 -6.3 -6.25 -5.65 -7 -5.6 -8&#10;L -5.6 -8.25&#10;Q -5.65 -9.3 -6.3 -10.05 -7 -10.85 -8.05 -10.85 -9.05 -10.85 -9.75 -10.05 -10.4 -9.3 -10.45 -8.25&#10;M 9.4 -8.25&#10;Q 9.35 -9.3 8.65 -10.05 8 -10.85 7 -10.85 6 -10.85 5.2 -10.05 4.6 -9.3 4.55 -8.35&#10;L 4.55 -8&#10;Q 4.6 -7 5.2 -6.25 6 -5.45 7 -5.45 8 -5.45 8.65 -6.25 9.35 -7 9.4 -8&#10;L 9.4 -8.25 Z"/>
</g><g id="head_0_Layer0_3_MEMBER_0_FILL">
<path fill="#3C3E41" stroke="none" d="&#10;M -3.4 -11.3&#10;L -3.2 -14.15 -14 -14.65 -14.15 -11.8 -3.4 -11.3&#10;M 2.9 -14.15&#10;L 3.1 -11.3 13.85 -11.8 13.7 -14.65 2.9 -14.15 Z"/>
</g><g id="head_0_Layer0_3_MEMBER_1_FILL">
<path fill="#3C3E41" stroke="none" d="&#10;M -0.7 -3.3&#10;Q -4.25 -3.3 -6.7 -1.85 -9 -0.55 -9.3 1.25 -9.4 1.5 -9.3 1.8 -9.2 2.05 -9 2.25 -8.8 2.45 -8.5 2.5 -4.2 3.15 -0.4 1.5 3.35 3.15 7.7 2.5 8 2.45 8.2 2.25 8.4 2.05 8.5 1.8 8.6 1.5 8.55 1.25 8.2 -0.55 5.9 -1.85 3.4 -3.3 -0.1 -3.3 -0.25 -3.3 -0.4 -3.3 -0.55 -3.3 -0.7 -3.3 Z"/>
</g><g id="head_0_Layer0_3_MEMBER_2_FILL">
<path fill="#955435" stroke="none" d="&#10;M 2.1 -3.4&#10;Q 3.1 -4.1 3.1 -5.05 3.1 -5.95 2.1 -6.7 1.1 -7.35 -0.35 -7.35 -1.75 -7.35 -2.75 -6.7 -3.75 -5.95 -3.75 -5.05 -3.75 -4.1 -2.75 -3.4 -1.75 -2.65 -0.35 -2.65 1.1 -2.65 2.1 -3.4 Z"/>
</g><g id="head_0_Layer0_4_FILL">
<path fill="#3C3E41" stroke="none" d="&#10;M -20.6 -23.3&#10;L -20.65 -23.3&#10;Q -21.65 -23.15 -22.3 -22.3 -22.95 -21.55 -22.8 -20.55&#10;L -20.9 -4.55&#10;Q -20.8 -3.6 -20 -2.9 -19.2 -2.3 -18.2 -2.45&#10;L -18.15 -2.45&#10;Q -17.15 -2.55 -16.55 -3.35 -15.95 -4.15 -16.05 -5.2&#10;L -17.95 -21.1&#10;Q -18.1 -22.15 -18.9 -22.75 -19.65 -23.35 -20.6 -23.3&#10;M 17.9 -22.75&#10;Q 17.15 -22.15 17 -21.1&#10;L 15.1 -5.2&#10;Q 15 -4.15 15.6 -3.35 16.2 -2.55 17.2 -2.45&#10;L 17.25 -2.45&#10;Q 18.2 -2.3 19 -2.9 19.85 -3.6 19.95 -4.55&#10;L 21.85 -20.55&#10;Q 22 -21.55 21.35 -22.3 20.7 -23.15 19.7 -23.3&#10;L 19.65 -23.3&#10;Q 18.65 -23.35 17.9 -22.75 Z"/>
</g><g id="head_0_Layer0_5_FILL">
<path fill="#3C3E41" stroke="none" d="&#10;M 14.65 -19.9&#10;Q 21.05 -21.95 21.05 -24.65 21.05 -27.3 14.65 -29 8.35 -30.7 -0.7 -30.45 -9.65 -30.15 -16.05 -28.1 -22.4 -26 -22.4 -23.35 -22.4 -20.65 -16.05 -19 -9.65 -17.25 -0.7 -17.55 8.35 -17.8 14.65 -19.9 Z"/>
</g><radialGradient id="gradient-1" gradientUnits="userSpaceOnUse" cx="0" cy="0" r="13.5875" fx="0" fy="0" gradientTransform="matrix( 1, 0, 0, 1, 0,0) " spreadMethod="pad">
<stop offset="0%" stop-color="#000000" stop-opacity="0.30196078431372547"/>

<stop offset="100%" stop-color="#000000" stop-opacity="0"/>
</radialGradient><filter id="filter-1" x="-20%" y="-20%" width="140%" height="140%" color-interpolation-filters="sRGB">
<feFlood flood-color="#000000" flood-opacity="1" in="SourceGraphic" result="result1"/>

<feComposite in2="SourceGraphic" in="result1" operator="in" result="result2"/>

<feColorMatrix in="SourceGraphic" type="matrix" values="0 0 0 0 255 0 0 0 0 255 0 0 0 0 255 0 0 0 255 0" result="result3"/>

<feOffset dx="-1.4695761589768238e-15" dy="-8" in="SourceGraphic" result="result4"/>

<feGaussianBlur in="result4" stdDeviation="3.3333333333333335,3.3333333333333335" result="result5"/>

<feComposite in2="result5" in="result2" operator="out" result="result6"/>

<feOffset dx="-1.4695761589768238e-15" dy="-8" in="result3" result="result7"/>

<feComposite in2="result3" in="result7" operator="in" result="result8"/>

<feComposite in2="result8" in="SourceGraphic" operator="in" result="result9"/>

<feBlend mode="normal" in2="result9" in="result6" result="result10"/>

<feComposite in2="result3" in="result10" operator="in" result="result11"/>

<feFlood flood-color="#FFFFFF" flood-opacity="1" in="result11" result="result12"/>

<feFlood flood-color="#000000" flood-opacity="1" in="result11" result="result13"/>

<feComposite in2="result11" in="result13" operator="in" result="result14"/>

<feColorMatrix in="result14" type="matrix" values="0 0 0 0 255 0 0 0 0 255 0 0 0 0 255 0 0 0 255 0" result="result15"/>

<feComposite in2="result11" in="result12" operator="in" result="result16"/>

<feGaussianBlur in="result14" stdDeviation="1.3333333333333333,1.3333333333333333" result="result17"/>

<feComposite in2="result17" in="result16" operator="out" result="result18"/>

<feBlend mode="normal" in2="result11" in="result18" result="result19"/>

<feComposite in2="result15" in="result19" operator="in" result="result20"/>
</filter><g id="Symbol_1_0_Layer0_0_MEMBER_0_FILL">
<path fill="#454A51" stroke="none" d="&#10;M -16.4 -34.65&#10;L -20.1 -34.85&#10;Q -20.7 -34.9 -21.2 -34.45 -21.7 -34 -21.75 -33.35 -22.1 -26.3 -27.35 -20.95 -27.8 -20.6 -27.8 -19.95 -27.85 -19.25 -27.45 -18.8&#10;L -27.45 -18.75&#10;Q -27.4 -18.8 -27.35 -18.85 -19.6 -25.6 -16.95 -33.7 -16.8 -34.2 -16.4 -34.65 Z"/>

<path fill="#3C3E41" stroke="none" d="&#10;M -5.95 -34.05&#10;L -16.4 -34.65&#10;Q -16.8 -34.2 -16.95 -33.7 -19.6 -25.6 -27.35 -18.85 -27.4 -18.8 -27.45 -18.75 -27 -18.3 -26.4 -18.2 -9.9 -16.45 -4.5 -31.85 -4.35 -32.4 -4.45 -32.85 -4.6 -33.35 -5 -33.65 -5.45 -34.05 -5.95 -34.05 Z"/>
</g><g id="Symbol_1_0_Layer0_0_MEMBER_1_FILL">
<path fill="#3C3E41" stroke="none" d="&#10;M 17 -33.7&#10;Q 16.85 -34.2 16.45 -34.65&#10;L 6 -34.05&#10;Q 5.5 -34.05 5.05 -33.65 4.65 -33.35 4.5 -32.85 4.4 -32.4 4.55 -31.85 9.95 -16.45 26.45 -18.2 27.05 -18.3 27.5 -18.75 27.45 -18.8 27.4 -18.85 19.65 -25.6 17 -33.7 Z"/>

<path fill="#454A51" stroke="none" d="&#10;M 21.8 -33.35&#10;Q 21.75 -34 21.25 -34.45 20.75 -34.9 20.15 -34.85&#10;L 16.45 -34.65&#10;Q 16.85 -34.2 17 -33.7 19.65 -25.6 27.4 -18.85 27.45 -18.8 27.5 -18.75&#10;L 27.5 -18.8&#10;Q 27.9 -19.25 27.85 -19.95 27.85 -20.6 27.4 -20.95 22.15 -26.3 21.8 -33.35 Z"/>
</g><g id="g-1">
<path fill="#BF7958" stroke="none" d="&#10;M 4.85 17.35&#10;Q 5.5 20.9 5.75 22.85 6 24.8 8.15 25 10.2 25.15 11.8 23.8 13.4 22.45 13.6 20.45 14 16 12.95 11.9&#10;L 4.2 15.15&#10;Q 4.65 16.3 4.85 17.35 Z"/>

<path fill="#3DBF7B" stroke="none" d="&#10;M 0.3 8.75&#10;Q 1.55 10.4 2.5 11.9&#10;L 11.6 8.05&#10;Q 10.7 6 9.4 4 6.8 0 2.6 -3.7 1 -5.1 -1.1 -5 -3.25 -4.9 -4.6 -3.35 -6.1 -1.9 -6 0.2 -5.9 2.25 -4.3 3.6 -1.5 6.1 0.3 8.75 Z"/>

<path fill="#25A863" stroke="none" d="&#10;M 12.95 11.9&#10;L 14 11.45 12.9 7.5 11.6 8.05 2.5 11.9 1.6 12.25 2.9 15.65 4.2 15.15 12.95 11.9 Z"/>
</g><g id="g-2">
<path fill="#FFFFFF" stroke="none" d="&#10;M 10.9 23&#10;L 11 20 -3.95 20 -3.95 23 10.9 23 Z"/>

<path fill="#BFD4E5" stroke="none" d="&#10;M 11 20&#10;Q 6.15 18.65 5.25 14&#10;L -3.95 14 -3.95 20 11 20 Z"/>

<path fill="#BF7958" stroke="none" d="&#10;M 5.25 14&#10;L 5.3 14 5.45 9 -3.95 9 -3.95 14 5.25 14 Z"/>

<path fill="#676AC6" stroke="none" d="&#10;M 5.9 -0.2&#10;Q 5.9 -2.6 4 -4.3 2.15 -6 -0.55 -6 -3.2 -6 -5.1 -4.3 -7 -2.6 -7 -0.2 -4.05 2.2 -3.95 9&#10;L 5.45 9 5.9 -0.2 Z"/>
</g><g id="g-3">
<path fill="#BFD4E5" stroke="none" d="&#10;M 16 20.05&#10;Q 11.00703125 18.1201171875 11.5 13.25&#10;L -0.3 11.6 -1.5 17.4 16 20.05 Z"/>

<path fill="#FFFFFF" stroke="none" d="&#10;M 15.45 23&#10;L 16 20.05 -1.5 17.4 -2.05 20.35 15.45 23 Z"/>

<path fill="#676AC6" stroke="none" d="&#10;M 0.1 7.85&#10;L 11.05 6.7&#10;Q 9.3 -0.85 2 -5.15 -0.15 -6.45 -2.55 -5.8 -4.9 -5.2 -6.15 -3.1 -7.2177734375 -1.2634765625 -6.95 0.75 -0.4001953125 3.128125 0.1 7.85 Z"/>

<path fill="#BF7958" stroke="none" d="&#10;M 11.5 13.25&#10;Q 11.65 9.7 11.05 6.7&#10;L 0.1 7.85&#10;Q 0.2998046875 9.5787109375 -0.3 11.6&#10;L 11.5 13.25 Z"/>
</g><g id="bodyBack_0_Layer0_0_FILL">
<path fill="#BF7958" stroke="none" d="&#10;M 7.05 -15.75&#10;Q 9.75 -18.05 10.05 -21.25 10.05 -21.4 10.05 -21.55 10.1 -21.8 10.1 -22.05 10.1 -25.75 7.05 -28.45 3.9 -31 -0.5 -31 -4.9 -31 -8.05 -28.45 -11.1 -25.75 -11.1 -22.05 -11.1 -21.8 -11.05 -21.55 -11.05 -21.35 -11 -21.15 -10.75 -18 -8.05 -15.75 -4.9 -13.1 -0.5 -13.1 3.9 -13.1 7.05 -15.75 Z"/>
</g><g id="bodyBack_0_Layer0_1_FILL">
<path fill="#25A863" stroke="none" d="&#10;M -13.9 -1.5&#10;L -10.95 -1.5&#10;Q -10.2 -5.75 -15.5 -9.5&#10;L -15.3 -8.7&#10;Q -14.25 -5.35 -13.9 -1.5&#10;M 14.3 -8.7&#10;L 14.5 -9.5&#10;Q 9.2 -5.75 10 -1.5&#10;L 12.95 -1.5&#10;Q 13.3 -5.35 14.3 -8.7 Z"/>

<path fill="#676AC6" stroke="none" d="&#10;M 12.15 8&#10;Q 12.8 5.6 12.75 3.45&#10;L -13.75 3.45&#10;Q -13.8 5.6 -13.15 8&#10;L 12.15 8 Z"/>

<path fill="#3C3E41" stroke="none" d="&#10;M 14.1 -1.5&#10;L 12.95 -1.5 10 -1.5 -10.95 -1.5 -13.9 -1.5 -15.05 -1.5 -14.3 3.45 -13.75 3.45 12.75 3.45 13.35 3.45 14.1 -1.5 Z"/>

<path fill="#3DBF7B" stroke="none" d="&#10;M 15.65 -21.1&#10;Q 15.4 -21.1 15.15 -21.1&#10;L -16.15 -21.1&#10;Q -19.8 -21.3 -18.75 -15.85 -16.55 -12.7 -15.3 -8.7&#10;L -15.5 -9.5&#10;Q -10.2 -5.75 -10.95 -1.5&#10;L 10 -1.5&#10;Q 9.2 -5.75 14.5 -9.5&#10;L 14.3 -8.7&#10;Q 15.55 -12.7 17.75 -15.85 18.75 -20.9 15.65 -21.1 Z"/>
</g><g id="g-4">
<path fill="#A8603F" stroke="none" d="&#10;M -8.35 7.6&#10;L -8.4 6.65&#10;Q -7.9 0.45 -3.8 -3 -13.2 3.55 -8.4 7.65&#10;L -8.35 7.6 Z"/>

<path fill="#BF7958" stroke="none" d="&#10;M 4.2 -3&#10;L -3.8 -3&#10;Q -7.9 0.45 -8.4 6.65&#10;L -8.35 7.6 -8.4 7.65&#10;Q -8.45 9.3 -8.4 11.2&#10;L -8.4 11.55&#10;Q -8.4 13 -6.35 13.4 -3.25 14.05 -0.35 14 7.05 13.95 4.2 -3 Z"/>
</g><g id="g-5">
<path fill="#676AC6" stroke="none" d="&#10;M -13.75 3.45&#10;Q -13.8 5.6 -13.15 8&#10;L 12.15 8&#10;Q 12.8 5.6 12.75 3.45&#10;L -13.75 3.45 Z"/>

<path fill="#25A863" stroke="none" d="&#10;M -13.9 -1.5&#10;L -10.95 -1.5&#10;Q -10.2 -5.75 -15.5 -9.5&#10;L -15.3 -8.7&#10;Q -14.25 -5.35 -13.9 -1.5&#10;M 14.3 -8.7&#10;L 14.5 -9.5&#10;Q 9.2 -5.75 10 -1.5&#10;L 12.95 -1.5&#10;Q 13.3 -5.35 14.3 -8.7&#10;M 9.45 -9.1&#10;Q 9.45 -9.95 6.6 -10.6 3.65 -11.1 -0.5 -11.1 -4.65 -11.1 -7.6 -10.6 -10.45 -9.95 -10.45 -9.1 -10.45 -8.25 -7.6 -7.75 -4.65 -7.1 -0.5 -7.1 3.65 -7.1 6.6 -7.75 9.45 -8.25 9.45 -9.1 Z"/>

<path fill="#3C3E41" stroke="none" d="&#10;M 14.1 -1.5&#10;L 12.95 -1.5 10 -1.5 -10.95 -1.5 -13.9 -1.5 -15.05 -1.5 -14.3 3.45 -13.75 3.45 12.75 3.45 13.35 3.45 14.1 -1.5 Z"/>

<path fill="#3DBF7B" stroke="none" d="&#10;M 17.75 -15.85&#10;Q 18.75 -20.9 15.65 -21.1 15.4 -21.1 15.15 -21.1&#10;L -16.15 -21.1&#10;Q -19.8 -21.3 -18.75 -15.85 -16.55 -12.7 -15.3 -8.7&#10;L -15.5 -9.5&#10;Q -10.2 -5.75 -10.95 -1.5&#10;L 10 -1.5&#10;Q 9.2 -5.75 14.5 -9.5&#10;L 14.3 -8.7&#10;Q 15.55 -12.7 17.75 -15.85&#10;M 6.6 -10.6&#10;Q 9.45 -9.95 9.45 -9.1 9.45 -8.25 6.6 -7.75 3.65 -7.1 -0.5 -7.1 -4.65 -7.1 -7.6 -7.75 -10.45 -8.25 -10.45 -9.1 -10.45 -9.95 -7.6 -10.6 -4.65 -11.1 -0.5 -11.1 3.65 -11.1 6.6 -10.6 Z"/>
</g><g id="body_0_Layer0_1_FILL">
<path fill="#FFFFFF" stroke="none" d="&#10;M 10.05 -21.25&#10;Q 9.75 -18.05 7.05 -15.75 3.9 -13.1 -0.5 -13.1 -4.9 -13.1 -8.05 -15.75 -10.75 -18 -11 -21.15 -11.55 -19.9 -11.55 -18.55 -11.55 -18.3 -11.5 -18.05 -11.35 -14.95 -8.35 -12.8 -5.1 -10.35 -0.5 -10.35 4.1 -10.35 7.4 -12.8 10.4 -14.95 10.55 -18.05 10.6 -18.3 10.6 -18.55 10.6 -19.95 10.05 -21.25 Z"/>

<path fill="#BF7958" stroke="none" d="&#10;M 10.1 -22.05&#10;Q 10.1 -25.75 7.05 -28.45 3.9 -31 -0.5 -31 -4.9 -31 -8.05 -28.45 -11.1 -25.75 -11.1 -22.05 -11.1 -21.8 -11.05 -21.55 -11.05 -21.35 -11 -21.15 -10.75 -18 -8.05 -15.75 -4.9 -13.1 -0.5 -13.1 3.9 -13.1 7.05 -15.75 9.75 -18.05 10.05 -21.25 10.05 -21.4 10.05 -21.55 10.1 -21.8 10.1 -22.05 Z"/>
</g><g id="g-6">
<path fill="#3C3E41" stroke="none" d="&#10;M 23.75 -18.55&#10;Q 23.2 -25.75 16.55 -31 9.3 -36.75 -0.95 -36.75 -11.2 -36.75 -18.45 -31 -25.05 -25.75 -25.6 -18.55 -25.05 -10.4 -18.45 -4.5 -11.2 2 -0.95 2 9.3 2 16.55 -4.5 23.2 -10.4 23.75 -18.55 Z"/>

<path fill="#454A51" stroke="none" d="&#10;M 23.8 -20&#10;Q 23.8 -29.1 16.55 -35.6 9.3 -42 -0.95 -42 -11.2 -42 -18.45 -35.6 -25.65 -29.1 -25.65 -20 -25.65 -19.25 -25.6 -18.55 -25.05 -25.75 -18.45 -31 -11.2 -36.75 -0.95 -36.75 9.3 -36.75 16.55 -31 23.2 -25.75 23.75 -18.55 23.8 -19.25 23.8 -20 Z"/>
</g><g id="g-7">
<path fill="#BF7958" stroke="none" d="&#10;M -24.65 -16.95&#10;Q -27 -14.6 -27 -11.2 -27 -7.9 -24.65 -5.55 -22.3 -3.1 -19 -3.1 -15.75 -3.1 -13.35 -5.55 -11 -7.9 -11 -11.2 -11 -14.6 -13.35 -16.95 -15.75 -19.35 -19 -19.35 -22.3 -19.35 -24.65 -16.95&#10;M -22.4 -7.8&#10;Q -23.8 -9.2 -23.8 -11.2 -23.8 -13.15 -22.4 -14.7 -21 -16.1 -19 -16.1 -16.95 -16.1 -15.6 -14.7 -14.2 -13.15 -14.2 -11.2 -14.2 -9.2 -15.6 -7.8 -16.95 -6.35 -19 -6.35 -21 -6.35 -22.4 -7.8&#10;M 12.35 -5.55&#10;Q 14.7 -3.1 18 -3.1 21.25 -3.1 23.65 -5.55 26 -7.9 26 -11.2 26 -14.6 23.65 -16.95 21.25 -19.35 18 -19.35 14.7 -19.35 12.35 -16.95 10 -14.6 10 -11.2 10 -7.9 12.35 -5.55&#10;M 14.6 -14.7&#10;Q 16 -16.1 18 -16.1 20 -16.1 21.4 -14.7 22.8 -13.15 22.8 -11.2 22.8 -9.2 21.4 -7.8 20 -6.35 18 -6.35 16 -6.35 14.6 -7.8 13.2 -9.2 13.2 -11.2 13.2 -13.15 14.6 -14.7 Z"/>

<path fill="#A8603F" stroke="none" d="&#10;M -23.8 -11.2&#10;Q -23.8 -9.2 -22.4 -7.8 -21 -6.35 -19 -6.35 -16.95 -6.35 -15.6 -7.8 -14.2 -9.2 -14.2 -11.2 -14.2 -13.15 -15.6 -14.7 -16.95 -16.1 -19 -16.1 -21 -16.1 -22.4 -14.7 -23.8 -13.15 -23.8 -11.2&#10;M 18 -16.1&#10;Q 16 -16.1 14.6 -14.7 13.2 -13.15 13.2 -11.2 13.2 -9.2 14.6 -7.8 16 -6.35 18 -6.35 20 -6.35 21.4 -7.8 22.8 -9.2 22.8 -11.2 22.8 -13.15 21.4 -14.7 20 -16.1 18 -16.1 Z"/>
</g><g id="g-8">
<path fill="#BF7958" stroke="none" d="&#10;M 18.1 -3.65&#10;L 20.4 -26.2 -21.45 -26.2 -19.15 -3.65&#10;Q -17.1 3.75 -8.75 6.65 -4.55 8.1 -0.55 8 3.5 8.1 7.65 6.65 16.05 3.75 18.1 -3.65 Z"/>
</g><g id="g-9">
<path fill="#3C3E41" stroke="none" d="&#10;M -13.1 -9.2&#10;Q -13.1 -9.4 -13.1 -9.55 -13.1 -11.3 -11.95 -12.55 -11 -13.55 -9.65 -13.8&#10;L -15.4 -13.8&#10;Q -13.3 -12.15 -13.1 -9.2&#10;M -6.45 -7.05&#10;Q -5.75 -8.05 -5.75 -9.55 -5.75 -11 -6.45 -12.05 -7.15 -13.1 -8.2 -13.1 -9.2 -13.1 -9.85 -12.05 -10.55 -11 -10.55 -9.55 -10.55 -8.05 -9.85 -7.05 -9.2 -6 -8.2 -6 -7.15 -6 -6.45 -7.05&#10;M 12.05 -9.55&#10;Q 12.05 -9.4 12.05 -9.2 12.25 -12.15 14.3 -13.8&#10;L 8.6 -13.8&#10;Q 9.95 -13.55 10.9 -12.55 12.05 -11.3 12.05 -9.55&#10;M 4.7 -9.55&#10;Q 4.7 -8.05 5.4 -7.05 6.05 -6 7.1 -6 8.1 -6 8.8 -7.05 9.5 -8.05 9.5 -9.55 9.5 -11 8.8 -12.05 8.1 -13.1 7.1 -13.1 6.05 -13.1 5.4 -12.05 4.7 -11 4.7 -9.55 Z"/>

<path fill="#FFFFFF" stroke="none" d="&#10;M -9.25 -13.85&#10;Q -9.45 -13.85 -9.65 -13.8 -11 -13.55 -11.95 -12.55 -13.1 -11.3 -13.1 -9.55 -13.1 -9.4 -13.1 -9.2 -13 -7.7 -11.95 -6.55 -10.75 -5.25 -9 -5.25 -7.3 -5.25 -6.15 -6.55 -4.95 -7.8 -4.95 -9.55 -4.95 -11.3 -6.15 -12.55 -7.3 -13.85 -9 -13.85 -9.15 -13.85 -9.25 -13.85&#10;M -5.75 -9.55&#10;Q -5.75 -8.05 -6.45 -7.05 -7.15 -6 -8.2 -6 -9.2 -6 -9.85 -7.05 -10.55 -8.05 -10.55 -9.55 -10.55 -11 -9.85 -12.05 -9.2 -13.1 -8.2 -13.1 -7.15 -13.1 -6.45 -12.05 -5.75 -11 -5.75 -9.55&#10;M 8.6 -13.8&#10;Q 8.4 -13.85 8.2 -13.85 8.05 -13.85 7.9 -13.85 6.2 -13.85 5.1 -12.55 3.9 -11.3 3.9 -9.55 3.9 -7.8 5.1 -6.55 6.2 -5.25 7.9 -5.25 9.7 -5.25 10.9 -6.55 11.95 -7.7 12.05 -9.2 12.05 -9.4 12.05 -9.55 12.05 -11.3 10.9 -12.55 9.95 -13.55 8.6 -13.8&#10;M 5.4 -7.05&#10;Q 4.7 -8.05 4.7 -9.55 4.7 -11 5.4 -12.05 6.05 -13.1 7.1 -13.1 8.1 -13.1 8.8 -12.05 9.5 -11 9.5 -9.55 9.5 -8.05 8.8 -7.05 8.1 -6 7.1 -6 6.05 -6 5.4 -7.05 Z"/>
</g><g id="g-10">
<path fill="#955435" stroke="none" d="&#10;M 8.5 -1.2&#10;Q 5.65 -3.6 2.85 -2.8 0.05 -2.1 -1.1 1.35&#10;L 8.5 -1.2 Z"/>
</g><g id="g-11">
<path fill="#955435" stroke="none" d="&#10;M 1.85 -4.85&#10;Q 2.9 -5.55 2.9 -6.45 2.9 -7.35 1.85 -8.1 0.85 -8.75 -0.6 -8.75 -1.95 -8.75 -2.95 -8.1 -3.95 -7.35 -3.95 -6.45 -3.95 -5.55 -2.95 -4.85 -1.95 -4.1 -0.6 -4.1 0.85 -4.1 1.85 -4.85 Z"/>
</g><g id="headFocus_0_Layer0_6_FILL">
<path fill="#3C3E41" stroke="none" d="&#10;M 20.05 -17.65&#10;L 21.05 -26.05 20.5 -26.05 20.5 -26.9 -22.2 -26.9 -21.55 -19.25&#10;Q -10.8 -19.45 -5.65 -23.35 -0.45 -16.9 5.4 -16.75&#10;L 6.85 -19.85&#10;Q 13.6 -17.35 20.05 -17.65 Z"/>
</g><g id="headFocus_0_Layer0_7_FILL">
<path fill="#71A2BE" stroke="none" d="&#10;M 17.1 -26.95&#10;Q 16.3 -28.05 15.1 -29.1 9.55 -33.8 -0.5 -33.8 -10.55 -33.8 -16.05 -29.15 -16.45 -28.9 -16.7 -28.55 -17.55 -27.85 -18.1 -26.95 -18.7 -26.15 -18.25 -25 -11.8 -28.7 -0.5 -28.7 10.7 -28.7 17.2 -25.05 17.65 -26.15 17.1 -26.95 Z"/>
</g><g id="headFocus_0_Layer0_8_FILL">
<path fill="#3C3E41" stroke="none" d="&#10;M -16.6 -12.55&#10;Q -16 -13.35 -16.1 -14.4&#10;L -16.75 -20.05 -21.7 -20.05 -20.95 -13.8&#10;Q -20.85 -12.8 -20 -12.1 -19.2 -11.5 -18.2 -11.65&#10;L -18.15 -11.65&#10;Q -17.15 -11.75 -16.6 -12.55 Z"/>
</g><g id="headFocus_0_Layer0_9_FILL">
<path fill="#3C3E41" stroke="none" d="&#10;M 14.85 -14.4&#10;Q 14.75 -13.35 15.35 -12.55 15.95 -11.75 16.95 -11.65&#10;L 17 -11.65&#10;Q 18 -11.5 18.8 -12.1 19.65 -12.8 19.75 -13.8&#10;L 20.5 -20.05 15.5 -20.05 14.85 -14.4 Z"/>
</g><g id="headFocus_0_Layer0_10_MEMBER_0_FILL">
<path fill="#3C3E41" stroke="none" d="&#10;M 13.4 -14.9&#10;L 12.8 -17.25 3.5 -15.9 4.05 -13.95 13.4 -14.9 Z"/>
</g><g id="headFocus_0_Layer0_10_MEMBER_1_FILL">
<path fill="#3C3E41" stroke="none" d="&#10;M -13.3 -17.25&#10;L -14.2 -14.95 -4.9 -13.05 -4.15 -15 -13.3 -17.25 Z"/>
</g><g id="headFocus_0_Layer0_11_FILL">
<path fill="#EEA160" stroke="none" d="&#10;M 19.85 -7.8&#10;Q 19.45 -7.1 19.65 -6.4&#10;L 20.65 -2.55&#10;Q 20.85 -1.85 21.5 -1.45 22.15 -1.1 22.9 -1.3&#10;L 22.95 -1.3&#10;Q 23.65 -1.5 24.05 -2.15 24.45 -2.85 24.25 -3.6&#10;L 23.25 -7.4&#10;Q 23.05 -8.1 22.35 -8.5 21.65 -8.85 21 -8.65&#10;L 20.95 -8.65&#10;Q 20.2 -8.45 19.85 -7.8 Z"/>
</g><g id="headFocus_0_Layer0_12_FILL">
<path fill="#EEA160" stroke="none" d="&#10;M -20.8 -7.8&#10;Q -21.15 -8.45 -21.9 -8.65&#10;L -21.95 -8.65&#10;Q -22.65 -8.85 -23.35 -8.5 -24.05 -8.1 -24.25 -7.4&#10;L -25.2 -3.6&#10;Q -25.4 -2.85 -25 -2.15 -24.6 -1.5 -23.95 -1.3&#10;L -23.9 -1.3&#10;Q -23.15 -1.1 -22.5 -1.45 -21.8 -1.85 -21.6 -2.55&#10;L -20.6 -6.4&#10;Q -20.4 -7.1 -20.8 -7.8 Z"/>
</g><g id="g-12">
<path fill="#3C3E41" stroke="none" d="&#10;M 23.75 -18.55&#10;Q 23.2 -25.75 16.55 -31 9.3 -36.75 -0.95 -36.75 -11.2 -36.75 -18.45 -31 -25.05 -25.75 -25.6 -18.55 -25.05 -10.4 -18.45 -4.5 -11.2 2 -0.95 2 9.3 2 16.55 -4.5 23.2 -10.4 23.75 -18.55 Z"/>

<path fill="#454A51" stroke="none" d="&#10;M 23.8 -20&#10;Q 23.8 -29.1 16.55 -35.6 9.3 -42 -0.95 -42 -11.2 -42 -18.45 -35.6 -25.65 -29.1 -25.65 -20 -25.65 -19.25 -25.6 -18.55 -25.05 -25.75 -18.45 -31 -11.2 -36.75 -0.95 -36.75 9.3 -36.75 16.55 -31 23.2 -25.75 23.75 -18.55 23.8 -19.25 23.8 -20 Z"/>
</g><g id="headShock_0_Layer0_1_MEMBER_0_FILL">
<path fill="#BF7958" stroke="none" d="&#10;M -27 -11.2&#10;Q -27 -7.9 -24.65 -5.55 -22.3 -3.1 -19 -3.1 -15.75 -3.1 -13.35 -5.55 -11 -7.9 -11 -11.2 -11 -14.6 -13.35 -16.95 -15.75 -19.35 -19 -19.35 -22.3 -19.35 -24.65 -16.95 -27 -14.6 -27 -11.2&#10;M -23.8 -11.2&#10;Q -23.8 -13.15 -22.4 -14.7 -21 -16.1 -19 -16.1 -16.95 -16.1 -15.6 -14.7 -14.2 -13.15 -14.2 -11.2 -14.2 -9.2 -15.6 -7.8 -16.95 -6.35 -19 -6.35 -21 -6.35 -22.4 -7.8 -23.8 -9.2 -23.8 -11.2&#10;M 18 -19.35&#10;Q 14.7 -19.35 12.35 -16.95 10 -14.6 10 -11.2 10 -7.9 12.35 -5.55 14.7 -3.1 18 -3.1 21.25 -3.1 23.65 -5.55 26 -7.9 26 -11.2 26 -14.6 23.65 -16.95 21.25 -19.35 18 -19.35&#10;M 18 -6.35&#10;Q 16 -6.35 14.6 -7.8 13.2 -9.2 13.2 -11.2 13.2 -13.15 14.6 -14.7 16 -16.1 18 -16.1 20 -16.1 21.4 -14.7 22.8 -13.15 22.8 -11.2 22.8 -9.2 21.4 -7.8 20 -6.35 18 -6.35 Z"/>

<path fill="#A8603F" stroke="none" d="&#10;M -22.4 -14.7&#10;Q -23.8 -13.15 -23.8 -11.2 -23.8 -9.2 -22.4 -7.8 -21 -6.35 -19 -6.35 -16.95 -6.35 -15.6 -7.8 -14.2 -9.2 -14.2 -11.2 -14.2 -13.15 -15.6 -14.7 -16.95 -16.1 -19 -16.1 -21 -16.1 -22.4 -14.7&#10;M 14.6 -7.8&#10;Q 16 -6.35 18 -6.35 20 -6.35 21.4 -7.8 22.8 -9.2 22.8 -11.2 22.8 -13.15 21.4 -14.7 20 -16.1 18 -16.1 16 -16.1 14.6 -14.7 13.2 -13.15 13.2 -11.2 13.2 -9.2 14.6 -7.8 Z"/>
</g><g id="headShock_0_Layer0_1_MEMBER_1_FILL">
<path fill="#BF7958" stroke="none" d="&#10;M 18.1 -3.65&#10;L 20.4 -26.2 -21.45 -26.2 -19.15 -3.65&#10;Q -17.1 3.75 -8.75 6.65 -4.55 8.1 -0.55 8 3.5 8.1 7.65 6.65 16.05 3.75 18.1 -3.65 Z"/>
</g><g id="headShock_0_Layer0_1_MEMBER_2_FILL">
<path fill="#955435" stroke="none" d="&#10;M 1.85 -4.85&#10;Q 2.9 -5.55 2.9 -6.45 2.9 -7.35 1.85 -8.1 0.85 -8.75 -0.6 -8.75 -1.95 -8.75 -2.95 -8.1 -3.95 -7.35 -3.95 -6.45 -3.95 -5.55 -2.95 -4.85 -1.95 -4.1 -0.6 -4.1 0.85 -4.1 1.85 -4.85 Z"/>
</g><g id="headShock_0_Layer0_1_MEMBER_2_MEMBER_0_FILL">
<path fill="#3C3E41" stroke="none" d="&#10;M -13.1 -9.2&#10;Q -13.1 -9.4 -13.1 -9.55 -13.1 -11.3 -11.95 -12.55 -11 -13.55 -9.65 -13.8&#10;L -15.4 -13.8&#10;Q -13.3 -12.15 -13.1 -9.2&#10;M -6.45 -7.05&#10;Q -5.75 -8.05 -5.75 -9.55 -5.75 -11 -6.45 -12.05 -7.15 -13.1 -8.2 -13.1 -9.2 -13.1 -9.85 -12.05 -10.55 -11 -10.55 -9.55 -10.55 -8.05 -9.85 -7.05 -9.2 -6 -8.2 -6 -7.15 -6 -6.45 -7.05&#10;M 12.05 -9.55&#10;Q 12.05 -9.4 12.05 -9.2 12.25 -12.15 14.3 -13.8&#10;L 8.6 -13.8&#10;Q 9.95 -13.55 10.9 -12.55 12.05 -11.3 12.05 -9.55&#10;M 4.7 -9.55&#10;Q 4.7 -8.05 5.4 -7.05 6.05 -6 7.1 -6 8.1 -6 8.8 -7.05 9.5 -8.05 9.5 -9.55 9.5 -11 8.8 -12.05 8.1 -13.1 7.1 -13.1 6.05 -13.1 5.4 -12.05 4.7 -11 4.7 -9.55 Z"/>

<path fill="#FFFFFF" stroke="none" d="&#10;M -9.25 -13.85&#10;Q -9.45 -13.85 -9.65 -13.8 -11 -13.55 -11.95 -12.55 -13.1 -11.3 -13.1 -9.55 -13.1 -9.4 -13.1 -9.2 -13 -7.7 -11.95 -6.55 -10.75 -5.25 -9 -5.25 -7.3 -5.25 -6.15 -6.55 -4.95 -7.8 -4.95 -9.55 -4.95 -11.3 -6.15 -12.55 -7.3 -13.85 -9 -13.85 -9.15 -13.85 -9.25 -13.85&#10;M -5.75 -9.55&#10;Q -5.75 -8.05 -6.45 -7.05 -7.15 -6 -8.2 -6 -9.2 -6 -9.85 -7.05 -10.55 -8.05 -10.55 -9.55 -10.55 -11 -9.85 -12.05 -9.2 -13.1 -8.2 -13.1 -7.15 -13.1 -6.45 -12.05 -5.75 -11 -5.75 -9.55&#10;M 8.6 -13.8&#10;Q 8.4 -13.85 8.2 -13.85 8.05 -13.85 7.9 -13.85 6.2 -13.85 5.1 -12.55 3.9 -11.3 3.9 -9.55 3.9 -7.8 5.1 -6.55 6.2 -5.25 7.9 -5.25 9.7 -5.25 10.9 -6.55 11.95 -7.7 12.05 -9.2 12.05 -9.4 12.05 -9.55 12.05 -11.3 10.9 -12.55 9.95 -13.55 8.6 -13.8&#10;M 5.4 -7.05&#10;Q 4.7 -8.05 4.7 -9.55 4.7 -11 5.4 -12.05 6.05 -13.1 7.1 -13.1 8.1 -13.1 8.8 -12.05 9.5 -11 9.5 -9.55 9.5 -8.05 8.8 -7.05 8.1 -6 7.1 -6 6.05 -6 5.4 -7.05 Z"/>
</g><g id="headShock_0_Layer0_1_MEMBER_2_MEMBER_1_FILL">
<path fill="#A8603F" stroke="none" d="&#10;M -0.5 -2&#10;Q -2 -2 -3 -1 -4 0.05 -4 1.5 -4 3 -3 4 -2 5 -0.5 5 0.95 5 1.95 4 3 3 3 1.5 3 0.05 1.95 -1 0.95 -2 -0.5 -2 Z"/>
</g><g id="g-13">
<path fill="#3C3E41" stroke="none" d="&#10;M 20.05 -17.65&#10;L 21.05 -26.05 20.5 -26.05 20.5 -26.9 -22.2 -26.9 -21.55 -19.25&#10;Q -10.8 -19.45 -5.65 -23.35 -0.45 -16.9 5.4 -16.75&#10;L 6.85 -19.85&#10;Q 13.6 -17.35 20.05 -17.65 Z"/>
</g><g id="g-14">
<path fill="#71A2BE" stroke="none" d="&#10;M 17.1 -26.95&#10;Q 16.3 -28.05 15.1 -29.1 9.55 -33.8 -0.5 -33.8 -10.55 -33.8 -16.05 -29.15 -16.45 -28.9 -16.7 -28.55 -17.55 -27.85 -18.1 -26.95 -18.7 -26.15 -18.25 -25 -11.8 -28.7 -0.5 -28.7 10.7 -28.7 17.2 -25.05 17.65 -26.15 17.1 -26.95 Z"/>
</g><g id="g-15">
<path fill="#3C3E41" stroke="none" d="&#10;M -16.6 -12.55&#10;Q -16 -13.35 -16.1 -14.4&#10;L -16.75 -20.05 -21.7 -20.05 -20.95 -13.8&#10;Q -20.85 -12.8 -20 -12.1 -19.2 -11.5 -18.2 -11.65&#10;L -18.15 -11.65&#10;Q -17.15 -11.75 -16.6 -12.55 Z"/>
</g><g id="g-16">
<path fill="#3C3E41" stroke="none" d="&#10;M 14.85 -14.4&#10;Q 14.75 -13.35 15.35 -12.55 15.95 -11.75 16.95 -11.65&#10;L 17 -11.65&#10;Q 18 -11.5 18.8 -12.1 19.65 -12.8 19.75 -13.8&#10;L 20.5 -20.05 15.5 -20.05 14.85 -14.4 Z"/>
</g><g id="headShock_0_Layer0_6_FILL">
<path fill="#3C3E41" stroke="none" d="&#10;M -15.3 -19.6&#10;L -15.3 -17.15 -5.95 -18.65 -5.95 -20.7 -15.3 -19.6&#10;M 13.6 -15.4&#10;L 13.6 -17.85 4.3 -18.95 4.3 -16.9 13.6 -15.4 Z"/>
</g><g id="headShock_0_Layer0_7_FILL">
<path fill="#EEA160" stroke="none" d="&#10;M 19.85 -7.8&#10;Q 19.45 -7.1 19.65 -6.4&#10;L 20.65 -2.55&#10;Q 20.85 -1.85 21.5 -1.45 22.15 -1.1 22.9 -1.3&#10;L 22.95 -1.3&#10;Q 23.65 -1.5 24.05 -2.15 24.45 -2.85 24.25 -3.6&#10;L 23.25 -7.4&#10;Q 23.05 -8.1 22.35 -8.5 21.65 -8.85 21 -8.65&#10;L 20.95 -8.65&#10;Q 20.2 -8.45 19.85 -7.8 Z"/>
</g><g id="headShock_0_Layer0_8_FILL">
<path fill="#EEA160" stroke="none" d="&#10;M -20.8 -7.8&#10;Q -21.15 -8.45 -21.9 -8.65&#10;L -21.95 -8.65&#10;Q -22.65 -8.85 -23.35 -8.5 -24.05 -8.1 -24.25 -7.4&#10;L -25.2 -3.6&#10;Q -25.4 -2.85 -25 -2.15 -24.6 -1.5 -23.95 -1.3&#10;L -23.9 -1.3&#10;Q -23.15 -1.1 -22.5 -1.45 -21.8 -1.85 -21.6 -2.55&#10;L -20.6 -6.4&#10;Q -20.4 -7.1 -20.8 -7.8 Z"/>
</g><g id="headBack_0_Layer0_0_MEMBER_0_FILL">
<path fill="#BF7958" stroke="none" d="&#10;M -24.65 -16.95&#10;Q -27 -14.6 -27 -11.2 -27 -7.9 -24.65 -5.55 -22.3 -3.1 -19 -3.1 -15.75 -3.1 -13.35 -5.55 -11 -7.9 -11 -11.2 -11 -14.6 -13.35 -16.95 -15.75 -19.35 -19 -19.35 -22.3 -19.35 -24.65 -16.95&#10;M -22.4 -7.8&#10;Q -23.8 -9.2 -23.8 -11.2 -23.8 -13.15 -22.4 -14.7 -21 -16.1 -19 -16.1 -16.95 -16.1 -15.6 -14.7 -14.2 -13.15 -14.2 -11.2 -14.2 -9.2 -15.6 -7.8 -16.95 -6.35 -19 -6.35 -21 -6.35 -22.4 -7.8&#10;M 12.35 -5.55&#10;Q 14.7 -3.1 18 -3.1 21.25 -3.1 23.65 -5.55 26 -7.9 26 -11.2 26 -14.6 23.65 -16.95 21.25 -19.35 18 -19.35 14.7 -19.35 12.35 -16.95 10 -14.6 10 -11.2 10 -7.9 12.35 -5.55&#10;M 14.6 -14.7&#10;Q 16 -16.1 18 -16.1 20 -16.1 21.4 -14.7 22.8 -13.15 22.8 -11.2 22.8 -9.2 21.4 -7.8 20 -6.35 18 -6.35 16 -6.35 14.6 -7.8 13.2 -9.2 13.2 -11.2 13.2 -13.15 14.6 -14.7 Z"/>

<path fill="#A8603F" stroke="none" d="&#10;M -23.8 -11.2&#10;Q -23.8 -9.2 -22.4 -7.8 -21 -6.35 -19 -6.35 -16.95 -6.35 -15.6 -7.8 -14.2 -9.2 -14.2 -11.2 -14.2 -13.15 -15.6 -14.7 -16.95 -16.1 -19 -16.1 -21 -16.1 -22.4 -14.7 -23.8 -13.15 -23.8 -11.2&#10;M 18 -16.1&#10;Q 16 -16.1 14.6 -14.7 13.2 -13.15 13.2 -11.2 13.2 -9.2 14.6 -7.8 16 -6.35 18 -6.35 20 -6.35 21.4 -7.8 22.8 -9.2 22.8 -11.2 22.8 -13.15 21.4 -14.7 20 -16.1 18 -16.1 Z"/>
</g><g id="headBack_0_Layer0_0_MEMBER_1_FILL">
<path fill="#BF7958" stroke="none" d="&#10;M 18.1 -3.65&#10;L 20.4 -26.2 -21.45 -26.2 -19.15 -3.65&#10;Q -17.1 3.75 -8.75 6.65 -4.55 8.1 -0.55 8 3.5 8.1 7.65 6.65 16.05 3.75 18.1 -3.65 Z"/>
</g><g id="g-17">
<path fill="#EEA160" stroke="none" d="&#10;M 19.85 -7.8&#10;Q 19.45 -7.1 19.65 -6.4&#10;L 20.65 -2.55&#10;Q 20.85 -1.85 21.5 -1.45 22.15 -1.1 22.9 -1.3&#10;L 22.95 -1.3&#10;Q 23.65 -1.5 24.05 -2.15 24.45 -2.85 24.25 -3.6&#10;L 23.25 -7.4&#10;Q 23.05 -8.1 22.35 -8.5 21.65 -8.85 21 -8.65&#10;L 20.95 -8.65&#10;Q 20.2 -8.45 19.85 -7.8 Z"/>
</g><g id="g-18">
<path fill="#EEA160" stroke="none" d="&#10;M -20.8 -7.8&#10;Q -21.15 -8.45 -21.9 -8.65&#10;L -21.95 -8.65&#10;Q -22.65 -8.85 -23.35 -8.5 -24.05 -8.1 -24.25 -7.4&#10;L -25.2 -3.6&#10;Q -25.4 -2.85 -25 -2.15 -24.6 -1.5 -23.95 -1.3&#10;L -23.9 -1.3&#10;Q -23.15 -1.1 -22.5 -1.45 -21.8 -1.85 -21.6 -2.55&#10;L -20.6 -6.4&#10;Q -20.4 -7.1 -20.8 -7.8 Z"/>
</g><g id="headBack_0_Layer0_3_FILL">
<path fill="#454A51" stroke="none" d="&#10;M -25 -14.85&#10;L -23.65 -9&#10;Q -22.007421875 -3.2017578125 -23.35 1.8 -24.7138671875 5.900390625 -28.05 9.3 -28.5 9.65 -28.5 10.3 -28.55 11 -28.15 11.45&#10;L -28.15 11.5&#10;Q -28.1 11.45 -28.05 11.4 -20.3 4.65 -17.65 -3.45 -17.608203125 -3.589453125 -17.55 -3.75 -17.9875 -4.0865234375 -18.45 -4.5&#10;L -18.45 -4.5&#10;Q -23.4857421875 -9.0017578125 -25 -14.85&#10;M 23.75 -18.55&#10;Q 23.8 -19.25 23.8 -20 23.8 -29.1 16.55 -35.6 9.3 -42 -0.95 -42 -11.2 -42 -18.45 -35.6 -25.65 -29.1 -25.65 -20 -25.65 -19.25 -25.6 -18.55 -25.05 -25.75 -18.45 -31 -11.2 -36.75 -0.95 -36.75 9.3 -36.75 16.55 -31 23.2 -25.75 23.75 -18.55&#10;M 16.55 -4.5&#10;Q 16.5162109375 -4.4697265625 16.45 -4.45 16.248046875 -4.247265625 16 -4.05 16.20703125 -3.76015625 16.3 -3.45 18.95 4.65 26.7 11.4 26.75 11.45 26.8 11.5&#10;L 26.8 11.45&#10;Q 27.2 11 27.15 10.3 27.15 9.65 26.7 9.3 24.130859375 6.68203125 22.7 3.65 20.81484375 -1.2734375 21.8 -7.9&#10;L 22.5 -12.8&#10;Q 20.7193359375 -8.1990234375 16.55 -4.5 Z"/>

<path fill="#3C3E41" stroke="none" d="&#10;M 16.45 -4.45&#10;Q 16.5162109375 -4.4697265625 16.55 -4.5 20.7193359375 -8.1990234375 22.5 -12.8 23.544921875 -15.509765625 23.75 -18.55 23.2 -25.75 16.55 -31 9.3 -36.75 -0.95 -36.75 -11.2 -36.75 -18.45 -31 -25.05 -25.75 -25.6 -18.55 -25.4697265625 -16.618359375 -25 -14.85 -23.4857421875 -9.0017578125 -18.45 -4.5&#10;L -18.45 -4.5&#10;Q -17.9875 -4.0865234375 -17.55 -3.75 -17.608203125 -3.589453125 -17.65 -3.45 -20.3 4.65 -28.05 11.4 -28.1 11.45 -28.15 11.5 -27.7 11.95 -27.1 12.05 -12.3576171875 13.613671875 -0.95 2 10.9451171875 13.6201171875 25.75 12.05 26.35 11.95 26.8 11.5 26.75 11.45 26.7 11.4 18.95 4.65 16.3 -3.45 16.20703125 -3.76015625 16 -4.05 16.248046875 -4.247265625 16.45 -4.45 Z"/>
</g><g id="g-19">
<path fill="#3C3E41" stroke="none" d="&#10;M 23.75 -18.55&#10;Q 23.2 -25.75 16.55 -31 9.3 -36.75 -0.95 -36.75 -11.2 -36.75 -18.45 -31 -25.05 -25.75 -25.6 -18.55 -25.05 -10.4 -18.45 -4.5 -11.2 2 -0.95 2 9.3 2 16.55 -4.5 23.2 -10.4 23.75 -18.55 Z"/>

<path fill="#454A51" stroke="none" d="&#10;M 23.8 -20&#10;Q 23.8 -29.1 16.55 -35.6 9.3 -42 -0.95 -42 -11.2 -42 -18.45 -35.6 -25.65 -29.1 -25.65 -20 -25.65 -19.25 -25.6 -18.55 -25.05 -25.75 -18.45 -31 -11.2 -36.75 -0.95 -36.75 9.3 -36.75 16.55 -31 23.2 -25.75 23.75 -18.55 23.8 -19.25 23.8 -20 Z"/>
</g><g id="head_0_Layer0_1_MEMBER_0_FILL">
<path fill="#BF7958" stroke="none" d="&#10;M -24.65 -16.95&#10;Q -27 -14.6 -27 -11.2 -27 -7.9 -24.65 -5.55 -22.3 -3.1 -19 -3.1 -15.75 -3.1 -13.35 -5.55 -11 -7.9 -11 -11.2 -11 -14.6 -13.35 -16.95 -15.75 -19.35 -19 -19.35 -22.3 -19.35 -24.65 -16.95&#10;M -22.4 -7.8&#10;Q -23.8 -9.2 -23.8 -11.2 -23.8 -13.15 -22.4 -14.7 -21 -16.1 -19 -16.1 -16.95 -16.1 -15.6 -14.7 -14.2 -13.15 -14.2 -11.2 -14.2 -9.2 -15.6 -7.8 -16.95 -6.35 -19 -6.35 -21 -6.35 -22.4 -7.8&#10;M 12.35 -5.55&#10;Q 14.7 -3.1 18 -3.1 21.25 -3.1 23.65 -5.55 26 -7.9 26 -11.2 26 -14.6 23.65 -16.95 21.25 -19.35 18 -19.35 14.7 -19.35 12.35 -16.95 10 -14.6 10 -11.2 10 -7.9 12.35 -5.55&#10;M 14.6 -14.7&#10;Q 16 -16.1 18 -16.1 20 -16.1 21.4 -14.7 22.8 -13.15 22.8 -11.2 22.8 -9.2 21.4 -7.8 20 -6.35 18 -6.35 16 -6.35 14.6 -7.8 13.2 -9.2 13.2 -11.2 13.2 -13.15 14.6 -14.7 Z"/>

<path fill="#A8603F" stroke="none" d="&#10;M -23.8 -11.2&#10;Q -23.8 -9.2 -22.4 -7.8 -21 -6.35 -19 -6.35 -16.95 -6.35 -15.6 -7.8 -14.2 -9.2 -14.2 -11.2 -14.2 -13.15 -15.6 -14.7 -16.95 -16.1 -19 -16.1 -21 -16.1 -22.4 -14.7 -23.8 -13.15 -23.8 -11.2&#10;M 18 -16.1&#10;Q 16 -16.1 14.6 -14.7 13.2 -13.15 13.2 -11.2 13.2 -9.2 14.6 -7.8 16 -6.35 18 -6.35 20 -6.35 21.4 -7.8 22.8 -9.2 22.8 -11.2 22.8 -13.15 21.4 -14.7 20 -16.1 18 -16.1 Z"/>
</g><g id="head_0_Layer0_1_MEMBER_1_FILL">
<path fill="#BF7958" stroke="none" d="&#10;M 18.1 -3.65&#10;L 20.4 -26.2 -21.45 -26.2 -19.15 -3.65&#10;Q -17.1 3.75 -8.75 6.65 -4.55 8.1 -0.55 8 3.5 8.1 7.65 6.65 16.05 3.75 18.1 -3.65 Z"/>
</g><g id="head_0_Layer0_1_MEMBER_2_FILL">
<path fill="#955435" stroke="none" d="&#10;M 1.85 -4.85&#10;Q 2.9 -5.55 2.9 -6.45 2.9 -7.35 1.85 -8.1 0.85 -8.75 -0.6 -8.75 -1.95 -8.75 -2.95 -8.1 -3.95 -7.35 -3.95 -6.45 -3.95 -5.55 -2.95 -4.85 -1.95 -4.05 -0.6 -4.05 0.85 -4.05 1.85 -4.85 Z"/>
</g><g id="head_0_Layer0_1_MEMBER_2_MEMBER_0_FILL">
<path fill="#3C3E41" stroke="none" d="&#10;M -13.1 -9.2&#10;Q -13.1 -9.4 -13.1 -9.55 -13.1 -11.3 -11.95 -12.55 -11 -13.55 -9.65 -13.8&#10;L -15.4 -13.8&#10;Q -13.3 -12.15 -13.1 -9.2&#10;M -6.45 -7.05&#10;Q -5.75 -8.05 -5.75 -9.55 -5.75 -11 -6.45 -12.05 -7.15 -13.1 -8.2 -13.1 -9.2 -13.1 -9.85 -12.05 -10.55 -11 -10.55 -9.55 -10.55 -8.05 -9.85 -7.05 -9.2 -6 -8.2 -6 -7.15 -6 -6.45 -7.05&#10;M 12.05 -9.55&#10;Q 12.05 -9.4 12.05 -9.2 12.25 -12.15 14.3 -13.8&#10;L 8.6 -13.8&#10;Q 9.95 -13.55 10.9 -12.55 12.05 -11.3 12.05 -9.55&#10;M 4.7 -9.55&#10;Q 4.7 -8.05 5.4 -7.05 6.05 -6 7.1 -6 8.1 -6 8.8 -7.05 9.5 -8.05 9.5 -9.55 9.5 -11 8.8 -12.05 8.1 -13.1 7.1 -13.1 6.05 -13.1 5.4 -12.05 4.7 -11 4.7 -9.55 Z"/>

<path fill="#FFFFFF" stroke="none" d="&#10;M -9.25 -13.85&#10;Q -9.45 -13.85 -9.65 -13.8 -11 -13.55 -11.95 -12.55 -13.1 -11.3 -13.1 -9.55 -13.1 -9.4 -13.1 -9.2 -13 -7.7 -11.95 -6.55 -10.75 -5.25 -9 -5.25 -7.3 -5.25 -6.15 -6.55 -4.95 -7.8 -4.95 -9.55 -4.95 -11.3 -6.15 -12.55 -7.3 -13.85 -9 -13.85 -9.15 -13.85 -9.25 -13.85&#10;M -5.75 -9.55&#10;Q -5.75 -8.05 -6.45 -7.05 -7.15 -6 -8.2 -6 -9.2 -6 -9.85 -7.05 -10.55 -8.05 -10.55 -9.55 -10.55 -11 -9.85 -12.05 -9.2 -13.1 -8.2 -13.1 -7.15 -13.1 -6.45 -12.05 -5.75 -11 -5.75 -9.55&#10;M 8.6 -13.8&#10;Q 8.4 -13.85 8.2 -13.85 8.05 -13.85 7.9 -13.85 6.2 -13.85 5.1 -12.55 3.9 -11.3 3.9 -9.55 3.9 -7.8 5.1 -6.55 6.2 -5.25 7.9 -5.25 9.7 -5.25 10.9 -6.55 11.95 -7.7 12.05 -9.2 12.05 -9.4 12.05 -9.55 12.05 -11.3 10.9 -12.55 9.95 -13.55 8.6 -13.8&#10;M 5.4 -7.05&#10;Q 4.7 -8.05 4.7 -9.55 4.7 -11 5.4 -12.05 6.05 -13.1 7.1 -13.1 8.1 -13.1 8.8 -12.05 9.5 -11 9.5 -9.55 9.5 -8.05 8.8 -7.05 8.1 -6 7.1 -6 6.05 -6 5.4 -7.05 Z"/>
</g><g id="head_0_Layer0_1_MEMBER_2_MEMBER_1_FILL">
<path fill="#FFFFFF" stroke="none" d="&#10;M 1.75 1.2&#10;L 1.75 -2 -5.9 -2&#10;Q -6.25 -2 -6.55 -1.75 -6.9 -1.6 -6.95 -1.25 -7.05 -1 -6.95 -0.6 -6.9 -0.1 -6.6 0.45 -6.35 0.8 -6.05 1.2&#10;L 1.75 1.2 Z"/>

<path fill="#A8603F" stroke="none" d="&#10;M 4.9 -2&#10;L 1.75 -2 1.75 1.2 -6.05 1.2&#10;Q -5.75 1.75 -5.25 2.1 -3.3 4 -0.5 4 2.2 4 4.2 2.15&#10;L 4.3 2.1&#10;Q 5.05 1.4 5.55 0.45 5.85 -0.1 6 -0.6 6.05 -1 5.95 -1.25 5.85 -1.6 5.55 -1.75 5.25 -2 4.9 -2 Z"/>
</g><g id="g-20">
<path fill="#3C3E41" stroke="none" d="&#10;M 20.05 -17.65&#10;L 21.05 -26.05 20.5 -26.05 20.5 -26.9 -22.2 -26.9 -21.55 -19.25&#10;Q -10.8 -19.45 -5.65 -23.35 -0.45 -16.9 5.4 -16.75&#10;L 6.85 -19.85&#10;Q 13.6 -17.35 20.05 -17.65 Z"/>
</g><g id="g-21">
<path fill="#71A2BE" stroke="none" d="&#10;M 17.1 -26.95&#10;Q 16.3 -28.05 15.1 -29.1 9.55 -33.8 -0.5 -33.8 -10.55 -33.8 -16.05 -29.15 -16.45 -28.9 -16.7 -28.55 -17.55 -27.85 -18.1 -26.95 -18.7 -26.15 -18.25 -25 -11.8 -28.7 -0.5 -28.7 10.7 -28.7 17.2 -25.05 17.65 -26.15 17.1 -26.95 Z"/>
</g><g id="g-22">
<path fill="#3C3E41" stroke="none" d="&#10;M -16.6 -12.55&#10;Q -16 -13.35 -16.1 -14.4&#10;L -16.75 -20.05 -21.7 -20.05 -20.95 -13.8&#10;Q -20.85 -12.8 -20 -12.1 -19.2 -11.5 -18.2 -11.65&#10;L -18.15 -11.65&#10;Q -17.15 -11.75 -16.6 -12.55 Z"/>
</g><g id="g-23">
<path fill="#3C3E41" stroke="none" d="&#10;M 14.85 -14.4&#10;Q 14.75 -13.35 15.35 -12.55 15.95 -11.75 16.95 -11.65&#10;L 17 -11.65&#10;Q 18 -11.5 18.8 -12.1 19.65 -12.8 19.75 -13.8&#10;L 20.5 -20.05 15.5 -20.05 14.85 -14.4 Z"/>
</g><g id="head_0_Layer0_6_MEMBER_0_FILL">
<path fill="#3C3E41" stroke="none" d="&#10;M -14.35 -18.35&#10;L -15 -15.95 -5.55 -15 -5 -17 -14.35 -18.35 Z"/>
</g><g id="head_0_Layer0_6_MEMBER_1_FILL">
<path fill="#3C3E41" stroke="none" d="&#10;M 14 -15.8&#10;L 13.6 -18.2 4.25 -17.75 4.6 -15.7 14 -15.8 Z"/>
</g><g id="head_0_Layer0_7_FILL">
<path fill="#EEA160" stroke="none" d="&#10;M 19.85 -7.8&#10;Q 19.45 -7.1 19.65 -6.4&#10;L 20.65 -2.55&#10;Q 20.85 -1.85 21.5 -1.45 22.15 -1.1 22.9 -1.3&#10;L 22.95 -1.3&#10;Q 23.65 -1.5 24.05 -2.15 24.45 -2.85 24.25 -3.6&#10;L 23.25 -7.4&#10;Q 23.05 -8.1 22.35 -8.5 21.65 -8.85 21 -8.65&#10;L 20.95 -8.65&#10;Q 20.2 -8.45 19.85 -7.8 Z"/>
</g><g id="head_0_Layer0_8_FILL">
<path fill="#EEA160" stroke="none" d="&#10;M -20.8 -7.8&#10;Q -21.15 -8.45 -21.9 -8.65&#10;L -21.95 -8.65&#10;Q -22.65 -8.85 -23.35 -8.5 -24.05 -8.1 -24.25 -7.4&#10;L -25.2 -3.6&#10;Q -25.4 -2.85 -25 -2.15 -24.6 -1.5 -23.95 -1.3&#10;L -23.9 -1.3&#10;Q -23.15 -1.1 -22.5 -1.45 -21.8 -1.85 -21.6 -2.55&#10;L -20.6 -6.4&#10;Q -20.4 -7.1 -20.8 -7.8 Z"/>
</g><radialGradient id="gradient-2" gradientUnits="userSpaceOnUse" cx="0" cy="0" r="13.5875" fx="0" fy="0" gradientTransform="matrix( 1, 0, 0, 1, 0,0) " spreadMethod="pad">
<stop offset="0%" stop-color="#000000" stop-opacity="0.30196078431372547"/>

<stop offset="100%" stop-color="#000000" stop-opacity="0"/>
</radialGradient><filter id="filter-2" x="-20%" y="-20%" width="140%" height="140%" color-interpolation-filters="sRGB">
<feFlood flood-color="#000000" flood-opacity="1" in="SourceGraphic" result="result1"/>

<feComposite in2="SourceGraphic" in="result1" operator="in" result="result2"/>

<feColorMatrix in="SourceGraphic" type="matrix" values="0 0 0 0 255 0 0 0 0 255 0 0 0 0 255 0 0 0 255 0" result="result3"/>

<feOffset dx="-1.4695761589768238e-15" dy="-8" in="SourceGraphic" result="result4"/>

<feGaussianBlur in="result4" stdDeviation="3.3333333333333335,3.3333333333333335" result="result5"/>

<feComposite in2="result5" in="result2" operator="out" result="result6"/>

<feOffset dx="-1.4695761589768238e-15" dy="-8" in="result3" result="result7"/>

<feComposite in2="result3" in="result7" operator="in" result="result8"/>

<feComposite in2="result8" in="SourceGraphic" operator="in" result="result9"/>

<feBlend mode="normal" in2="result9" in="result6" result="result10"/>

<feComposite in2="result3" in="result10" operator="in" result="result11"/>

<feFlood flood-color="#FFFFFF" flood-opacity="1" in="result11" result="result12"/>

<feFlood flood-color="#000000" flood-opacity="1" in="result11" result="result13"/>

<feComposite in2="result11" in="result13" operator="in" result="result14"/>

<feColorMatrix in="result14" type="matrix" values="0 0 0 0 255 0 0 0 0 255 0 0 0 0 255 0 0 0 255 0" result="result15"/>

<feComposite in2="result11" in="result12" operator="in" result="result16"/>

<feGaussianBlur in="result14" stdDeviation="1.3333333333333333,1.3333333333333333" result="result17"/>

<feComposite in2="result17" in="result16" operator="out" result="result18"/>

<feBlend mode="normal" in2="result11" in="result18" result="result19"/>

<feComposite in2="result15" in="result19" operator="in" result="result20"/>
</filter><g id="g-24">
<path fill="#477CA6" stroke="none" d="&#10;M 6.4 14.7&#10;Q 5.0919921875 14.7 3.95 14.2 4.691796875 17.0095703125 4.8 20.2 4.85 21.8 6.15 22.95 7.35 24.05 9.05 24 10.75 23.95 11.95 22.75 13.05 21.5 13 19.9 12.827734375 15.3490234375 11.7 11.4 11.2982421875 12.324609375 10.5 13.1 8.8 14.7 6.4 14.7&#10;M 6.4 3.45&#10;Q 7.432421875 3.45 8.3 3.75 5.392578125 -0.84921875 0.6 -4.2 -0.8 -5.2 -2.5 -4.95 -4.2 -4.7 -5.15 -3.4 -6.2 -2.1 -5.95 -0.45 -5.65 1.15 -4.3 2.15 -1.20390625 4.37421875 0.85 7.3 1.2525390625 6.0974609375 2.25 5.1 4 3.45 6.4 3.45&#10;M 5.05 7.1&#10;Q 4.85 7.3 4.7 7.55 4.25 8.2 4.25 9.05 4.25 10.2 5.05 11 5.9 11.8 7.1 11.8 8 11.8 8.7 11.4 8.9 11.2 9.1 11 9.5 10.65 9.7 10.35 10 9.75 10 9.05 10 7.9 9.1 7.1 8.3 6.3 7.1 6.3 6.35 6.3 5.8 6.6 5.4 6.8 5.05 7.1 Z"/>

<path fill="#334E63" stroke="none" d="&#10;M 11.7 11.4&#10;Q 12.25 10.3509765625 12.25 9.1 12.25 6.8 10.5 5.1 9.53125 4.159765625 8.3 3.75 7.432421875 3.45 6.4 3.45 4 3.45 2.25 5.1 1.2525390625 6.0974609375 0.85 7.3 0.55 8.1494140625 0.55 9.1 0.55 11.4 2.25 13.1 3.0462890625 13.8279296875 3.95 14.2 5.0919921875 14.7 6.4 14.7 8.8 14.7 10.5 13.1 11.2982421875 12.324609375 11.7 11.4&#10;M 4.7 7.55&#10;Q 4.85 7.3 5.05 7.1 5.4 6.8 5.8 6.6 6.35 6.3 7.1 6.3 8.3 6.3 9.1 7.1 10 7.9 10 9.05 10 9.75 9.7 10.35 9.5 10.65 9.1 11 8.9 11.2 8.7 11.4 8 11.8 7.1 11.8 5.9 11.8 5.05 11 4.25 10.2 4.25 9.05 4.25 8.2 4.7 7.55 Z"/>
</g><g id="g-25">
<path fill="#334E63" stroke="none" d="&#10;M 11 20&#10;L 5.25 14 -0.55 14 -0.55 9.65&#10;Q -0.55 8.4 -1.45 7.5 -2.35 6.6 -3.6 6.6&#10;L -3.65 6.6&#10;Q -4.9 6.6 -5.8 7.5 -6.25 7.95 -6.5 8.5 -6.7 9.05 -6.7 9.65&#10;L -7 23 10.9 23 11 20&#10;M -3.6 8.35&#10;Q -3 8.35 -2.55 8.8 -2.1 9.25 -2.1 9.85 -2.1 10.45 -2.55 10.9 -3 11.35 -3.6 11.35 -4.2 11.35 -4.65 10.9 -5.1 10.45 -5.1 9.85 -5.1 9.25 -4.65 8.8 -4.2 8.35 -3.6 8.35 Z"/>

<path fill="#477CA6" stroke="none" d="&#10;M -2.55 8.8&#10;Q -3 8.35 -3.6 8.35 -4.2 8.35 -4.65 8.8 -5.1 9.25 -5.1 9.85 -5.1 10.45 -4.65 10.9 -4.2 11.35 -3.6 11.35 -3 11.35 -2.55 10.9 -2.1 10.45 -2.1 9.85 -2.1 9.25 -2.55 8.8&#10;M 5.9 -0.2&#10;Q 5.9 -2.6 4 -4.3 2.15 -6 -0.55 -6 -3.2 -6 -5.1 -4.3 -7 -2.6 -7 -0.2&#10;L -6.5 8.5&#10;Q -6.25 7.95 -5.8 7.5 -4.9 6.6 -3.65 6.6&#10;L -3.6 6.6&#10;Q -2.35 6.6 -1.45 7.5 -0.55 8.4 -0.55 9.65&#10;L -0.55 14 5.25 14 5.3 14 5.9 -0.2 Z"/>
</g><g id="g-26">
<path fill="#334E63" stroke="none" d="&#10;M 3.65 4.8&#10;L 3.6 4.8&#10;Q 2.35 4.65 1.35 5.45 0.85 5.85 0.55 6.4 0.3 6.9 0.25 7.5&#10;L -0.3 11.45 -2.05 20.35 15.45 23 16 20.05 11.5 13.25 5.85 12.45 6.35 8.2&#10;Q 6.45 6.95 5.65 5.95 4.9 4.95 3.65 4.8&#10;M 4.75 8.2&#10;Q 4.7 8.8 4.25 9.2 3.75 9.55 3.15 9.5 2.55 9.45 2.15 9 1.75 8.5 1.8 7.9 1.85 7.3 2.4 6.9 2.9 6.5 3.5 6.55 4.1 6.6 4.5 7.1 4.8 7.6 4.75 8.2 Z"/>

<path fill="#477CA6" stroke="none" d="&#10;M 4.25 9.2&#10;Q 4.7 8.8 4.75 8.2 4.8 7.6 4.5 7.1 4.1 6.6 3.5 6.55 2.9 6.5 2.4 6.9 1.85 7.3 1.8 7.9 1.75 8.5 2.15 9 2.55 9.45 3.15 9.5 3.75 9.55 4.25 9.2&#10;M -2.55 -5.8&#10;Q -4.9 -5.2 -6.15 -3.1 -7.4 -0.95 -6.8 1.45 -6.2 3.8 -4.05 5.1 -2.1 6.25 -1.15 8&#10;L -1.15 8.05&#10;Q -0.3744140625 9.5853515625 -0.3 11.45&#10;L 0.25 7.5&#10;Q 0.3 6.9 0.55 6.4 0.85 5.85 1.35 5.45 2.35 4.65 3.6 4.8&#10;L 3.65 4.8&#10;Q 4.9 4.95 5.65 5.95 6.45 6.95 6.35 8.2&#10;L 5.85 12.45 11.5 13.25&#10;Q 11.65 9.7 11.05 6.7 9.3 -0.85 2 -5.15 -0.15 -6.45 -2.55 -5.8 Z"/>
</g><g id="g-27">
<path fill="#334E63" stroke="none" d="&#10;M 14.4 2.75&#10;L 14.4 -2.25 -15.5 -2.25 -15.5 2.75 14.4 2.75 Z"/>

<path fill="#5393C5" stroke="none" d="&#10;M 12.9 8&#10;Q 14.3 6.05 14.4 2.75&#10;L -15.5 2.75&#10;Q -15.4 6.05 -14 8&#10;L 12.9 8 Z"/>

<path fill="#477CA6" stroke="none" d="&#10;M 10.1 -22&#10;Q 10.1 -25.75 7.05 -28.45 3.9 -31 -0.5 -31 -4.9 -31 -8.05 -28.45 -11.1 -25.75 -11.1 -22 -11.1 -21.75 -11.05 -21.5 -11.05 -21.35 -11 -21.25&#10;L -16.15 -21.25&#10;Q -19.8 -21.45 -18.75 -16&#10;L -15.5 -2.25 14.4 -2.25 17.65 -16&#10;Q 18.9 -21 15.4 -21.25&#10;L 10.05 -21.25&#10;Q 10.05 -21.35 10.05 -21.5 10.1 -21.75 10.1 -22 Z"/>
</g><g id="g-28">
<path fill="#334E63" stroke="none" d="&#10;M -12.95 -14.9&#10;Q -11 -16.8 -11 -19.5 -11 -22.2 -12.95 -24.1 -14.85 -26 -17.55 -26 -20.25 -26 -22.1 -24.1 -24 -22.2 -24 -19.5 -24 -16.8 -22.1 -14.9 -20.25 -13 -17.55 -13 -14.85 -13 -12.95 -14.9&#10;M 21.1 -14.9&#10;Q 23 -16.8 23 -19.5 23 -22.2 21.1 -24.1 19.2 -26 16.5 -26 13.8 -26 11.95 -24.1 10 -22.2 10 -19.5 10 -16.8 11.95 -14.9 13.8 -13 16.5 -13 19.2 -13 21.1 -14.9 Z"/>
</g><g id="g-29">
<path fill="#BFD4E5" stroke="none" d="&#10;M -1.15 10.65&#10;Q -1.25 10.55 -1.3 10.7 -1.4 10.85 -1.45 11.05&#10;L -1.45 14.55&#10;Q -1.45 14.7 -1.3 14.95 -1.2 15 -1.05 15 1.75 14.95 3.75 12.95&#10;L 3.8 12.95&#10;Q 5.9 10.85 6 7.85 6.05 4.8 4.05 2.7&#10;L 3.9 2.55&#10;Q 3.87265625 3.1056640625 3.7 3.65 3.190625 5.548828125 1.5 6.6 1.75 7.146875 1.75 7.75 1.65 8.9 0.95 9.75 0.9 9.75 0.8 9.8 0.05 10.6 -1.15 10.65&#10;M -5.7 -0.45&#10;Q -6.1146484375 -0.3587890625 -6.55 -0.25 -9.35 0.4 -10.95 3 -12.45 5.6 -11.8 8.5 -11.8 8.55 -11.8 8.6 -11.05 11.35 -8.7 12.85 -8.55 12.95 -8.4 12.95 -8.3 12.9 -8.25 12.75&#10;L -6.3 9.7&#10;Q -6.2 9.6 -6.2 9.5 -6.3 9.3 -6.4 9.2 -7.3 8.6 -7.6 7.5 -7.6 7.45 -7.6 7.4 -7.85 6.3 -7.25 5.3 -6.7638671875 4.5146484375 -6.05 4.15 -6.616796875 2.5091796875 -6.2 0.8 -6.0076171875 0.142578125 -5.7 -0.45 Z"/>

<path fill="#5393C5" stroke="none" d="&#10;M 3.25 -0.3&#10;Q 2.25 -2.15 0.2 -2.8 -1.8 -3.4 -3.75 -2.35 -5.0068359375 -1.602734375 -5.7 -0.45 -6.0076171875 0.142578125 -6.2 0.8 -6.616796875 2.5091796875 -6.05 4.15 -5.9078125 4.4759765625 -5.75 4.8 -4.7 6.65 -2.65 7.25 -0.6 7.8 1.25 6.8 1.390234375 6.7189453125 1.5 6.6 3.190625 5.548828125 3.7 3.65 3.87265625 3.1056640625 3.9 2.55 4.0580078125 1.0955078125 3.25 -0.3 Z"/>
</g><g id="g-30">
<path fill="#334E63" stroke="none" d="&#10;M -12.95 -14.9&#10;Q -11 -16.8 -11 -19.5 -11 -22.2 -12.95 -24.1 -14.85 -26 -17.55 -26 -20.25 -26 -22.1 -24.1 -24 -22.2 -24 -19.5 -24 -16.8 -22.1 -14.9 -20.25 -13 -17.55 -13 -14.85 -13 -12.95 -14.9&#10;M 21.1 -14.9&#10;Q 23 -16.8 23 -19.5 23 -22.2 21.1 -24.1 19.2 -26 16.5 -26 13.8 -26 11.95 -24.1 10 -22.2 10 -19.5 10 -16.8 11.95 -14.9 13.8 -13 16.5 -13 19.2 -13 21.1 -14.9 Z"/>
</g><g id="g-31">
<path fill="#5393C5" stroke="none" d="&#10;M 12.9 8&#10;Q 14.3 6.05 14.4 2.75&#10;L -15.5 2.75&#10;Q -15.4 6.05 -14 8&#10;L 12.9 8 Z"/>

<path fill="#334E63" stroke="none" d="&#10;M 7.75 -2.25&#10;Q 9.1 -4.45 9.1 -7.25 9.1 -11.25 6.3 -14.1 3.45 -16.95 -0.55 -16.95 -4.55 -16.95 -7.4 -14.1 -10.25 -11.25 -10.25 -7.25 -10.25 -4.45 -8.85 -2.25&#10;L -15.5 -2.25 -15.5 2.75 14.4 2.75 14.4 -2.25 7.75 -2.25&#10;M 4.5 -8.8&#10;L 2.85 -3.55&#10;Q 2.8 -3.35 2.6 -3.2 2.4 -3.05 2.15 -3.05&#10;L -3.1 -3.05&#10;Q -3.3 -3.05 -3.5 -3.2 -3.75 -3.35 -3.8 -3.55&#10;L -5.45 -8.8&#10;Q -5.5 -9.05 -5.45 -9.3 -5.35 -9.5 -5.15 -9.7&#10;L -0.85 -12.85&#10;Q -0.7 -13 -0.45 -13 -0.25 -13 0 -12.85&#10;L 4.25 -9.7&#10;Q 4.4 -9.5 4.5 -9.3 4.55 -9.05 4.5 -8.8 Z"/>

<path fill="#FF6699" stroke="none" d="&#10;M 2.85 -3.55&#10;L 4.5 -8.8&#10;Q 4.55 -9.05 4.5 -9.3 4.4 -9.5 4.25 -9.7&#10;L 0 -12.85&#10;Q -0.25 -13 -0.45 -13 -0.7 -13 -0.85 -12.85&#10;L -5.15 -9.7&#10;Q -5.35 -9.5 -5.45 -9.3 -5.5 -9.05 -5.45 -8.8&#10;L -3.8 -3.55&#10;Q -3.75 -3.35 -3.5 -3.2 -3.3 -3.05 -3.1 -3.05&#10;L 2.15 -3.05&#10;Q 2.4 -3.05 2.6 -3.2 2.8 -3.35 2.85 -3.55 Z"/>

<path fill="#477CA6" stroke="none" d="&#10;M 17.65 -16&#10;Q 18.9 -21 15.4 -21.25&#10;L 10.05 -21.25&#10;Q 10.05 -21.35 10.05 -21.5 10.1 -21.75 10.1 -22 10.1 -25.75 7.05 -28.45 3.9 -31 -0.5 -31 -4.9 -31 -8.05 -28.45 -11.1 -25.75 -11.1 -22 -11.1 -21.75 -11.05 -21.5 -11.05 -21.35 -11 -21.25&#10;L -16.15 -21.25&#10;Q -19.8 -21.45 -18.75 -16&#10;L -15.5 -2.25 -8.85 -2.25&#10;Q -10.25 -4.45 -10.25 -7.25 -10.25 -11.25 -7.4 -14.1 -4.55 -16.95 -0.55 -16.95 3.45 -16.95 6.3 -14.1 9.1 -11.25 9.1 -7.25 9.1 -4.45 7.75 -2.25&#10;L 14.4 -2.25 17.65 -16 Z"/>
</g><g id="g-32">
<path fill="#BFD4E5" stroke="none" d="&#10;M 11.85 -7.1&#10;Q 17 -12.2 17 -19.45 17 -26.7 11.85 -31.85 6.7 -37 -0.55 -37 -7.8 -37 -12.95 -31.85 -18.1 -26.7 -18.1 -19.45 -18.1 -12.2 -12.95 -7.1 -7.8 -1.9 -0.55 -1.9 6.7 -1.9 11.85 -7.1&#10;M 9.4 -19.45&#10;Q 9.4 -15.35 6.5 -12.45 3.55 -9.5 -0.55 -9.5 -4.65 -9.5 -7.55 -12.45 -10.5 -15.35 -10.5 -19.45 -10.5 -23.55 -7.55 -26.45 -4.65 -29.4 -0.55 -29.4 3.55 -29.4 6.5 -26.45 9.4 -23.55 9.4 -19.45 Z"/>

<path fill="#FFFFFF" stroke="none" d="&#10;M 6.5 -12.45&#10;Q 9.4 -15.35 9.4 -19.45 9.4 -23.55 6.5 -26.45 3.55 -29.4 -0.55 -29.4 -4.65 -29.4 -7.55 -26.45 -10.5 -23.55 -10.5 -19.45 -10.5 -15.35 -7.55 -12.45 -4.65 -9.5 -0.55 -9.5 3.55 -9.5 6.5 -12.45 Z"/>
</g><g id="g-33">
<path fill="#477CA6" stroke="none" d="&#10;M -16 -30.45&#10;Q -16.95 -29.9 -17.25 -28.8&#10;L -19.45 -20.6&#10;Q -19.75 -19.5 -19.2 -18.45 -18.55 -17.5 -17.45 -17.2&#10;L -17.4 -17.2&#10;Q -16.3 -16.9 -15.3 -17.4 -14.3 -18.05 -14 -19.15&#10;L -11.85 -27.35&#10;Q -11.55 -28.45 -12.15 -29.45 -12.7 -30.45 -13.75 -30.75&#10;L -13.8 -30.75&#10;Q -14.9 -31.05 -16 -30.45 Z"/>
</g><g id="g-34">
<path fill="#477CA6" stroke="none" d="&#10;M 16.3 -28.8&#10;Q 16 -29.9 15.05 -30.45 13.95 -31.05 12.85 -30.75&#10;L 12.8 -30.75&#10;Q 11.7 -30.45 11.15 -29.45 10.55 -28.45 10.85 -27.35&#10;L 13.05 -19.15&#10;Q 13.35 -18.05 14.35 -17.4 15.35 -16.9 16.45 -17.2&#10;L 16.5 -17.2&#10;Q 17.55 -17.5 18.2 -18.45 18.75 -19.5 18.45 -20.6&#10;L 16.3 -28.8 Z"/>
</g><g id="g-35">
<path fill="#5393C5" stroke="none" d="&#10;M -24.65 -11&#10;Q -27 -8.65 -27 -5.35 -27 -2.05 -24.65 0.25 -22.25 2.65 -19 2.65 -15.7 2.65 -13.3 0.25 -11 -2.05 -11 -5.35 -11 -8.65 -13.3 -11 -15.7 -13.4 -19 -13.4 -22.25 -13.4 -24.65 -11&#10;M -22.35 -1.95&#10;Q -23.75 -3.35 -23.75 -5.35 -23.75 -7.3 -22.35 -8.75 -20.95 -10.15 -19 -10.15 -16.95 -10.15 -15.55 -8.75 -14.15 -7.3 -14.15 -5.35 -14.15 -3.35 -15.55 -1.95 -16.95 -0.5 -19 -0.5 -20.95 -0.5 -22.35 -1.95&#10;M 18 -13.4&#10;Q 14.75 -13.4 12.35 -11 10 -8.65 10 -5.35 10 -2.05 12.35 0.25 14.75 2.65 18 2.65 21.3 2.65 23.7 0.25 26 -2.05 26 -5.35 26 -8.65 23.7 -11 21.3 -13.4 18 -13.4&#10;M 18 -0.5&#10;Q 16.05 -0.5 14.65 -1.95 13.2 -3.35 13.2 -5.35 13.2 -7.3 14.65 -8.75 16.05 -10.15 18 -10.15 20 -10.15 21.45 -8.75 22.85 -7.3 22.85 -5.35 22.85 -3.35 21.45 -1.95 20 -0.5 18 -0.5 Z"/>

<path fill="#477CA6" stroke="none" d="&#10;M -23.75 -5.35&#10;Q -23.75 -3.35 -22.35 -1.95 -20.95 -0.5 -19 -0.5 -16.95 -0.5 -15.55 -1.95 -14.15 -3.35 -14.15 -5.35 -14.15 -7.3 -15.55 -8.75 -16.95 -10.15 -19 -10.15 -20.95 -10.15 -22.35 -8.75 -23.75 -7.3 -23.75 -5.35&#10;M 14.65 -1.95&#10;Q 16.05 -0.5 18 -0.5 20 -0.5 21.45 -1.95 22.85 -3.35 22.85 -5.35 22.85 -7.3 21.45 -8.75 20 -10.15 18 -10.15 16.05 -10.15 14.65 -8.75 13.2 -7.3 13.2 -5.35 13.2 -3.35 14.65 -1.95 Z"/>
</g><g id="g-36">
<path fill="#334E63" stroke="none" d="&#10;M -18.2 8&#10;L -10.2 8&#10;Q -10.25 -1.8 -19.5 -4.7&#10;L -18.2 8&#10;M 11.7 8&#10;Q 17.05 7.3 17.8 2.3&#10;L 18.7 -6.45&#10;Q 9.65 -1.8 9.3 8&#10;L 11.7 8 Z"/>

<path fill="#5393C5" stroke="none" d="&#10;M 18.7 -6.45&#10;L 20.45 -23.35 -21.4 -23.35 -19.5 -4.7&#10;Q -10.25 -1.8 -10.2 8&#10;L 9.3 8&#10;Q 9.65 -1.8 18.7 -6.45 Z"/>
</g><g id="g-37">
<path fill="#477CA6" stroke="none" d="&#10;M 5.45 -4.6&#10;Q 7.8 -6.95 7.8 -10.25 7.8 -13.6 5.45 -15.9 3.1 -18.25 -0.2 -18.25 -3.55 -18.25 -5.85 -15.9 -8.2 -13.6 -8.2 -10.25 -8.2 -6.95 -5.85 -4.6 -3.55 -2.25 -0.2 -2.25 3.1 -2.25 5.45 -4.6&#10;M 5.15 -10.25&#10;Q 5.15 -8.05 3.55 -6.5 2 -4.9 -0.2 -4.9 -2.45 -4.9 -4.05 -6.5 -5.6 -8.05 -5.6 -10.25 -5.6 -12.5 -4.05 -14.1 -2.45 -15.6 -0.2 -15.6 2 -15.6 3.55 -14.1 5.15 -12.5 5.15 -10.25 Z"/>

<path fill="#FFCC00" stroke="none" d="&#10;M 3.55 -6.5&#10;Q 5.15 -8.05 5.15 -10.25 5.15 -12.5 3.55 -14.1 2 -15.6 -0.2 -15.6 -2.45 -15.6 -4.05 -14.1 -5.6 -12.5 -5.6 -10.25 -5.6 -8.05 -4.05 -6.5 -2.45 -4.9 -0.2 -4.9 2 -4.9 3.55 -6.5&#10;M 2.9 -10.25&#10;Q 2.9 -9.35 2.25 -8.75 1.7 -8.1 0.8 -8.1 -0.1 -8.1 -0.75 -8.75 -1.35 -9.35 -1.35 -10.25 -1.35 -11.15 -0.75 -11.8 -0.1 -12.4 0.8 -12.4 1.7 -12.4 2.25 -11.8 2.9 -11.15 2.9 -10.25 Z"/>

<path fill="#FFFFFF" stroke="none" d="&#10;M 2.25 -8.75&#10;Q 2.9 -9.35 2.9 -10.25 2.9 -11.15 2.25 -11.8 1.7 -12.4 0.8 -12.4 -0.1 -12.4 -0.75 -11.8 -1.35 -11.15 -1.35 -10.25 -1.35 -9.35 -0.75 -8.75 -0.1 -8.1 0.8 -8.1 1.7 -8.1 2.25 -8.75 Z"/>
</g><g id="g-38">
<path fill="#477CA6" stroke="none" d="&#10;M 15.15 -7.9&#10;Q 16.05 -8.75 16.05 -9.95 16.05 -11.15 15.15 -12.05 14.3 -12.9 13.1 -12.9 11.9 -12.9 11 -12.05 10.15 -11.15 10.15 -9.95 10.15 -8.75 11 -7.9 11.9 -7.05 13.1 -7.05 14.3 -7.05 15.15 -7.9 Z"/>
</g><g id="g-39">
<path fill="#477CA6" stroke="none" d="&#10;M -11.55 -7.9&#10;Q -10.65 -8.75 -10.65 -9.95 -10.65 -11.15 -11.55 -12.05 -12.4 -12.9 -13.55 -12.9 -14.75 -12.9 -15.65 -12.05 -16.5 -11.15 -16.5 -9.95 -16.5 -8.75 -15.65 -7.9 -14.75 -7.05 -13.55 -7.05 -12.4 -7.05 -11.55 -7.9 Z"/>
</g><g id="g-40">
<path fill="#5393C5" stroke="none" d="&#10;M 10.2 -18.05&#10;Q 8.85 -19.15 6.9 -19.15&#10;L -6.8 -19.15&#10;Q -8.75 -19.15 -10.15 -18.05 -11.5 -16.9 -11.5 -15.3 -11.5 -13.7 -10.15 -12.6 -8.75 -11.45 -6.8 -11.45&#10;L 6.9 -11.45&#10;Q 8.85 -11.45 10.2 -12.6 11.6 -13.7 11.6 -15.3 11.6 -16.9 10.2 -18.05 Z"/>
</g><g id="g-41">
<path fill="#334E63" stroke="none" d="&#10;M 0.85 2.15&#10;Q 0.65 1.8 0.2 1.7&#10;L -5.6 0.05&#10;Q -6.05 -0.1 -6.5 0.1 -6.85 0.35 -6.95 0.85 -7.1 1.35 -6.9 1.75 -6.65 2.15 -6.2 2.3&#10;L -0.4 3.95&#10;Q 0.05 4.05 0.45 3.8 0.8 3.6 0.95 3.1 1.05 2.6 0.85 2.15 Z"/>
</g><g id="g-42">
<path fill="#BFD4E5" stroke="none" d="&#10;M 11.85 -7.1&#10;Q 17 -12.2 17 -19.45 17 -26.7 11.85 -31.85 6.7 -37 -0.55 -37 -7.8 -37 -12.95 -31.85 -18.1 -26.7 -18.1 -19.45 -18.1 -12.2 -12.95 -7.1 -7.8 -1.9 -0.55 -1.9 6.7 -1.9 11.85 -7.1&#10;M 9.4 -19.45&#10;Q 9.4 -15.35 6.5 -12.45 3.55 -9.5 -0.55 -9.5 -4.65 -9.5 -7.55 -12.45 -10.5 -15.35 -10.5 -19.45 -10.5 -23.55 -7.55 -26.45 -4.65 -29.4 -0.55 -29.4 3.55 -29.4 6.5 -26.45 9.4 -23.55 9.4 -19.45 Z"/>

<path fill="#FFFFFF" stroke="none" d="&#10;M 6.5 -12.45&#10;Q 9.4 -15.35 9.4 -19.45 9.4 -23.55 6.5 -26.45 3.55 -29.4 -0.55 -29.4 -4.65 -29.4 -7.55 -26.45 -10.5 -23.55 -10.5 -19.45 -10.5 -15.35 -7.55 -12.45 -4.65 -9.5 -0.55 -9.5 3.55 -9.5 6.5 -12.45 Z"/>
</g><g id="g-43">
<path fill="#477CA6" stroke="none" d="&#10;M -16 -30.45&#10;Q -16.95 -29.9 -17.25 -28.8&#10;L -19.45 -20.6&#10;Q -19.75 -19.5 -19.2 -18.45 -18.55 -17.5 -17.45 -17.2&#10;L -17.4 -17.2&#10;Q -16.3 -16.9 -15.3 -17.4 -14.3 -18.05 -14 -19.15&#10;L -11.85 -27.35&#10;Q -11.55 -28.45 -12.15 -29.45 -12.7 -30.45 -13.75 -30.75&#10;L -13.8 -30.75&#10;Q -14.9 -31.05 -16 -30.45 Z"/>
</g><g id="g-44">
<path fill="#477CA6" stroke="none" d="&#10;M 16.3 -28.8&#10;Q 16 -29.9 15.05 -30.45 13.95 -31.05 12.85 -30.75&#10;L 12.8 -30.75&#10;Q 11.7 -30.45 11.15 -29.45 10.55 -28.45 10.85 -27.35&#10;L 13.05 -19.15&#10;Q 13.35 -18.05 14.35 -17.4 15.35 -16.9 16.45 -17.2&#10;L 16.5 -17.2&#10;Q 17.55 -17.5 18.2 -18.45 18.75 -19.5 18.45 -20.6&#10;L 16.3 -28.8 Z"/>
</g><g id="g-45">
<path fill="#5393C5" stroke="none" d="&#10;M -24.65 -11&#10;Q -27 -8.65 -27 -5.35 -27 -2.05 -24.65 0.25 -22.25 2.65 -19 2.65 -15.7 2.65 -13.3 0.25 -11 -2.05 -11 -5.35 -11 -8.65 -13.3 -11 -15.7 -13.4 -19 -13.4 -22.25 -13.4 -24.65 -11&#10;M -22.35 -1.95&#10;Q -23.75 -3.35 -23.75 -5.35 -23.75 -7.3 -22.35 -8.75 -20.95 -10.15 -19 -10.15 -16.95 -10.15 -15.55 -8.75 -14.15 -7.3 -14.15 -5.35 -14.15 -3.35 -15.55 -1.95 -16.95 -0.5 -19 -0.5 -20.95 -0.5 -22.35 -1.95&#10;M 18 -13.4&#10;Q 14.75 -13.4 12.35 -11 10 -8.65 10 -5.35 10 -2.05 12.35 0.25 14.75 2.65 18 2.65 21.3 2.65 23.7 0.25 26 -2.05 26 -5.35 26 -8.65 23.7 -11 21.3 -13.4 18 -13.4&#10;M 18 -0.5&#10;Q 16.05 -0.5 14.65 -1.95 13.2 -3.35 13.2 -5.35 13.2 -7.3 14.65 -8.75 16.05 -10.15 18 -10.15 20 -10.15 21.45 -8.75 22.85 -7.3 22.85 -5.35 22.85 -3.35 21.45 -1.95 20 -0.5 18 -0.5 Z"/>

<path fill="#477CA6" stroke="none" d="&#10;M -23.75 -5.35&#10;Q -23.75 -3.35 -22.35 -1.95 -20.95 -0.5 -19 -0.5 -16.95 -0.5 -15.55 -1.95 -14.15 -3.35 -14.15 -5.35 -14.15 -7.3 -15.55 -8.75 -16.95 -10.15 -19 -10.15 -20.95 -10.15 -22.35 -8.75 -23.75 -7.3 -23.75 -5.35&#10;M 14.65 -1.95&#10;Q 16.05 -0.5 18 -0.5 20 -0.5 21.45 -1.95 22.85 -3.35 22.85 -5.35 22.85 -7.3 21.45 -8.75 20 -10.15 18 -10.15 16.05 -10.15 14.65 -8.75 13.2 -7.3 13.2 -5.35 13.2 -3.35 14.65 -1.95 Z"/>
</g><g id="g-46">
<path fill="#334E63" stroke="none" d="&#10;M -18.2 8&#10;L -10.2 8&#10;Q -10.25 -1.8 -19.5 -4.7&#10;L -18.2 8&#10;M 11.7 8&#10;Q 17.05 7.3 17.8 2.3&#10;L 18.7 -6.45&#10;Q 9.65 -1.8 9.3 8&#10;L 11.7 8 Z"/>

<path fill="#5393C5" stroke="none" d="&#10;M 18.7 -6.45&#10;L 20.45 -23.35 -21.4 -23.35 -19.5 -4.7&#10;Q -10.25 -1.8 -10.2 8&#10;L 9.3 8&#10;Q 9.65 -1.8 18.7 -6.45 Z"/>
</g><g id="g-47">
<path fill="#477CA6" stroke="none" d="&#10;M 5.45 -4.6&#10;Q 7.8 -6.95 7.8 -10.25 7.8 -13.6 5.45 -15.9 3.1 -18.25 -0.2 -18.25 -3.55 -18.25 -5.85 -15.9 -8.2 -13.6 -8.2 -10.25 -8.2 -6.95 -5.85 -4.6 -3.55 -2.25 -0.2 -2.25 3.1 -2.25 5.45 -4.6&#10;M 5.15 -10.25&#10;Q 5.15 -8.05 3.55 -6.5 2 -4.9 -0.2 -4.9 -2.45 -4.9 -4.05 -6.5 -5.6 -8.05 -5.6 -10.25 -5.6 -12.5 -4.05 -14.1 -2.45 -15.6 -0.2 -15.6 2 -15.6 3.55 -14.1 5.15 -12.5 5.15 -10.25 Z"/>

<path fill="#FFCC00" stroke="none" d="&#10;M 3.55 -6.5&#10;Q 5.15 -8.05 5.15 -10.25 5.15 -12.5 3.55 -14.1 2 -15.6 -0.2 -15.6 -2.45 -15.6 -4.05 -14.1 -5.6 -12.5 -5.6 -10.25 -5.6 -8.05 -4.05 -6.5 -2.45 -4.9 -0.2 -4.9 2 -4.9 3.55 -6.5&#10;M 2.9 -10.25&#10;Q 2.9 -9.35 2.25 -8.75 1.7 -8.1 0.8 -8.1 -0.1 -8.1 -0.75 -8.75 -1.35 -9.35 -1.35 -10.25 -1.35 -11.15 -0.75 -11.8 -0.1 -12.4 0.8 -12.4 1.7 -12.4 2.25 -11.8 2.9 -11.15 2.9 -10.25 Z"/>

<path fill="#FFFFFF" stroke="none" d="&#10;M 2.25 -8.75&#10;Q 2.9 -9.35 2.9 -10.25 2.9 -11.15 2.25 -11.8 1.7 -12.4 0.8 -12.4 -0.1 -12.4 -0.75 -11.8 -1.35 -11.15 -1.35 -10.25 -1.35 -9.35 -0.75 -8.75 -0.1 -8.1 0.8 -8.1 1.7 -8.1 2.25 -8.75 Z"/>
</g><g id="g-48">
<path fill="#477CA6" stroke="none" d="&#10;M 15.15 -7.9&#10;Q 16.05 -8.75 16.05 -9.95 16.05 -11.15 15.15 -12.05 14.3 -12.9 13.1 -12.9 11.9 -12.9 11 -12.05 10.15 -11.15 10.15 -9.95 10.15 -8.75 11 -7.9 11.9 -7.05 13.1 -7.05 14.3 -7.05 15.15 -7.9 Z"/>
</g><g id="g-49">
<path fill="#477CA6" stroke="none" d="&#10;M -11.55 -7.9&#10;Q -10.65 -8.75 -10.65 -9.95 -10.65 -11.15 -11.55 -12.05 -12.4 -12.9 -13.55 -12.9 -14.75 -12.9 -15.65 -12.05 -16.5 -11.15 -16.5 -9.95 -16.5 -8.75 -15.65 -7.9 -14.75 -7.05 -13.55 -7.05 -12.4 -7.05 -11.55 -7.9 Z"/>
</g><g id="g-50">
<path fill="#334E63" stroke="none" d="&#10;M -8.35 0.8&#10;Q -9.15 1.6 -9.15 2.75 -9.15 3.9 -8.35 4.7 -8.1421875 4.9078125 -7.9 5.05 -7.8546875 5.007421875 -7.8 4.95 -6.8 4 -6.8 2.65 -6.8 1.329296875 -7.75 0.35 -8.07421875 0.52421875 -8.35 0.8&#10;M 8.5 2.75&#10;Q 8.5 1.6 7.7 0.8 7.425 0.525 7.1 0.35 6.2 1.3298828125 6.2 2.65 6.2 4 7.15 4.95 7.2064453125 5.0064453125 7.25 5.05 7.4935546875 4.9064453125 7.7 4.7 8.5 3.9 8.5 2.75 Z"/>

<path fill="#FFFFFF" stroke="none" d="&#10;M 7.1 0.35&#10;Q 6.5046875 0 5.75 0&#10;L -6.4 0&#10;Q -7.1537109375 0 -7.75 0.35 -6.8 1.329296875 -6.8 2.65 -6.8 4 -7.8 4.95 -7.8546875 5.007421875 -7.9 5.05 -7.251171875 5.5 -6.4 5.5&#10;L 5.75 5.5&#10;Q 6.6033203125 5.5 7.25 5.05 7.2064453125 5.0064453125 7.15 4.95 6.2 4 6.2 2.65 6.2 1.3298828125 7.1 0.35 Z"/>
</g><g id="g-51">
<path fill="#BFD4E5" stroke="none" d="&#10;M 11.85 -7.1&#10;Q 17 -12.2 17 -19.45 17 -26.7 11.85 -31.85 6.7 -37 -0.55 -37 -7.8 -37 -12.95 -31.85 -18.1 -26.7 -18.1 -19.45 -18.1 -12.2 -12.95 -7.1 -7.8 -1.9 -0.55 -1.9 6.7 -1.9 11.85 -7.1&#10;M 9.4 -19.45&#10;Q 9.4 -15.35 6.5 -12.45 3.55 -9.5 -0.55 -9.5 -4.65 -9.5 -7.55 -12.45 -10.5 -15.35 -10.5 -19.45 -10.5 -23.55 -7.55 -26.45 -4.65 -29.4 -0.55 -29.4 3.55 -29.4 6.5 -26.45 9.4 -23.55 9.4 -19.45 Z"/>

<path fill="#FFFFFF" stroke="none" d="&#10;M 6.5 -12.45&#10;Q 9.4 -15.35 9.4 -19.45 9.4 -23.55 6.5 -26.45 3.55 -29.4 -0.55 -29.4 -4.65 -29.4 -7.55 -26.45 -10.5 -23.55 -10.5 -19.45 -10.5 -15.35 -7.55 -12.45 -4.65 -9.5 -0.55 -9.5 3.55 -9.5 6.5 -12.45 Z"/>
</g><g id="g-52">
<path fill="#477CA6" stroke="none" d="&#10;M -16 -30.45&#10;Q -16.95 -29.9 -17.25 -28.8&#10;L -19.45 -20.6&#10;Q -19.75 -19.5 -19.2 -18.45 -18.55 -17.5 -17.45 -17.2&#10;L -17.4 -17.2&#10;Q -16.3 -16.9 -15.3 -17.4 -14.3 -18.05 -14 -19.15&#10;L -11.85 -27.35&#10;Q -11.55 -28.45 -12.15 -29.45 -12.7 -30.45 -13.75 -30.75&#10;L -13.8 -30.75&#10;Q -14.9 -31.05 -16 -30.45 Z"/>
</g><g id="g-53">
<path fill="#477CA6" stroke="none" d="&#10;M 16.3 -28.8&#10;Q 16 -29.9 15.05 -30.45 13.95 -31.05 12.85 -30.75&#10;L 12.8 -30.75&#10;Q 11.7 -30.45 11.15 -29.45 10.55 -28.45 10.85 -27.35&#10;L 13.05 -19.15&#10;Q 13.35 -18.05 14.35 -17.4 15.35 -16.9 16.45 -17.2&#10;L 16.5 -17.2&#10;Q 17.55 -17.5 18.2 -18.45 18.75 -19.5 18.45 -20.6&#10;L 16.3 -28.8 Z"/>
</g><g id="g-54">
<path fill="#5393C5" stroke="none" d="&#10;M -24.65 -11&#10;Q -27 -8.65 -27 -5.35 -27 -2.05 -24.65 0.25 -22.25 2.65 -19 2.65 -15.7 2.65 -13.3 0.25 -11 -2.05 -11 -5.35 -11 -8.65 -13.3 -11 -15.7 -13.4 -19 -13.4 -22.25 -13.4 -24.65 -11&#10;M -22.35 -1.95&#10;Q -23.75 -3.35 -23.75 -5.35 -23.75 -7.3 -22.35 -8.75 -20.95 -10.15 -19 -10.15 -16.95 -10.15 -15.55 -8.75 -14.15 -7.3 -14.15 -5.35 -14.15 -3.35 -15.55 -1.95 -16.95 -0.5 -19 -0.5 -20.95 -0.5 -22.35 -1.95&#10;M 18 -13.4&#10;Q 14.75 -13.4 12.35 -11 10 -8.65 10 -5.35 10 -2.05 12.35 0.25 14.75 2.65 18 2.65 21.3 2.65 23.7 0.25 26 -2.05 26 -5.35 26 -8.65 23.7 -11 21.3 -13.4 18 -13.4&#10;M 18 -0.5&#10;Q 16.05 -0.5 14.65 -1.95 13.2 -3.35 13.2 -5.35 13.2 -7.3 14.65 -8.75 16.05 -10.15 18 -10.15 20 -10.15 21.45 -8.75 22.85 -7.3 22.85 -5.35 22.85 -3.35 21.45 -1.95 20 -0.5 18 -0.5 Z"/>

<path fill="#477CA6" stroke="none" d="&#10;M -23.75 -5.35&#10;Q -23.75 -3.35 -22.35 -1.95 -20.95 -0.5 -19 -0.5 -16.95 -0.5 -15.55 -1.95 -14.15 -3.35 -14.15 -5.35 -14.15 -7.3 -15.55 -8.75 -16.95 -10.15 -19 -10.15 -20.95 -10.15 -22.35 -8.75 -23.75 -7.3 -23.75 -5.35&#10;M 14.65 -1.95&#10;Q 16.05 -0.5 18 -0.5 20 -0.5 21.45 -1.95 22.85 -3.35 22.85 -5.35 22.85 -7.3 21.45 -8.75 20 -10.15 18 -10.15 16.05 -10.15 14.65 -8.75 13.2 -7.3 13.2 -5.35 13.2 -3.35 14.65 -1.95 Z"/>
</g><g id="headBack_0_Layer0_4_FILL">
<path fill="#477CA6" stroke="none" d="&#10;M -18.2 8&#10;L -10.2 8&#10;Q -10.25 -1.8 -19.5 -4.7&#10;L -18.2 8&#10;M 11.7 8&#10;Q 17.05 7.3 17.8 2.3&#10;L 18.7 -6.45&#10;Q 9.65 -1.8 9.3 8&#10;L 11.7 8 Z"/>

<path fill="#5393C5" stroke="none" d="&#10;M 18.7 -6.45&#10;L 20.45 -23.35 -21.4 -23.35 -19.5 -4.7&#10;Q -10.25 -1.8 -10.2 8&#10;L 9.3 8&#10;Q 9.65 -1.8 18.7 -6.45 Z"/>
</g><g id="g-55">
<path fill="#BFD4E5" stroke="none" d="&#10;M 11.85 -7.1&#10;Q 17 -12.2 17 -19.45 17 -26.7 11.85 -31.85 6.7 -37 -0.55 -37 -7.8 -37 -12.95 -31.85 -18.1 -26.7 -18.1 -19.45 -18.1 -12.2 -12.95 -7.1 -7.8 -1.9 -0.55 -1.9 6.7 -1.9 11.85 -7.1&#10;M 9.4 -19.45&#10;Q 9.4 -15.35 6.5 -12.45 3.55 -9.5 -0.55 -9.5 -4.65 -9.5 -7.55 -12.45 -10.5 -15.35 -10.5 -19.45 -10.5 -23.55 -7.55 -26.45 -4.65 -29.4 -0.55 -29.4 3.55 -29.4 6.5 -26.45 9.4 -23.55 9.4 -19.45 Z"/>

<path fill="#FFFFFF" stroke="none" d="&#10;M 6.5 -12.45&#10;Q 9.4 -15.35 9.4 -19.45 9.4 -23.55 6.5 -26.45 3.55 -29.4 -0.55 -29.4 -4.65 -29.4 -7.55 -26.45 -10.5 -23.55 -10.5 -19.45 -10.5 -15.35 -7.55 -12.45 -4.65 -9.5 -0.55 -9.5 3.55 -9.5 6.5 -12.45 Z"/>
</g><g id="g-56">
<path fill="#477CA6" stroke="none" d="&#10;M -16 -30.45&#10;Q -16.95 -29.9 -17.25 -28.8&#10;L -19.45 -20.6&#10;Q -19.75 -19.5 -19.2 -18.45 -18.55 -17.5 -17.45 -17.2&#10;L -17.4 -17.2&#10;Q -16.3 -16.9 -15.3 -17.4 -14.3 -18.05 -14 -19.15&#10;L -11.85 -27.35&#10;Q -11.55 -28.45 -12.15 -29.45 -12.7 -30.45 -13.75 -30.75&#10;L -13.8 -30.75&#10;Q -14.9 -31.05 -16 -30.45 Z"/>
</g><g id="g-57">
<path fill="#477CA6" stroke="none" d="&#10;M 16.3 -28.8&#10;Q 16 -29.9 15.05 -30.45 13.95 -31.05 12.85 -30.75&#10;L 12.8 -30.75&#10;Q 11.7 -30.45 11.15 -29.45 10.55 -28.45 10.85 -27.35&#10;L 13.05 -19.15&#10;Q 13.35 -18.05 14.35 -17.4 15.35 -16.9 16.45 -17.2&#10;L 16.5 -17.2&#10;Q 17.55 -17.5 18.2 -18.45 18.75 -19.5 18.45 -20.6&#10;L 16.3 -28.8 Z"/>
</g><g id="g-58">
<path fill="#5393C5" stroke="none" d="&#10;M -24.65 -11&#10;Q -27 -8.65 -27 -5.35 -27 -2.05 -24.65 0.25 -22.25 2.65 -19 2.65 -15.7 2.65 -13.3 0.25 -11 -2.05 -11 -5.35 -11 -8.65 -13.3 -11 -15.7 -13.4 -19 -13.4 -22.25 -13.4 -24.65 -11&#10;M -22.35 -1.95&#10;Q -23.75 -3.35 -23.75 -5.35 -23.75 -7.3 -22.35 -8.75 -20.95 -10.15 -19 -10.15 -16.95 -10.15 -15.55 -8.75 -14.15 -7.3 -14.15 -5.35 -14.15 -3.35 -15.55 -1.95 -16.95 -0.5 -19 -0.5 -20.95 -0.5 -22.35 -1.95&#10;M 12.35 -11&#10;Q 10 -8.65 10 -5.35 10 -2.05 12.35 0.25 14.75 2.65 18 2.65 21.3 2.65 23.7 0.25 26 -2.05 26 -5.35 26 -8.65 23.7 -11 21.3 -13.4 18 -13.4 14.75 -13.4 12.35 -11&#10;M 14.65 -8.75&#10;Q 16.05 -10.15 18 -10.15 20 -10.15 21.45 -8.75 22.85 -7.3 22.85 -5.35 22.85 -3.35 21.45 -1.95 20 -0.5 18 -0.5 16.05 -0.5 14.65 -1.95 13.2 -3.35 13.2 -5.35 13.2 -7.3 14.65 -8.75 Z"/>

<path fill="#477CA6" stroke="none" d="&#10;M -23.75 -5.35&#10;Q -23.75 -3.35 -22.35 -1.95 -20.95 -0.5 -19 -0.5 -16.95 -0.5 -15.55 -1.95 -14.15 -3.35 -14.15 -5.35 -14.15 -7.3 -15.55 -8.75 -16.95 -10.15 -19 -10.15 -20.95 -10.15 -22.35 -8.75 -23.75 -7.3 -23.75 -5.35&#10;M 18 -10.15&#10;Q 16.05 -10.15 14.65 -8.75 13.2 -7.3 13.2 -5.35 13.2 -3.35 14.65 -1.95 16.05 -0.5 18 -0.5 20 -0.5 21.45 -1.95 22.85 -3.35 22.85 -5.35 22.85 -7.3 21.45 -8.75 20 -10.15 18 -10.15 Z"/>
</g><g id="g-59">
<path fill="#334E63" stroke="none" d="&#10;M -18.2 8&#10;L -10.2 8&#10;Q -10.25 -1.8 -19.5 -4.7&#10;L -18.2 8&#10;M 11.7 8&#10;Q 17.05 7.3 17.8 2.3&#10;L 18.7 -6.45&#10;Q 9.65 -1.8 9.3 8&#10;L 11.7 8 Z"/>

<path fill="#5393C5" stroke="none" d="&#10;M 18.7 -6.45&#10;L 20.45 -23.35 -21.4 -23.35 -19.5 -4.7&#10;Q -10.25 -1.8 -10.2 8&#10;L 9.3 8&#10;Q 9.65 -1.8 18.7 -6.45 Z"/>
</g><g id="g-60">
<path fill="#477CA6" stroke="none" d="&#10;M 5.45 -4.6&#10;Q 7.8 -6.95 7.8 -10.25 7.8 -13.6 5.45 -15.9 3.1 -18.25 -0.2 -18.25 -3.55 -18.25 -5.85 -15.9 -8.2 -13.6 -8.2 -10.25 -8.2 -6.95 -5.85 -4.6 -3.55 -2.25 -0.2 -2.25 3.1 -2.25 5.45 -4.6&#10;M 5.15 -10.25&#10;Q 5.15 -8.05 3.55 -6.5 2 -4.9 -0.2 -4.9 -2.45 -4.9 -4.05 -6.5 -5.6 -8.05 -5.6 -10.25 -5.6 -12.5 -4.05 -14.1 -2.45 -15.6 -0.2 -15.6 2 -15.6 3.55 -14.1 5.15 -12.5 5.15 -10.25 Z"/>

<path fill="#FFCC00" stroke="none" d="&#10;M 3.55 -6.5&#10;Q 5.15 -8.05 5.15 -10.25 5.15 -12.5 3.55 -14.1 2 -15.6 -0.2 -15.6 -2.45 -15.6 -4.05 -14.1 -5.6 -12.5 -5.6 -10.25 -5.6 -8.05 -4.05 -6.5 -2.45 -4.9 -0.2 -4.9 2 -4.9 3.55 -6.5&#10;M 2.9 -10.25&#10;Q 2.9 -9.35 2.25 -8.75 1.7 -8.1 0.8 -8.1 -0.1 -8.1 -0.75 -8.75 -1.35 -9.35 -1.35 -10.25 -1.35 -11.15 -0.75 -11.8 -0.1 -12.4 0.8 -12.4 1.7 -12.4 2.25 -11.8 2.9 -11.15 2.9 -10.25 Z"/>

<path fill="#FFFFFF" stroke="none" d="&#10;M 2.25 -8.75&#10;Q 2.9 -9.35 2.9 -10.25 2.9 -11.15 2.25 -11.8 1.7 -12.4 0.8 -12.4 -0.1 -12.4 -0.75 -11.8 -1.35 -11.15 -1.35 -10.25 -1.35 -9.35 -0.75 -8.75 -0.1 -8.1 0.8 -8.1 1.7 -8.1 2.25 -8.75 Z"/>
</g><g id="head_0_Layer0_6_FILL">
<path fill="#BFD4E5" stroke="none" d="&#10;M 4.95 1.15&#10;Q 4.95 0.85 4.9 0.6 4.55 0.5 4.15 0.5&#10;L -5.3 0.5&#10;Q -5.65 0.5 -6 0.6 -6.05 0.85 -6.05 1.15&#10;L -6.05 1.2&#10;Q -6.05 2.15 -5.45 2.8 -4.75 3.5 -3.8 3.5&#10;L 2.65 3.5&#10;Q 3.6 3.5 4.25 2.8 4.95 2.15 4.95 1.2&#10;L 4.95 1.15 Z"/>

<path fill="#334E63" stroke="none" d="&#10;M 7.1 3.45&#10;Q 7.1 2.25 6.2 1.35 5.6 0.75 4.9 0.6 4.95 0.85 4.95 1.15&#10;L 4.95 1.2&#10;Q 4.95 2.15 4.25 2.8 3.6 3.5 2.65 3.5&#10;L -3.8 3.5&#10;Q -4.75 3.5 -5.45 2.8 -6.05 2.15 -6.05 1.2&#10;L -6.05 1.15&#10;Q -6.05 0.85 -6 0.6 -6.75 0.75 -7.35 1.35 -8.2 2.25 -8.2 3.45 -8.2 4.65 -7.35 5.5 -6.45 6.4 -5.3 6.4&#10;L 4.15 6.4&#10;Q 5.35 6.4 6.2 5.5 7.1 4.65 7.1 3.45 Z"/>
</g><g id="g-61">
<path fill="#477CA6" stroke="none" d="&#10;M 15.15 -7.9&#10;Q 16.05 -8.75 16.05 -9.95 16.05 -11.15 15.15 -12.05 14.3 -12.9 13.1 -12.9 11.9 -12.9 11 -12.05 10.15 -11.15 10.15 -9.95 10.15 -8.75 11 -7.9 11.9 -7.05 13.1 -7.05 14.3 -7.05 15.15 -7.9 Z"/>
</g><g id="g-62">
<path fill="#477CA6" stroke="none" d="&#10;M -11.55 -7.9&#10;Q -10.65 -8.75 -10.65 -9.95 -10.65 -11.15 -11.55 -12.05 -12.4 -12.9 -13.55 -12.9 -14.75 -12.9 -15.65 -12.05 -16.5 -11.15 -16.5 -9.95 -16.5 -8.75 -15.65 -7.9 -14.75 -7.05 -13.55 -7.05 -12.4 -7.05 -11.55 -7.9 Z"/>
</g></defs><g transform="matrix(6.179203987121582, 0, 0, 6.179203987121582, -744.3196537629397, -268.62529908780976)"><g transform="matrix(0.9999999999999999, 0, 0, 0.9999999999999999, 0, -2.842170943040401e-14)"><g transform="matrix(0.9999999999999999, 0, 0, 0.9999999999999999, 0, -2.842170943040401e-14)"><g transform="matrix(0.9999999999999999, 0, 0, 0.9999999999999999, 0, -2.842170943040401e-14)"><g transform="matrix(-1.4032858610153198, -0.7655782103538513, -0.810135781764984, 1.3261051177978516, 208.7036895751953, 122.1937561035156)">
<g transform="matrix( 1, 0, 0, 1, 0,0) ">
<use xlink:href="#g-24"/>
</g>
</g><g transform="matrix(1.5302481651306152, 0.5035395622253418, 0.5328460931777954, -1.4460846185684204, 260.4745178222656, 125.6390686035156)">
<g transform="matrix( 1, 0, 0, 1, 0,0) ">
<use xlink:href="#g-24"/>
</g>
</g><g transform="matrix(1.532300353050232, 0.4979319870471954, -0.5269120931625366, 1.4480239152908325, 219.6411895751953, 156.03437805175778)">
<g transform="matrix( 1, 0, 0, 1, 0,0) ">
<use xlink:href="#g-25"/>
</g>
</g><g transform="matrix(1.506710171699524, 0.5633540153503418, -0.5346757769584656, 1.2772257328033447, 249.6180419921875, 149.14375305175778)">
<g transform="matrix( 1, 0, 0, 1, 0,0) ">
<use xlink:href="#g-26"/>
</g>
</g><g transform="matrix(1.6203703880310056, 0, 0, 1.53125, 233.33331298828125, 148.6078186035156)">
<g transform="matrix( 1, 0, 0, 1, 0,0) ">
<use xlink:href="#g-30"/>
</g>

<g transform="matrix( 1, 0, 0, 1, 0,0) ">
<use xlink:href="#g-31"/>
</g>
</g><g transform="matrix(1.4032858610153198, 0.7656015157699585, 0.810160458087921, -1.3261051177978516, 284.6990661621094, 101.9046936035156)">
<g transform="matrix( 1, 0, 0, 1, 0,0) ">
<use xlink:href="#g-29"/>
</g>
</g><g transform="matrix(-1.6046206951141357, -0.21280862390995023, -0.22519427537918088, 1.5163664817810059, 181.2384033203125, 142.40624999999997)">
<g transform="matrix( 1, 0, 0, 1, 0,0) ">
<use xlink:href="#g-29"/>
</g>
</g><g transform="matrix(2.4425225257873535, 0, 0, 1.53125, 235.5208282470703, 118.13594055175778)">
<g transform="matrix( 1, 0, 0, 1, 0,0) ">
<use xlink:href="#shadow_0_Layer0_0_FILL"/>
</g>
</g><g transform="matrix(1.6084530353546143, -0.18535470962524414, 0.1961425542831421, 1.5199878215789795, 235.5208282470703, 106.72811889648435)">
<g transform="matrix( 1, 0, 0, 1, 0,0) ">
<use xlink:href="#g-32"/>
</g>

<g transform="matrix( 1, 0, 0, 1, 0,0) ">
<use xlink:href="#g-33"/>
</g>

<g transform="matrix( 1, 0, 0, 1, 0,0) ">
<use xlink:href="#g-34"/>
</g>

<g transform="matrix( 1, 0, 0, 1, 0,0) ">
<use xlink:href="#g-35"/>
</g>

<g transform="matrix( 1, 0, 0, 1, 0,0) ">
<use xlink:href="#g-36"/>
</g>

<g transform="matrix( 1, 0, 0, 1, 0,0) ">
<use xlink:href="#g-37"/>
</g>

<g transform="matrix( 1, 0, 0, 1, 0,0) ">
<use xlink:href="#g-38"/>
</g>

<g transform="matrix( 1, 0, 0, 1, 0,0) ">
<use xlink:href="#g-39"/>
</g>

<g transform="matrix( 1, 0, 0, 1, 0,0) ">
<use xlink:href="#g-40"/>
</g>

<g transform="matrix( 1, 0, 0, 1, 0,0) ">
<use xlink:href="#g-41"/>
</g>
</g></g></g></g></g></svg>